<?xml version="1.0" encoding="UTF-8" standalone="no"?>
<!-- Created with Inkscape (http://www.inkscape.org/) -->

<svg
   width="2317"
   height="1080"
   viewBox="0 0 2317 1080"
   version="1.1"
   id="SVGRoot"
   xmlns:xlink="http://www.w3.org/1999/xlink"
   xmlns="http://www.w3.org/2000/svg"
   xmlns:svg="http://www.w3.org/2000/svg">
  <defs
     id="defs154">
    <linearGradient
       id="linearGradient8872">
      <stop
         style="stop-color:#080000;stop-opacity:0.75;"
         offset="0"
         id="stop8868" />
      <stop
         style="stop-color:#070000;stop-opacity:0.40000001;"
         offset="0.24598071"
         id="stop9602" />
      <stop
         style="stop-color:#070000;stop-opacity:0.25;"
         offset="0.5"
         id="stop9608" />
      <stop
         style="stop-color:#070000;stop-opacity:0.40000001;"
         offset="0.74959809"
         id="stop9610" />
      <stop
         style="stop-color:#080000;stop-opacity:0.75;"
         offset="1"
         id="stop8870" />
    </linearGradient>
    <linearGradient
       xlink:href="#linearGradient8872"
       id="linearGradient8874"
       x1="5.6519918"
       y1="536.93921"
       x2="1916.0253"
       y2="542.59119"
       gradientUnits="userSpaceOnUse"
       gradientTransform="matrix(1.2067709,0,0,1,2.2213278e-8,4.5703125e-6)" />
  </defs>
  <g
     id="layer1">
    <rect
       style="fill:url(#linearGradient8874);fill-opacity:1;stroke-width:1.1114"
       id="rect553"
       width="2317"
       height="1080"
       x="0"
       y="0" />
    <path
       fill-rule="evenodd"
       clip-rule="evenodd"
       d="m 2309.9448,889.23012 c -9.2842,-13.3195 -21.9643,-24.29915 -33.3644,-36.09749 -7.4969,-7.75318 -15.4754,-15.04747 -23.1198,-22.66752 -9.069,-9.0534 -17.9595,-18.29376 -27.0171,-27.36134 -7.4886,-7.49255 -15.1499,-14.80951 -22.6611,-22.27657 -9.2502,-9.20356 -18.509,-18.40994 -27.6062,-27.76928 -4.1154,-4.23208 -8.8084,-7.79 -4.4269,-15.46388 4.6563,-8.14126 3.5999,-17.57707 -0.5721,-25.87132 -2.7048,-5.37086 -1.4643,-8.38487 2.4895,-12.31387 43.2433,-43.00652 86.2629,-86.23682 129.4608,-129.28866 6.6813,-6.66541 11.6095,-14.33645 12.9946,-23.506 2.6254,-17.37312 -6.4719,-30.15159 -18.1891,-41.40602 -7.7603,-7.45575 -16.1127,-14.30246 -23.811,-21.82335 -9.8222,-9.60014 -19.2226,-19.62233 -28.8467,-29.4264 -3.6507,-3.72221 -7.4998,-7.25745 -11.1024,-11.03066 -8.6924,-9.10724 -17.2402,-18.3561 -25.9494,-27.4435 -4.6903,-4.88646 -9.5506,-9.60862 -14.4164,-14.31662 -5.7354,-5.54648 -11.3376,-11.26293 -17.4185,-16.40717 -4.8008,-4.05646 -6.8259,-9.70211 -4.3929,-15.85763 3.5687,-9.05341 3.2854,-18.18329 -0.9799,-26.68999 -2.6256,-5.23205 -1.1498,-8.04496 2.5377,-11.69917 27.0341,-26.77214 53.8784,-53.73975 80.7767,-80.65067 16.5291,-16.5375 32.9818,-33.1543 49.596,-49.60113 8.6242,-8.53218 13.1559,-18.76967 12.6547,-30.76911 -0.4929,-11.64536 -6.6814,-20.94805 -14.5382,-28.993 -14.5777,-14.92566 -29.4075,-29.59637 -44.2034,-44.306753 -14.1274,-14.0475 -28.3766,-27.97604 -42.507,-42.01788 -16.2006,-16.09841 -32.2198,-32.38378 -48.5536,-48.3490499 -8.0749,-7.89765 -9.3438,-7.66253 -17.0673,0.0765 -42.3087,42.3521499 -84.6031,84.7156299 -126.9146,127.0592829 -2.0562,2.05941 -4.2513,3.98 -7.616,7.11866 -2.8945,-3.45026 -5.1831,-6.61726 -7.9078,-9.348 -41.9346,-42.068893 -83.9175,-84.098113 -125.9317,-126.0905129 -6.2027,-6.19801 -9.1764,-6.13003 -15.4642,0.21246 -19.7722,19.9395899 -39.4084,40.0179799 -59.2372,59.9009099 -16.7273,16.76694 -33.6305,33.36107 -50.508,49.983533 -8.2618,8.14411 -16.6397,16.1749 -25.2754,24.56261 -2.11,-2.00841 -3.7753,-3.53808 -5.3671,-5.13291 -43.2631,-43.301123 -86.5177,-86.616403 -129.8006,-129.9033529 -5.8204,-5.82693 -9.9696,-5.28304 -15.4671,0.94046 -4.1494,4.6995 -9.0292,8.7446399 -13.4562,13.2061899 -8.7346,8.8098 -17.3874,17.70457 -26.0711,26.56535 -7.2365,7.38776 -14.3625,14.88317 -21.7293,22.14629 -12.04,11.87764 -24.383,23.45217 -36.3239,35.431793 -10.978,11.01649 -21.4546,22.53437 -32.526,33.46021 -1.4049,1.39087 -5.7185,1.58916 -7.5055,0.46174 -3.2629,-2.0509 -5.5343,-5.61164 -8.4006,-8.35656 -8.0522,-7.69653 -16.2829,-15.20326 -24.2725,-22.95645 -9.8112,-9.520803 -19.4862,-19.180413 -29.1415,-28.859853 -3.7556,-3.75904 -7.2563,-7.76735 -10.9524,-11.58304 -5.7437,-5.9289 -11.5529,-11.79549 -17.3421,-17.68757 -4.1464,-4.22077 -8.3099,-8.43021 -12.4506,-12.65381 -5.5146,-5.62013 -10.9583,-11.31109 -16.5491,-16.85757 -4.3561,-4.31709 -9.2502,-8.1384399 -13.2466,-12.7501199 -4.6761,-5.39635997 -8.6016,-6.24901 -13.7479,-1.34555 -6.3103,6.01105 -12.3516,12.2968799 -18.5146,18.4608999 -39.7199,39.74321 -79.5079,79.424103 -119.1513,119.249463 -0.068,0.0679 -0.119,0.13881 -0.1898,0.20679 -0.269,-0.28328 -0.5324,-0.56655 -0.8014,-0.84415 -14.575,-14.92566 -29.4105,-29.59637 -44.2063,-44.306753 -14.1246,-14.0475 -28.3738,-27.97604 -42.5041,-42.01788 -16.2005,-16.09841 -32.2228,-32.38378 -48.5509,-48.3490499 -8.072,-7.89765 -9.3437,-7.66253 -17.073,0.0765 C 963.21204,48.254747 920.91757,90.618227 878.60612,132.96188 c -2.05623,2.05941 -4.25125,3.98 -7.61599,7.11866 -2.89744,-3.45026 -5.18875,-6.61726 -7.90773,-9.348 C 821.14197,88.663647 779.16188,46.634427 737.14778,4.6420271 c -6.19987,-6.19801 -9.17376,-6.13003 -15.46426,0.21246 -19.76932,19.9395899 -39.40269,40.0179799 -59.23431,59.9009099 -16.72747,16.76694 -33.63052,33.36107 -50.50809,49.983533 -8.26459,8.14411 -16.63965,16.1749 -25.28094,24.56261 -2.10722,-2.00841 -3.76978,-3.53808 -5.36434,-5.13291 C 538.02991,90.867507 494.7838,47.552227 451.50088,4.2652771 c -5.82883,-5.82693 -9.97247,-5.28305 -15.47274,0.94046 -4.14931,4.6995 -9.02649,8.7446399 -13.45335,13.2061899 -8.73476,8.8098 -17.38737,17.70457 -26.07398,26.56535 -7.23648,7.38776 -14.3625,14.88317 -21.72643,22.14629 -12.04286,11.87764 -24.38878,23.45217 -36.32685,35.431793 -10.97792,11.01649 -21.46019,22.53437 -32.52592,33.46021 -1.40764,1.39087 -5.72404,1.58916 -7.51121,0.46174 -3.25995,-2.0509 -5.52861,-5.61164 -8.39488,-8.35656 -8.04935,-7.69653 -16.2856,-15.20326 -24.27549,-22.95645 -9.80819,-9.520803 -19.48327,-19.180413 -29.14416,-28.859853 -3.75278,-3.75904 -7.25348,-7.76735 -10.95244,-11.58304 -5.74387,-5.9289 -11.55287,-11.79549 -17.34206,-17.68757 -4.14646,-4.22077 -8.30708,-8.43021 -12.45071,-12.65381 -5.51444,-5.62013 -10.95809,-11.31109 -16.54902,-16.85757 -4.35322,-4.31709 -9.25023,-8.1384399 -13.24375,-12.7501199 -4.6761,-5.39635997 -8.60163,-6.24901 -13.75072,-1.34555 -6.30751,6.01105 -12.35159,12.2968799 -18.51179,18.4608999 -39.722751,39.74321 -79.510639,79.424103 -119.148417,119.249463 -18.9168064,19.00762 -19.4832627,39.99248 -1.855144,58.18429 7.165672,7.39625 14.47579,14.65088 21.760419,21.92816 36.955606,36.91897 73.959362,73.7898 110.773352,110.85041 1.38215,1.39086 2.01942,5.00542 1.23773,6.82121 -4.28809,9.97688 -6.22538,20.10389 -0.82138,29.93912 3.15516,5.74479 1.45578,8.79847 -2.61703,12.84644 -43.257432,43.02352 -86.237302,86.32463 -129.520226,129.32549 -20.0922036,19.95942 -16.3677537,43.0235 2.687834,60.54394 7.984203,7.34245 15.33114,15.37322 22.995293,23.06126 12.034364,12.07026 24.068728,24.14336 36.154072,36.16264 10.926942,10.86635 21.998327,21.58541 32.868627,32.50274 11.71997,11.76434 22.70357,24.34167 35.16278,35.24768 5.59091,4.89213 4.57979,9.20353 2.26016,13.4328 -5.10377,9.31402 -3.81226,18.27112 0.50697,26.86279 2.38479,4.742 1.41614,7.2603 -1.96277,10.6199 -27.65723,27.48033 -55.167178,55.11079 -82.728107,82.69024 -16.211979,16.22304 -32.350318,32.51976 -48.669923,48.63799 -15.7418196,15.54602 -16.8350802,37.02096 -4.4523461,49.90988 3.3789121,3.51541 6.6473641,7.14131 9.9752941,10.71055 8.188126,8.77581 16.158167,17.76977 24.646513,26.2453 7.972873,7.96274 16.653815,15.20605 24.74281,23.05273 9.895992,9.60009 19.486095,19.50899 29.229142,29.25929 3.591327,3.6004 7.346947,7.0365 10.844807,10.7303 8.37788,8.8495 16.583,17.8802 24.99488,26.7042 5.35019,5.6116 11.16769,10.8012 16.36776,16.5488 5.47479,6.0535 11.52171,7.9091 18.42681,0.9065 42.51822,-43.0944 85.45277,-85.77508 128.26271,-128.58333 1.71636,-1.71945 3.563,-3.30295 5.42665,-5.0196 1.28585,1.00563 2.06189,1.48718 2.68783,2.11607 20.26498,20.26537 40.52145,40.54769 60.77509,60.82716 23.82232,23.8516 47.63049,47.7089 71.47263,71.5407 4.97632,4.9771 9.83368,5.4785 14.30302,1.0707 8.1428,-8.0251 16.09585,-16.2429 24.02341,-24.4861 10.25569,-10.6539 20.19982,-21.6137 30.6736,-32.0467 8.42038,-8.3905 17.6876,-15.9312 26.09948,-24.33313 7.96721,-7.95709 15.25466,-16.5913 22.94997,-24.82609 3.42707,-3.66834 7.0184,-7.19227 10.71169,-10.59152 6.85129,-6.3 13.83569,-12.45837 21.31574,-19.17194 0.87518,0.72235 2.71051,2.00274 4.27109,3.55792 43.66244,43.56453 87.28241,87.16596 130.94203,130.73616 5.67872,5.6655 9.60993,5.8213 15.23483,0.2635 14.26904,-14.0985 28.41636,-28.3047 42.53528,-42.5505 14.42198,-14.5461 28.84962,-29.0921 43.08465,-43.8195 15.99956,-16.55165 31.79519,-33.30442 47.83441,-50.128 8.69793,8.30557 15.72197,14.73304 22.426,21.4749 12.01453,12.09015 23.70336,24.50032 35.77171,36.53091 14.52676,14.48659 29.40754,28.61339 43.9428,43.09439 11.77667,11.7275 23.17373,23.8459 34.93339,35.5932 5.3615,5.3624 9.3239,5.0876 14.6797,-0.2578 15.419,-15.393 30.8266,-30.7861 46.2229,-46.1961 30.4611,-30.49155 60.9336,-60.96608 91.3637,-91.49156 0.9969,1.08777 1.9911,2.16986 2.9994,3.2463 8.1909,8.7758 16.1609,17.76974 24.6493,26.24527 7.97,7.96274 16.6567,15.20605 24.7372,23.05273 9.8988,9.60016 19.4889,19.50906 29.2319,29.25926 3.5942,3.6004 7.3498,7.0365 10.842,10.7304 8.3835,8.8495 16.5858,17.8802 24.995,26.7042 5.3557,5.6116 11.1675,10.8012 16.3677,16.5488 5.4719,6.0535 11.5217,7.909 18.4239,0.9064 42.5211,-43.0943 85.4585,-85.77505 128.2684,-128.58327 1.7107,-1.71946 3.5658,-3.30296 5.4266,-5.01958 1.283,1.00561 2.0591,1.48718 2.6879,2.11604 20.2649,20.26534 40.5186,40.54767 60.7722,60.82721 23.8224,23.8516 47.6333,47.7089 71.4698,71.5406 4.982,4.9771 9.8338,5.4785 14.3031,1.0708 8.1428,-8.0251 16.0986,-16.2429 24.0262,-24.4861 10.25,-10.6539 20.2026,-21.6138 30.6736,-32.0467 8.4232,-8.3906 17.6905,-15.9313 26.1023,-24.33311 7.9644,-7.95719 15.2546,-16.59139 22.9472,-24.82609 3.427,-3.66843 7.0183,-7.19236 10.7116,-10.59161 6.8541,-6.29998 13.8385,-12.45833 21.3129,-19.17189 0.8781,0.72234 2.7162,2.00272 4.2712,3.55789 43.6596,43.56461 87.2852,87.16591 130.942,130.73621 5.6787,5.6654 9.61,5.8212 15.2377,0.2634 14.2634,-14.0985 28.4106,-28.3046 42.5323,-42.5504 14.4276,-14.546 28.8525,-29.0922 43.0875,-43.81957 15.9995,-16.55156 31.7924,-33.30436 47.8343,-50.12795 8.6979,8.30556 15.7249,14.73302 22.429,21.47495 12.0116,12.09005 23.7005,24.50022 35.7717,36.5309 14.5238,14.48657 29.4046,28.61337 43.9429,43.09437 11.7793,11.7274 23.1708,23.8458 34.9304,35.5932 5.3643,5.3623 9.3267,5.0876 14.6825,-0.2578 15.4163,-15.3931 30.8266,-30.7861 46.2201,-46.1962 30.4696,-30.4943 60.9421,-60.97161 91.375,-91.49716 14.5637,-14.58857 17.7528,-32.2733 6.1404,-48.92692 z M 2186.4772,414.87806 c 12.006,12.45835 24.3237,24.61925 36.5534,36.86231 11.0997,11.10715 22.2957,22.11514 33.3869,33.23361 11.7399,11.77849 23.5561,23.489 35.0581,35.49411 14.9628,15.61968 13.2182,26.16311 1.5292,37.84246 -43.4698,43.43142 -86.9028,86.90533 -130.2905,130.42456 -3.2769,3.28597 -4.7384,4.10748 -8.7715,-0.22095 -11.7229,-12.58299 -24.6551,-24.03004 -36.8538,-36.17679 -10.7003,-10.65107 -20.922,-21.77804 -31.611,-32.43478 -5.9959,-5.97422 -12.8019,-11.14963 -18.7468,-17.17484 -7.2139,-7.30561 -13.8131,-15.22027 -20.857,-22.70433 -5.3161,-5.64847 -11.0543,-10.90318 -16.2856,-16.62247 -1.266,-1.37952 -2.3338,-4.34257 -1.7106,-5.83825 4.8431,-11.61702 6.1546,-22.78932 -1.2944,-34.0126 -0.7308,-1.09627 1.3821,-4.93178 3.0503,-6.63708 16.0648,-16.37036 32.2994,-32.5679 48.5028,-48.79663 25.1252,-25.15181 50.2588,-50.29228 75.401,-75.42711 1.4388,-1.43903 2.9626,-2.79307 6.7834,-6.37932 8.9896,9.85224 17.3505,19.42688 26.1561,28.5681 z M 2030.1211,147.5306 c 23.9723,-24.34449 48.2054,-48.428363 72.3732,-72.580223 18.4666,-18.4609 36.9331,-36.91898 56.1103,-56.08806 5.7241,5.60031 11.2556,10.91734 16.6909,16.33919 37.3009,37.22774 74.6078,74.452653 111.8438,111.742723 3.546,3.55224 7.1316,7.21496 9.8989,11.35924 7.6301,11.39892 6.9306,19.71581 -2.7304,29.53689 -20.2565,20.58829 -40.7566,40.94145 -61.1774,61.37395 -23.0036,23.02725 -46.0273,46.03755 -69.0594,69.04498 -1.5975,1.59482 -3.3052,3.07918 -5.8034,5.39635 -16.7358,-16.83775 -32.8516,-33.0948 -49.0154,-49.30369 -26.057,-26.1376 -52.0801,-52.31204 -78.3125,-78.26835 -3.5291,-3.48992 -3.75,-6.01672 -1.9742,-10.61991 3.7868,-9.81257 4.7186,-19.78094 -1.7276,-29.47456 -1.0367,-1.56083 0.9204,-6.46995 2.8832,-8.45853 z m -14.5608,55.41671 c 13.1701,13.15237 25.2923,25.25945 37.4229,37.36372 29.348,29.29893 58.4696,58.83299 88.2483,87.68435 5.5342,5.36235 6.9758,10.46977 3.9085,16.20605 -5.3019,9.91172 -1.6739,18.70169 1.2973,27.93356 0.5919,1.8611 0.2322,5.07342 -1.0254,6.33683 -42.4757,42.74022 -85.1186,85.32466 -127.7472,127.91759 -0.3003,0.30027 -0.8044,0.40792 -2.1696,1.07361 -7.1486,-7.09032 -14.5946,-14.41292 -21.9757,-21.79502 -33.0497,-33.05514 -66.0997,-66.11026 -99.1128,-99.20507 -9.859,-9.87773 -10.7116,-10.19782 -7.2194,-22.01881 2.4839,-8.3962 1.1951,-15.86895 -1.6626,-23.13491 -1.8382,-4.67967 -0.6117,-7.05633 2.3792,-10.0392 35.3581,-35.27315 70.6796,-70.59165 105.9613,-105.94696 7.1032,-7.11582 14.0085,-14.4356 21.6952,-22.37574 z m -271.3722,325.97081 c -4.509,-8.35087 -0.204,-12.25156 4.7724,-17.16068 19.0103,-18.74984 37.8761,-37.63565 56.7788,-56.49031 21.6159,-21.56558 43.2065,-43.15665 64.8224,-64.71656 0.7816,-0.78184 1.7616,-1.37388 3.4865,-2.70809 10.8505,11.01081 21.5254,21.97066 32.3278,32.79452 31.4439,31.4858 62.9077,62.95176 94.4621,94.32427 3.4016,3.38227 4.9509,5.67112 2.0874,10.9145 -5.2425,9.59447 -4.3815,20.00758 0.6712,29.70969 1.9374,3.71936 1.4021,5.68245 -1.6397,8.70214 -32.0842,31.89654 -63.9106,64.05086 -95.8418,96.10321 -9.6778,9.71062 -19.656,19.12661 -29.1016,29.04965 -4.1748,4.38507 -5.9365,0.68836 -8.1655,-1.5325 -29.0564,-28.99583 -58.0533,-58.05114 -87.07,-87.08946 -11.9918,-12.00512 -23.8704,-24.12637 -36.0521,-35.94169 -3.2515,-3.1585 -4.2824,-5.65697 -2.1214,-10.01938 4.1834,-8.41886 4.9311,-17.88303 0.5835,-25.93931 z m -0.405,-380.57736 c 42.5126,-42.4173 84.9543,-84.913933 127.4328,-127.373723 0.6203,-0.61754 1.4784,-0.99146 3.1891,-2.10189 7.9389,8.15826 15.8127,16.42134 23.879,24.50029 34.3386,34.38934 68.7083,68.761703 103.1829,103.017903 3.2825,3.25764 3.8293,5.58615 1.5747,9.97971 -5.0046,9.73043 -4.594,20.02174 0.3116,29.772 1.841,3.65989 1.8466,5.87792 -1.1952,8.90611 -42.3822,42.23317 -84.6343,84.60234 -126.9315,126.92334 -0.306,0.30877 -0.7931,0.43907 -1.9996,1.08494 -1.5436,-1.40505 -3.3904,-2.95171 -5.0868,-4.64852 -40.9973,-41.00378 -81.9606,-82.04722 -123.0231,-122.98867 -2.7841,-2.77891 -3.7442,-4.92046 -1.7956,-8.82679 5.0613,-10.10152 4.3079,-20.46648 -0.5295,-30.46035 -1.5154,-3.12451 -1.5947,-5.20656 0.9912,-7.78435 z m -7.9757,59.71114 c 23.27,23.39835 46.6307,46.70605 69.9545,70.04775 17.6536,17.67059 35.2365,35.40914 53.0062,52.96926 2.9795,2.94886 3.9709,5.13572 1.8438,9.35083 -4.662,9.2262 -5.3445,19.59965 -0.3737,28.39247 4.5286,8.00245 -0.8923,11.30542 -4.5743,15.31372 -9.0577,9.86923 -18.6478,19.26258 -28.1189,28.75222 -7.0638,7.07899 -14.337,13.95403 -21.4064,21.03019 -6.1715,6.16969 -12.1646,12.515 -18.2825,18.73568 -3.4212,3.47293 -7.0267,6.7674 -10.3943,10.28848 -6.5568,6.85521 -12.7085,14.12116 -19.5626,20.65344 -8.5932,8.18092 -17.7216,15.79248 -26.6518,23.67879 -44.4469,-44.42855 -88.35,-88.30471 -132.6186,-132.55479 8.4997,-12.84359 5.9788,-26.25091 -1.2406,-40.39474 10.1819,-9.73609 20.3244,-19.40137 30.4356,-29.0978 7.8143,-7.49824 15.6993,-14.93133 23.3607,-22.59105 8.8056,-8.79279 17.3364,-17.86035 26.0938,-26.69848 7.4517,-7.51806 15.048,-14.88883 22.5875,-22.31626 8.5703,-8.4472 17.8831,-16.28819 25.4537,-25.55122 4.7129,-5.75895 6.8061,-3.71655 10.4879,-0.008 z m -278.368,317.01371 c -2.8605,-5.8156 1.2406,-8.78997 3.4215,-11.43574 4.5374,-5.50965 10.9099,-9.45564 15.9315,-14.62538 7.9502,-8.18092 15.0763,-17.17485 23.1625,-25.21696 10.5615,-10.50094 21.9048,-20.21721 32.5513,-30.64165 5.8317,-5.71362 10.6975,-12.40454 16.4159,-18.24845 4.0728,-4.16696 8.984,-7.49824 13.2664,-11.48106 5.4381,-5.06209 10.6212,-10.39896 15.8976,-15.63668 3.2261,-3.18964 6.4123,-6.41047 10.4257,-10.42727 20.3668,20.54579 39.8388,40.2446 59.3759,59.87826 22.6244,22.73549 45.2514,45.47099 68.0258,68.05351 3.3703,3.34263 4.4297,5.74195 1.9118,10.50376 -4.4297,8.37639 -4.9623,17.25983 -0.3881,26.25942 2.3536,4.62585 4.0955,8.70782 -1.9798,13.95969 -12.7622,11.042 -23.8874,23.9819 -35.8283,35.98986 -7.7888,7.82965 -15.9345,15.29956 -23.7515,23.10373 -8.6442,8.63134 -17.0504,17.49778 -25.635,26.18861 -7.4433,7.54071 -15.0139,14.94548 -22.4742,22.46638 -6.2054,6.25467 -12.3345,12.58582 -19.5994,20.01323 -10.3632,-10.73887 -20.3528,-21.35879 -30.6282,-31.69257 -32.3192,-32.48294 -64.7289,-64.88087 -97.1812,-97.23633 -2.8409,-2.82706 -4.2711,-4.9516 -2.2659,-9.38766 4.5317,-10.01653 4.104,-20.7101 -0.6543,-30.3867 z m 2.4415,-379.38761 c 7.6952,-8.02513 16.3366,-15.13529 24.2245,-22.98194 8.4911,-8.43871 16.3904,-17.46946 24.8419,-25.947823 7.6784,-7.70219 15.875,-14.8775 23.5957,-22.54003 5.574,-5.53233 10.6778,-11.53205 16.1016,-17.22017 3.226,-3.38795 6.636,-6.60027 10.0121,-9.84657 9.6297,-9.2602 19.2878,-18.4949 30.7274,-29.46323 10.1849,10.81536 19.5115,21.12933 29.2745,30.99857 19.183,19.37587 38.6494,38.46848 57.9173,57.753713 10.7938,10.8012 21.4318,21.7582 32.1379,32.64438 1.1244,1.14443 2.1044,2.51263 3.4157,3.36529 7.2195,4.6825 8.9329,9.61712 4.3421,18.03882 -3.9427,7.23196 -3.0788,15.87179 1.3055,23.66748 2.702,4.8043 2.8606,8.52933 -2.6227,13.1042 -9.5561,7.97414 -17.5573,17.80087 -26.2468,26.81746 -3.6932,3.83269 -7.5026,7.5549 -11.2243,11.37057 -9.5052,9.74461 -18.8177,19.67899 -28.5211,29.21679 -7.698,7.56622 -16.0335,14.48658 -23.7572,22.02449 -5.537,5.40485 -10.4029,11.49523 -15.8182,17.02755 -4.036,4.11596 -8.3609,7.9628 -12.7708,11.67368 -2.971,2.49563 -6.3131,4.53805 -10.9071,7.78435 -7.9587,-8.36222 -17.7867,-19.00196 -27.9546,-29.30744 -15.8296,-16.03043 -31.9312,-31.78324 -47.8316,-47.74284 -14.4418,-14.50076 -28.7504,-29.12048 -43.1244,-43.68355 -1.4499,-1.46735 -2.7359,-3.19249 -4.4211,-4.30858 -5.4011,-3.5749 -6.146,-7.44725 -3.7217,-13.78124 3.4556,-9.03357 3.3818,-18.9453 -1.147,-27.71826 -2.5688,-4.98277 -0.2266,-8.44154 2.1724,-10.94567 z m -19.7041,62.86678 c 5.7097,-5.79293 6.1148,-5.54648 11.5387,0.4844 5.183,5.76178 11.3602,10.62841 17.0531,15.93977 3.7415,3.48426 7.4121,7.04217 11.0798,10.60575 6.5909,6.40763 13.3288,12.67363 19.6958,19.2994 11.1818,11.64535 21.8935,23.75244 33.2594,35.21651 8.4544,8.53502 17.8067,16.18622 26.4196,24.57961 4.4495,4.3369 8.0662,9.52364 12.2439,14.16081 2.0788,2.30585 4.5827,4.23211 7.2817,6.67959 -9.2332,10.28281 -9.335,30.31588 0.4872,39.17948 -44.3478,44.17078 -88.6815,88.32171 -133.7573,133.212 -5.3586,-5.01394 -10.7654,-9.92022 -16.0023,-15.00498 -9.6864,-9.399 -19.3729,-18.79234 -28.8553,-28.39246 -7.7236,-7.82116 -15.0197,-16.06725 -22.7319,-23.89974 -8.5279,-8.65683 -17.3733,-17.00206 -25.9721,-25.5909 -7.769,-7.773 -15.3963,-15.69332 -23.0887,-23.53998 -3.9624,-4.03664 -7.7916,-8.21209 -11.9466,-12.0391 -2.6283,-2.42199 -2.9031,-4.42473 -1.2689,-7.69653 5.2483,-10.4981 5.2483,-21.2908 -0.2152,-31.68409 -1.9315,-3.66839 -0.9545,-5.64564 1.5974,-8.19227 26.0882,-25.98746 52.0886,-52.06559 78.1143,-78.12104 15.0367,-15.05031 30.1356,-30.04395 45.0674,-45.19623 z m -6.3388,348.84229 c 0.6628,1.25772 0.076,4.12445 -0.9856,5.19238 -42.8411,43.04619 -85.8068,85.97621 -128.7724,128.89776 -0.4561,0.45889 -1.1867,0.64301 -2.5661,1.35403 -6.5256,-6.77871 -12.8444,-13.2855 -19.1009,-19.86027 -4.2229,-4.43606 -8.2759,-9.03074 -12.5329,-13.42714 -5.0018,-5.16407 -10.148,-10.19783 -15.232,-15.28257 -5.05,-5.05361 -10.0432,-10.17518 -15.1895,-15.13247 -5.4918,-5.29154 -11.1734,-10.39045 -16.7076,-15.64234 -3.8349,-3.63721 -7.5565,-7.39341 -11.3291,-11.09578 -9.8168,-9.6483 -19.7212,-19.21443 -29.4303,-28.97885 -4.7752,-4.80148 -10.0093,-9.36218 -14.3993,-14.45258 2.1384,-3.80154 3.6564,-7.88916 4.3277,-12.34222 1.3255,-8.74464 -0.3285,-16.32502 -3.7896,-23.13491 1.8126,-2.28317 3.7103,-4.48703 5.7439,-6.53511 41.5608,-41.76578 83.2492,-83.39842 124.9177,-125.05371 1.249,-1.25207 2.6765,-2.3285 4.6846,-4.05365 44.1157,44.08012 87.9792,87.90529 131.619,131.51236 -6.1291,13.12969 -7.8851,25.41809 -1.2576,38.03507 z m -143.4041,181.46756 c 2.3878,4.74197 1.4191,7.26028 -1.9599,10.6199 -27.6628,27.48032 -55.1699,55.11077 -82.7252,82.69023 -15.8268,15.8378 -31.5913,31.73792 -47.5144,47.48224 -8.0238,-9.26586 -17.2968,-17.66209 -25.8559,-26.51437 -7.497,-7.75318 -15.4727,-15.04747 -23.1114,-22.66752 -9.0746,-9.0534 -17.9595,-18.29376 -27.0256,-27.36134 -7.4829,-7.49255 -15.147,-14.80951 -22.6583,-22.27657 -9.2559,-9.20356 -18.5117,-18.40994 -27.6091,-27.76928 -4.1124,-4.23208 -8.8084,-7.79 -4.424,-15.46388 4.6535,-8.14126 3.5971,-17.57707 -0.5749,-25.87132 -2.7048,-5.37086 -1.4614,-8.38487 2.4867,-12.31387 43.2433,-43.00652 86.2628,-86.23682 129.4608,-129.28866 0,-0.006 0,-0.008 0,-0.0109 0.5041,0.49572 1.0167,0.98862 1.5463,1.47586 7.9871,7.34242 15.3312,15.37322 22.9954,23.06125 12.0372,12.07027 24.0715,24.14337 36.1541,36.16264 10.9269,10.86635 22.004,21.5854 32.8686,32.50276 11.72,11.76431 22.7092,24.34164 35.1656,35.24766 5.591,4.89212 4.5743,9.20354 2.2629,13.43281 -5.098,9.31401 -3.8065,18.2711 0.5098,26.86279 z M 882.38439,523.55576 c -0.72789,-1.09626 1.38498,-4.93178 3.05319,-6.63708 16.06471,-16.37036 32.29936,-32.5679 48.50566,-48.79662 25.12233,-25.15181 50.25604,-50.29229 75.39526,-75.42712 1.4389,-1.43903 2.9626,-2.79307 6.7862,-6.37929 8.9897,9.85224 17.3477,19.42403 26.1533,28.56523 12.0032,12.45837 24.3236,24.61927 36.5563,36.86233 11.0941,11.10715 22.2957,22.11513 33.3812,33.2336 11.7426,11.77849 23.559,23.489 35.0608,35.49411 0.6287,0.65436 1.1868,1.29455 1.7532,1.9291 -6.5681,11.83231 -5.9506,24.14902 0.3002,35.3638 -0.1813,0.18129 -0.3426,0.36542 -0.5268,0.54954 -43.4698,43.43143 -86.9057,86.90535 -130.2877,130.42459 -3.2741,3.28597 -4.7356,4.10745 -8.7687,-0.22096 -11.72288,-12.58299 -24.65796,-24.03005 -36.85936,-36.17679 -10.69754,-10.65107 -20.91642,-21.77803 -31.61113,-32.43476 -5.99593,-5.97424 -12.80192,-11.14963 -18.74686,-17.17485 -7.21383,-7.30562 -13.81021,-15.22027 -20.8541,-22.70434 -5.31618,-5.64847 -11.05439,-10.90318 -16.28843,-16.62246 -1.26604,-1.37955 -2.3338,-4.34258 -1.70788,-5.83826 4.84321,-11.61419 6.15172,-22.78932 -1.29435,-34.00977 z M 1158.8122,201.18252 c 6.5851,6.75323 13.2607,13.41014 19.9365,20.07272 36.9584,36.91898 73.9565,73.78982 110.7705,110.85043 1.3821,1.39088 2.0194,5.00545 1.2349,6.82122 -4.2852,9.97688 -6.2197,20.10388 -0.8186,29.93913 3.1523,5.74478 1.4587,8.79846 -2.617,12.84643 -42.9799,42.74873 -85.6935,85.76942 -128.6933,128.49832 -1.5577,-1.70531 -3.1919,-3.37095 -4.8913,-5.0026 -7.7576,-7.45575 -16.1128,-14.30246 -23.8081,-21.82335 -9.8195,-9.60014 -19.2284,-19.62233 -28.8496,-29.4264 -3.6537,-3.72221 -7.4999,-7.25745 -11.1026,-11.03066 -8.6923,-9.10724 -17.2372,-18.3561 -25.9522,-27.4435 -4.6846,-4.88646 -9.5447,-9.60862 -14.4135,-14.31662 -5.7354,-5.54648 -11.3376,-11.26293 -17.4185,-16.40717 -4.7978,-4.05646 -6.8229,-9.70211 -4.3928,-15.85763 3.5686,-9.05341 3.2854,-18.18329 -0.9801,-26.68999 -2.6198,-5.23205 -1.1499,-8.04496 2.5406,-11.69917 27.0342,-26.77214 53.8785,-53.73975 80.7767,-80.65067 16.2233,-16.22589 32.373,-32.5311 48.6784,-48.68049 z m 24.0121,-62.2096 c 38.1848,-38.33251 76.4546,-76.580033 114.7103,-114.844563 1.6002,-1.60049 3.3137,-3.099 5.5767,-5.20372 6.5368,6.31699 12.9521,12.3337 19.1604,18.54872 12.0485,12.05893 23.9385,24.27366 35.9756,36.34393 7.6954,7.71636 15.5577,15.26842 23.3069,22.93945 12.7452,12.619813 25.4621,25.262293 38.1677,37.918933 4.0163,3.99698 7.888,8.13277 11.9608,12.07027 2.804,2.71658 3.158,4.9771 1.3142,8.89193 -4.7384,10.05903 -4.5798,20.57413 0.063,30.78046 1.2774,2.80724 2.6143,4.8298 -0.3398,7.77018 -42.5806,42.36348 -85.0279,84.86295 -127.5178,127.31142 -0.6231,0.62319 -1.4275,1.06793 -2.0053,1.49001 -14.9289,-14.6877 -29.2235,-28.92217 -43.7248,-42.94987 -8.9895,-8.69931 -18.5967,-16.7811 -27.3938,-25.67304 -17.9198,-18.11814 -35.4686,-36.60171 -53.2016,-54.90965 -3.4921,-3.6089 -7.0891,-7.11298 -10.6097,-10.69073 2.9682,-5.82973 4.4099,-12.24872 4.1182,-19.27388 -0.2323,-5.52667 -1.7617,-10.51794 -4.1267,-15.10696 4.5657,-5.37369 9.5788,-10.41028 14.5665,-15.41289 z m -296.90239,8.55768 c 23.97244,-24.34449 48.20826,-48.428363 72.3733,-72.580223 18.46363,-18.4609 36.93289,-36.91898 56.11029,-56.08806 5.724,5.60031 11.2583,10.91734 16.6907,16.33919 37.304,37.22774 74.605,74.452653 111.8467,111.742723 2.1554,2.15571 4.2994,4.37373 6.2905,6.69374 -6.6077,11.75866 -6.6898,23.85725 -0.1869,35.27599 -19.9138,20.22004 -40.0485,40.22196 -60.1067,60.29751 -23.0095,23.02727 -46.0302,46.03754 -69.0624,69.04498 -1.5973,1.59483 -3.3023,3.07918 -5.8032,5.39635 -16.73323,-16.83775 -32.84604,-33.09479 -49.0099,-49.30369 -26.06261,-26.1376 -52.07994,-52.31204 -78.31537,-78.26834 -3.53186,-3.48993 -3.75276,-6.01672 -1.97693,-10.6199 3.78392,-9.81258 4.71576,-19.78096 -1.7277,-29.47456 -1.04228,-1.55801 0.91483,-6.46713 2.87761,-8.45571 z m -14.56077,55.41671 c 13.17013,13.15237 25.29228,25.25945 37.42011,37.36372 29.34526,29.29893 58.46964,58.83299 88.25104,87.68435 5.53431,5.36235 6.97591,10.46977 3.90581,16.20605 -5.29926,9.91172 -1.67392,18.70169 1.2942,27.93356 0.5977,1.8611 0.2323,5.07342 -1.0224,6.33683 -42.48134,42.74022 -85.12136,85.32466 -127.75004,127.91759 -0.30587,0.30027 -0.80435,0.40792 -2.16952,1.07361 -7.15434,-7.09032 -14.59191,-14.41292 -21.97567,-21.79502 -33.04989,-33.05514 -66.09695,-66.11026 -99.11573,-99.20507 -9.85919,-9.87773 -10.71169,-10.19782 -7.21667,-22.01881 2.48392,-8.3962 1.1924,-15.86895 -1.65969,-23.13491 -1.83817,-4.67967 -0.61178,-7.05633 2.37626,-10.0392 35.36109,-35.27315 70.67964,-70.59165 105.9642,-105.94696 7.10621,-7.11582 14.01413,-14.4356 21.6981,-22.37574 z M 599.98888,528.91812 c -4.50614,-8.35087 -0.19825,-12.25156 4.77808,-17.16068 19.00178,-18.74984 37.87325,-37.63565 56.77023,-56.49031 21.61599,-21.56558 43.20647,-43.15665 64.82525,-64.71656 0.78454,-0.78184 1.75886,-1.37388 3.48938,-2.70809 10.84763,11.01081 21.5225,21.97066 32.3305,32.79452 31.44121,31.4858 62.90219,62.95176 94.45664,94.32427 3.40157,3.38227 4.95365,5.67112 2.09022,10.9145 -5.23972,9.59447 -4.38155,20.00758 0.66841,29.70969 1.94012,3.71936 1.40483,5.68245 -1.63704,8.70214 -32.08409,31.89654 -63.91044,64.05086 -95.84448,96.10321 -9.6779,9.71062 -19.65318,19.12661 -29.10168,29.04965 -4.17478,4.38507 -5.93646,0.68836 -8.16548,-1.5325 -29.05069,-28.99583 -58.05326,-58.05114 -87.06431,-87.08946 -11.99189,-12.00512 -23.8733,-24.12637 -36.05212,-35.94169 -3.25146,-3.1585 -4.28241,-5.65697 -2.12137,-10.01938 4.17477,-8.41886 4.931,-17.88303 0.57777,-25.93931 z m -0.40783,-380.57736 c 42.51821,-42.4173 84.95993,-84.913933 127.43566,-127.373723 0.62028,-0.61754 1.48129,-0.99146 3.19198,-2.10189 7.93605,8.15826 15.80979,16.42134 23.87329,24.50029 34.34432,34.38934 68.70839,68.761703 103.18857,103.017903 3.27978,3.25764 3.8264,5.58615 1.56624,9.97971 -4.99896,9.73043 -4.59112,20.02174 0.32006,29.772 1.84098,3.65989 1.84382,5.87792 -1.19239,8.90611 -42.38509,42.23317 -84.64273,84.60234 -126.93724,126.92334 -0.30872,0.30877 -0.79021,0.43907 -1.99959,1.08494 -1.54642,-1.40505 -3.38742,-2.95171 -5.08396,-4.64852 -41.00291,-41.00378 -81.96055,-82.04722 -123.02297,-122.98867 -2.78696,-2.77891 -3.74993,-4.92046 -1.79566,-8.82679 5.0613,-10.10152 4.3079,-20.46648 -0.53246,-30.46035 -1.51245,-3.12451 -1.59457,-5.20656 0.98847,-7.78435 z m -7.97289,59.71114 c 23.2672,23.39835 46.6307,46.70605 69.95454,70.04775 17.6536,17.67059 35.24207,35.40914 53.00614,52.96926 2.98238,2.94886 3.97085,5.13572 1.8438,9.35083 -4.6591,9.2262 -5.34451,19.59965 -0.37101,28.39247 4.52598,8.00245 -0.89218,11.30542 -4.57131,15.31372 -9.06048,9.86923 -18.64773,19.26258 -28.11889,28.75222 -7.06655,7.07899 -14.33702,13.95403 -21.40922,21.03019 -6.17153,6.16969 -12.16181,12.515 -18.28237,18.73568 -3.42141,3.47293 -7.0269,6.7674 -10.39448,10.28848 -6.55389,6.85521 -12.70844,14.12116 -19.56539,20.65344 -8.59031,8.18092 -17.71592,15.79248 -26.64895,23.67879 -44.45265,-44.42855 -88.353,-88.30471 -132.62156,-132.55479 8.49967,-12.84359 5.98461,-26.25091 -1.23771,-40.39474 10.18205,-9.73609 20.32446,-19.40137 30.43286,-29.0978 7.8171,-7.49824 15.69934,-14.93133 23.36632,-22.59105 8.80273,-8.79279 17.3364,-17.86035 26.09381,-26.69848 7.44607,-7.51806 15.04508,-14.88883 22.58744,-22.31626 8.57049,-8.4472 17.88019,-16.28819 25.44804,-25.55122 4.71293,-5.75895 6.80316,-3.71655 10.48794,-0.008 z M 313.23739,525.06561 c -2.86059,-5.8156 1.24337,-8.78997 3.42141,-11.43574 4.53731,-5.50965 10.90994,-9.45564 15.93159,-14.62538 7.95303,-8.18092 15.07905,-17.17485 23.16522,-25.21696 10.56157,-10.50094 21.89919,-20.21721 32.54574,-30.64165 5.8345,-5.71362 10.70037,-12.40454 16.41591,-18.24845 4.07282,-4.16696 8.98682,-7.49824 13.26641,-11.48106 5.43798,-5.06209 10.62387,-10.39896 15.90042,-15.63668 3.22031,-3.18964 6.41228,-6.41047 10.42563,-10.42727 20.36692,20.54579 39.83885,40.2446 59.37595,59.87826 22.62426,22.73549 45.24852,45.47099 68.02289,68.05351 3.37041,3.34263 4.43251,5.74195 1.91179,10.50376 -4.43251,8.37639 -4.96216,17.25983 -0.38801,26.25942 2.35361,4.62585 4.09548,8.70782 -1.97693,13.95969 -12.76511,11.042 -23.8903,23.9819 -35.83404,35.98986 -7.78876,7.82965 -15.93442,15.29956 -23.74868,23.10373 -8.64412,8.63134 -17.05317,17.49778 -25.6378,26.18861 -7.44042,7.54071 -15.01392,14.94548 -22.47416,22.46638 -6.20837,6.25467 -12.33174,12.58582 -19.59654,20.01323 -10.36617,-10.73887 -20.34996,-21.35879 -30.63114,-31.69257 -32.322,-32.48294 -64.73179,-64.88087 -97.18123,-97.23633 -2.83511,-2.82706 -4.26825,-4.9516 -2.26016,-9.38766 4.53448,-10.01653 4.10399,-20.7101 -0.65427,-30.3867 z M 315.68166,145.678 c 7.69247,-8.02513 16.33376,-15.13529 24.22734,-22.98194 8.48833,-8.43871 16.38757,-17.46946 24.84193,-25.947823 7.67264,-7.70219 15.87493,-14.8775 23.59574,-22.54003 5.57392,-5.53233 10.68053,-11.53205 16.09867,-17.22017 3.22598,-3.38795 6.63888,-6.60027 10.01497,-9.84657 9.63258,-9.2602 19.28783,-18.4949 30.7274,-29.46323 10.18207,10.81536 19.50594,21.12933 29.27447,30.99857 19.17737,19.37587 38.64932,38.46848 57.91732,57.753713 10.79382,10.8012 21.42905,21.7582 32.13507,32.64438 1.1244,1.14443 2.10437,2.51263 3.41857,3.36529 7.21664,4.6825 8.93584,9.61712 4.34188,18.03882 -3.94255,7.23196 -3.07869,15.87179 1.30851,23.66748 2.69916,4.8043 2.85777,8.52933 -2.62835,13.1042 -9.5533,7.97414 -17.55449,17.80087 -26.24109,26.81746 -3.69896,3.83269 -7.50838,7.5549 -11.22433,11.37057 -9.50231,9.74461 -18.81768,19.67899 -28.52108,29.21679 -7.69813,7.56622 -16.03355,14.48658 -23.76,22.02449 -5.53995,5.40485 -10.39731,11.49523 -15.81547,17.02755 -4.03316,4.11596 -8.36089,7.9628 -12.77359,11.67368 -2.96822,2.49563 -6.31315,4.53805 -10.90428,7.78435 -7.95871,-8.36222 -17.78389,-19.00196 -27.95744,-29.30744 -15.82396,-16.03043 -31.93114,-31.78324 -47.82591,-47.74284 -14.4418,-14.50076 -28.75049,-29.12048 -43.12715,-43.68355 -1.45013,-1.46735 -2.73315,-3.19249 -4.41836,-4.30858 -5.40116,-3.5749 -6.14604,-7.44725 -3.72161,-13.78124 3.4554,-9.03357 3.38175,-18.9453 -1.14424,-27.71826 -2.58022,-4.98277 -0.24075,-8.44154 2.16103,-10.94567 z m -19.70419,62.86678 c 5.71272,-5.79293 6.1149,-5.54648 11.53872,0.4844 5.18592,5.76178 11.36312,10.62841 17.05317,15.93977 3.73861,3.48426 7.40925,7.04217 11.07705,10.60575 6.59355,6.40763 13.33439,12.67363 19.69851,19.2994 11.18186,11.64535 21.89071,23.75244 33.25382,35.21651 8.46003,8.53502 17.81222,16.18622 26.42235,24.57961 4.45234,4.3369 8.06634,9.52364 12.2468,14.16081 2.07889,2.30585 4.58263,4.23211 7.27894,6.67959 -9.23322,10.28281 -9.32952,30.31588 0.49,39.17948 -44.35069,44.17078 -88.68156,88.32171 -133.75732,133.212 -5.35868,-5.01394 -10.76834,-9.92022 -16.00805,-15.00498 -9.68075,-9.399 -19.36999,-18.79234 -28.85247,-28.39246 -7.72929,-7.82116 -15.02242,-16.06725 -22.73755,-23.89974 -8.528,-8.65683 -17.37038,-17.00206 -25.96919,-25.5909 -7.77461,-7.773 -15.39911,-15.69332 -23.09158,-23.53998 -3.95954,-4.03664 -7.78878,-8.21209 -11.94374,-12.0391 -2.62552,-2.42199 -2.90875,-4.42473 -1.26885,-7.69653 5.24538,-10.4981 5.24821,-21.2908 -0.21526,-31.68409 -1.93161,-3.66839 -0.96014,-5.64564 1.59741,-8.19227 26.08531,-25.98746 52.08848,-52.06559 78.11148,-78.12104 15.04508,-15.05031 30.14115,-30.04395 45.07576,-45.19623 z M 115.27226,280.04292 C 106.27692,271.34359 96.669836,263.26181 87.872765,254.36987 69.952921,236.25172 52.401274,217.76816 34.671194,199.46022 30.84195,195.50573 26.879586,191.68154 23.039013,187.73838 13.98421,178.4442 12.947595,168.45032 20.943124,158.15901 26.259317,151.3123 32.484672,145.13128 38.625058,138.97292 76.807042,100.64041 115.07966,62.392887 153.33245,24.128357 c 1.60025,-1.60049 3.31094,-3.099 5.57394,-5.20372 6.53973,6.31699 12.95485,12.3337 19.1632,18.54872 12.04855,12.05893 23.94411,24.27366 35.97847,36.34393 7.69531,7.71636 15.55772,15.26842 23.30118,22.93945 12.74528,12.619813 25.46221,25.262293 38.17349,37.918933 4.01335,3.99698 7.88791,8.13277 11.95507,12.07027 2.80679,2.71658 3.16365,4.9771 1.31985,8.89193 -4.73842,10.05903 -4.58264,20.57413 0.0595,30.78046 1.28018,2.80724 2.61702,4.8298 -0.33988,7.77018 -42.58336,42.36348 -85.02792,84.86295 -127.52063,127.31142 -0.62028,0.62319 -1.42465,1.06793 -2.00244,1.49001 -14.93179,-14.68487 -29.22631,-28.91935 -43.72191,-42.94702 z m 22.94147,392.92805 c -4.22009,-4.43606 -8.27309,-9.03074 -12.53001,-13.42714 -5.00464,-5.16407 -10.14806,-10.19783 -15.23201,-15.28257 -5.05562,-5.05361 -10.04326,-10.17518 -15.192353,-15.13247 -5.491796,-5.29154 -11.173351,-10.39045 -16.707629,-15.64234 -3.834909,-3.63721 -7.553694,-7.39341 -11.329126,-11.09578 -9.819517,-9.6483 -19.721175,-19.21443 -29.430234,-28.97885 -6.607713,-6.64842 -14.141583,-12.81527 -19.015939,-20.60812 -3.911381,-6.249 -5.48896,-14.72453 -0.303054,-21.99897 3.446887,-4.82982 7.032555,-9.66812 11.201675,-13.85488 41.560895,-41.76579 83.24924,-83.39843 124.91777,-125.05373 1.25186,-1.25208 2.68217,-2.3285 4.69026,-4.05364 44.11278,44.08013 87.97631,87.90529 131.61328,131.51234 -6.13471,13.12971 -7.89074,25.4181 -1.25753,38.03507 0.65993,1.25775 0.0709,4.12446 -0.98846,5.19241 -42.83827,43.04617 -85.80397,85.9762 -128.77251,128.89772 -0.45316,0.45893 -1.18673,0.64304 -2.56322,1.35406 -6.52274,-6.78155 -12.84723,-13.29117 -19.10091,-19.86311 z M 290.06651,927.0414 c 0.54379,0.99997 -0.39935,3.53243 -1.43315,4.57486 -42.53803,42.7006 -85.16104,85.31614 -127.80103,127.91474 -0.76472,0.7649 -1.82115,1.2323 -2.6765,1.7988 -10.43696,-10.3394 -20.28198,-20.0444 -30.07033,-29.8145 -7.50271,-7.4925 -14.8978,-15.0984 -22.39485,-22.5967 -8.981166,-8.98535 -18.030306,-17.89994 -27.034128,-26.86269 -7.505546,-7.47275 -14.994097,-14.96541 -22.485481,-22.45223 -9.151101,-9.13842 -18.205905,-18.3788 -27.484458,-27.3897 -8.30425,-8.06479 -16.401742,-16.31087 -11.637845,-29.20262 1.671045,-4.52671 4.761065,-8.89479 8.193791,-12.35355 43.75025,-44.09428 87.681761,-88.01577 131.579291,-131.96559 0.46732,-0.46456 1.15556,-0.70534 2.5972,-1.56082 43.76158,43.58155 87.65344,87.29059 131.58498,131.04494 -6.35283,13.22603 -8.00404,25.94498 -0.93749,38.86506 z m 13.70823,-52.22989 c -0.61459,0.62038 -1.50959,0.95464 -2.26866,1.42203 -0.62876,0.53539 -1.25468,1.07645 -1.88629,1.61466 -8.31841,-9.06757 -16.41025,-18.35893 -25.00905,-27.15456 -15.6427,-15.99925 -31.6026,-31.69825 -47.40672,-47.55019 -14.16991,-14.22032 -28.30865,-28.46896 -42.46157,-42.7091 -1.13008,-1.13874 -2.10721,-2.45881 -3.35058,-3.45027 -8.00403,-6.4218 -13.71957,-12.65096 -7.42342,-24.35014 3.81508,-7.07332 1.43596,-15.87745 -2.5887,-23.14624 -2.11006,-3.80436 -1.22071,-6.19518 1.53794,-8.94293 41.68833,-41.65247 83.34271,-83.33892 124.93475,-125.08488 2.73882,-2.74776 4.42686,-2.70242 7.23365,0.11612 41.1842,41.38336 82.46754,82.6789 123.82734,123.88663 3.27695,3.26614 4.49483,5.59747 2.06474,10.44428 -4.99899,9.95704 -4.37872,20.30501 0.58061,30.47168 0.89783,1.83845 0.80155,5.58332 -0.45598,6.84671 -42.31429,42.65525 -84.82401,85.12355 -127.32806,127.58618 z m 270.78027,50.98632 c 0.7024,1.75912 0.25772,5.08191 -0.9998,6.35665 -42.64,43.13969 -85.44143,86.11222 -129.41543,130.31972 -13.43633,-13.6877 -26.00885,-26.6616 -38.76261,-39.4514 -28.97141,-29.06099 -57.96546,-58.09932 -87.1408,-86.95349 -4.20594,-4.16412 -6.74364,-7.43875 -3.79525,-13.8039 4.09265,-8.83811 3.18915,-18.52606 -0.67692,-27.0809 -2.61703,-5.78442 -0.0509,-8.2999 3.23447,-11.57736 35.32422,-35.29016 70.64559,-70.57749 105.916,-105.92429 6.76914,-6.78156 13.30039,-13.79823 20.19699,-20.97921 2.19218,1.71947 3.69896,2.67409 4.92816,3.90634 41.17005,41.16808 82.28344,82.39563 123.51296,123.50988 3.27978,3.26615 4.67327,5.64563 1.99111,10.41028 -5.83168,10.36498 -3.11835,20.88006 1.01112,31.26768 z m 12.0202,-48.94675 c -2.41028,-2.30301 -4.69026,-4.41056 -6.88245,-6.60025 -39.87286,-39.8792 -79.71456,-79.79236 -119.63839,-119.62338 -4.05583,-4.05081 -6.81447,-6.85805 -2.75016,-13.52629 4.32774,-7.09882 3.175,-15.92278 0.0425,-23.95075 -1.29435,-3.32278 -2.46975,-6.68524 -4.04166,-10.96832 43.53216,-43.3861 86.84624,-86.55974 129.95356,-129.52094 44.78969,45.22455 88.81467,89.67858 133.61004,134.90879 -4.93101,9.416 -5.42382,21.65906 0.42201,34.63012 1.02812,2.28604 -3.00222,7.63422 -5.71555,10.64826 -4.93666,5.48132 -10.68903,10.21481 -16.00522,15.36471 -5.38699,5.22356 -10.74,10.48678 -15.95706,15.8803 -8.545,8.83528 -16.94272,17.80938 -25.44522,26.68431 -3.70462,3.86101 -7.5112,7.62854 -11.27815,11.43007 -9.55328,9.63978 -18.9706,19.41555 -28.69951,28.87403 -8.81405,8.56617 -17.96232,16.78677 -27.61474,25.76934 z m 256.25071,71.78139 c -4.60246,4.53521 -9.33521,8.94294 -13.94616,13.47244 -5.07829,4.99976 -10.08858,10.07039 -15.12721,15.10981 -5.08393,5.08758 -10.19905,10.14403 -15.2405,15.27126 -8.42038,8.55772 -16.72746,17.22582 -25.20165,25.72972 -7.72929,7.7531 -15.62858,15.3449 -23.42586,23.0272 -5.20573,5.1359 -11.26398,9.7078 -15.29431,15.6424 -3.61966,5.3255 -5.72688,4.436 -9.30971,0.83 -13.39669,-13.515 -26.85852,-26.9648 -40.31754,-40.4146 -27.89512,-27.88255 -55.75628,-55.79065 -83.77603,-83.54573 -2.9739,-2.94603 -4.15497,-5.10173 -2.05624,-9.28853 4.43534,-8.82961 4.23709,-18.14362 0.90917,-27.38399 -2.83796,-7.87498 -1.39916,-11.27145 4.78653,-17.05305 9.57313,-8.94009 18.5203,-18.54305 27.84135,-27.75792 7.80009,-7.70787 15.81546,-15.1976 23.62971,-22.89697 8.36655,-8.24607 16.60568,-16.62245 24.90426,-24.93652 8.21644,-8.24041 16.47822,-16.43267 24.655,-24.71556 5.40682,-5.47851 10.63239,-11.14114 16.07038,-16.58564 2.18368,-2.18404 4.71857,-4.01681 6.85412,-5.8071 44.48952,44.50219 88.5485,88.57947 132.69526,132.74175 -9.46549,13.23734 -7.04671,26.63049 0.49282,39.49392 -6.44911,6.43597 -12.7651,12.7813 -19.14339,19.06711 z m 28.31999,-71.991 c -19.45496,-19.5062 -38.68331,-38.80275 -57.93716,-58.07949 -22.34104,-22.37007 -44.63676,-44.78828 -67.12229,-67.01106 -4.18329,-4.13297 -6.36696,-7.27161 -3.64515,-13.8719 3.71311,-9.03074 3.07302,-18.93395 -1.26603,-28.04119 -1.62856,-3.43044 -1.2717,-5.69096 1.47279,-8.42454 42.37383,-42.22185 84.64279,-84.54285 126.9514,-126.83268 0.62026,-0.62036 1.37648,-1.11042 2.44427,-1.95741 10.58704,10.58308 21.03817,21.06418 31.51195,31.50562 22.35521,22.28793 44.71605,44.56452 67.07688,66.83828 10.21328,10.16951 20.27921,20.49199 30.73883,30.3952 4.441,4.20378 1.0082,8.71066 -0.337,11.14397 -5.45511,9.82673 -2.09594,18.80933 1.0082,27.85141 1.0621,3.099 1.8523,4.9431 -0.9177,7.70786 -42.5323,42.37764 -84.92024,84.89409 -127.35915,127.36239 -0.45882,0.4504 -1.16973,0.64303 -2.61984,1.41354 z m 146.77729,181.45903 c -2.9654,2.9715 -4.8149,4.4276 -8.2391,-0.5722 -4.1635,-6.0875 -10.27267,-10.8409 -15.55485,-16.1636 -4.7554,-4.7873 -9.5222,-9.5718 -14.29742,-14.3449 -5.08677,-5.0904 -10.19901,-10.1525 -15.28292,-15.2486 -4.9849,-4.9856 -9.88187,-10.0562 -14.92898,-14.97099 -8.76025,-8.5237 -17.68194,-16.87168 -26.37706,-25.4492 -4.46651,-4.40778 -8.56198,-9.18089 -12.89536,-13.71891 -3.23447,-3.38798 -6.53407,-6.71361 -9.896,-9.97407 -6.04692,-5.86943 -12.16181,-11.66237 -18.5911,-17.81506 7.25349,-12.72462 8.28727,-26.14327 -0.13878,-39.20499 44.4215,-44.2954 88.69293,-88.43501 133.53077,-133.14683 5.1576,4.86946 10.8731,10.10152 16.3904,15.52904 9.4173,9.25736 18.7582,18.58553 28.031,27.97887 7.6784,7.77867 15.1187,15.80098 22.8481,23.5315 8.7035,8.69364 17.6592,17.13801 26.411,25.77784 7.4545,7.37078 14.7789,14.87184 22.1569,22.31342 5.7014,5.74761 10.995,11.98528 17.1892,17.14935 0.3908,0.32292 0.7392,0.67135 1.1074,1.01128 -6.9023,12.08726 -6.7946,25.60788 -0.096,35.70658 -43.6992,43.96118 -87.5657,87.75517 -131.3669,131.61147 z m 416.3425,-131.0591 c 0.5438,0.99997 -0.3993,3.53243 -1.4359,4.57486 -42.5381,42.7006 -85.161,85.31614 -127.7983,127.91474 -0.7675,0.7649 -1.8239,1.2323 -2.6793,1.7988 -10.437,-10.3394 -20.2791,-20.0444 -30.0675,-29.8145 -7.5055,-7.4925 -14.8978,-15.0984 -22.392,-22.5967 -8.984,-8.98535 -18.0332,-17.89994 -27.034,-26.86269 -7.5085,-7.47275 -14.9999,-14.96541 -22.4884,-22.45223 -9.1483,-9.13842 -18.2059,-18.3788 -27.4845,-27.3897 -1.6682,-1.62601 -3.3308,-3.25765 -4.88,-4.93463 6.2509,-11.05615 6.5822,-23.13492 -0.2153,-34.84542 0.5411,-0.61469 1.0905,-1.20958 1.6512,-1.77612 43.7474,-44.09428 87.6818,-88.01577 131.5822,-131.96559 0.4673,-0.46456 1.1499,-0.70534 2.5943,-1.56082 43.7617,43.58155 87.6562,87.29059 131.5878,131.04494 -6.3585,13.22603 -8.0097,25.94498 -0.9403,38.86506 z m 13.7054,-52.22989 c -0.6147,0.62038 -1.5095,0.95464 -2.2715,1.42203 -0.6258,0.53539 -1.2518,1.07645 -1.8806,1.61466 -8.3212,-9.06757 -16.4102,-18.35893 -25.0118,-27.15456 -15.6398,-15.99925 -31.6027,-31.69825 -47.4039,-47.55019 -14.1728,-14.22032 -28.3087,-28.46896 -42.4588,-42.7091 -1.1301,-1.13874 -2.1129,-2.45881 -3.3533,-3.45027 -8.007,-6.4218 -13.7254,-12.65096 -7.4208,-24.35014 3.8095,-7.07332 1.4361,-15.87745 -2.5886,-23.14624 -2.11,-3.80436 -1.2236,-6.19518 1.5352,-8.94293 41.6882,-41.65247 83.3426,-83.33892 124.9319,-125.08488 2.7388,-2.74776 4.4297,-2.70242 7.2363,0.11612 41.1843,41.38336 82.4677,82.6789 123.8303,123.88663 3.2741,3.26614 4.4948,5.59747 2.0647,10.44428 -4.9989,9.95704 -4.3786,20.30501 0.5807,30.47168 0.8949,1.83845 0.7987,5.58332 -0.456,6.84671 -42.3171,42.65525 -84.8269,85.12355 -127.3338,127.58618 z m 270.7803,50.98632 c 0.7023,1.75912 0.2578,5.08191 -0.9997,6.35665 -42.6402,43.13969 -85.4415,86.11222 -129.4126,130.31972 -13.4365,-13.6877 -26.009,-26.6616 -38.7684,-39.4514 -28.9686,-29.06099 -57.9655,-58.09932 -87.1351,-86.95349 -4.2031,-4.16412 -6.7437,-7.43875 -3.7953,-13.8039 4.0927,-8.83811 3.1893,-18.52606 -0.6796,-27.0809 -2.6171,-5.78442 -0.051,-8.2999 3.2373,-11.57736 35.327,-35.29016 70.6454,-70.57749 105.9159,-105.92429 6.7691,-6.78156 13.2975,-13.79823 20.1998,-20.97921 2.1922,1.71947 3.7019,2.67409 4.9282,3.90634 41.17,41.16808 82.2863,82.39563 123.5158,123.50988 3.277,3.26615 4.6676,5.64563 1.9855,10.41028 -5.8318,10.36498 -3.1155,20.88006 1.0082,31.26768 z m 12.0202,-48.94675 c -2.4103,-2.30301 -4.6846,-4.41056 -6.8796,-6.60025 -39.8729,-39.8792 -79.7146,-79.79236 -119.6356,-119.62338 -4.0558,-4.05081 -6.8117,-6.85805 -2.7501,-13.52629 4.3249,-7.09882 3.1721,-15.92278 0.042,-23.95075 -1.2944,-3.32278 -2.4698,-6.68524 -4.0416,-10.96832 43.5321,-43.3861 86.8434,-86.55974 129.9535,-129.52094 44.7897,45.22455 88.8118,89.67858 133.6071,134.90879 -4.9309,9.416 -5.4209,21.65906 0.4193,34.63012 1.0309,2.28604 -2.9995,7.63422 -5.7127,10.64826 -4.9366,5.48132 -10.6919,10.21481 -16.0052,15.36471 -5.387,5.22356 -10.7372,10.48678 -15.9572,15.8803 -8.5449,8.83528 -16.9398,17.80938 -25.4451,26.68431 -3.7075,3.86101 -7.514,7.62854 -11.2781,11.43007 -9.5533,9.63978 -18.9678,19.41555 -28.6996,28.87403 -8.8141,8.56617 -17.9623,16.78677 -27.6176,25.76934 z m 256.2563,71.78139 c -4.6079,4.53521 -9.338,8.94294 -13.9461,13.47244 -5.0812,4.99976 -10.0943,10.07039 -15.1329,15.10981 -5.0839,5.08758 -10.1934,10.14403 -15.2377,15.27126 -8.4203,8.55772 -16.7303,17.22582 -25.2044,25.72972 -7.7264,7.7531 -15.6257,15.3449 -23.4258,23.0272 -5.2057,5.1359 -11.2669,9.7078 -15.2944,15.6424 -3.6168,5.3255 -5.7269,4.436 -9.3069,0.83 -13.3938,-13.515 -26.8613,-26.9648 -40.3175,-40.4146 -27.8951,-27.88255 -55.7563,-55.79065 -83.7731,-83.54573 -2.974,-2.94603 -4.1551,-5.10173 -2.0535,-9.28853 4.4325,-8.82961 4.2371,-18.14362 0.9092,-27.38399 -2.8409,-7.87498 -1.4048,-11.27145 4.7836,-17.05305 9.5703,-8.94009 18.5147,-18.54305 27.8415,-27.75792 7.8001,-7.70787 15.8154,-15.1976 23.6268,-22.89697 8.3666,-8.24607 16.6057,-16.62245 24.9043,-24.93652 8.2221,-8.24041 16.481,-16.43267 24.6578,-24.71556 5.4039,-5.47851 10.6324,-11.14114 16.0675,-16.58564 2.1837,-2.18404 4.7214,-4.01681 6.8569,-5.8071 44.4867,44.50219 88.5485,88.57947 132.6981,132.74175 -9.4683,13.23734 -7.0467,26.63049 0.4899,39.49392 -6.4548,6.43597 -12.7679,12.7813 -19.1433,19.06711 z m 28.32,-71.991 c -19.4577,-19.5062 -38.6833,-38.80275 -57.9399,-58.07949 -22.3439,-22.37007 -44.634,-44.78828 -67.1223,-67.01106 -4.1833,-4.13297 -6.367,-7.27161 -3.648,-13.8719 3.7159,-9.03074 3.0758,-18.93395 -1.2632,-28.04119 -1.6257,-3.43044 -1.2688,-5.69096 1.4699,-8.42454 42.3766,-42.22185 84.6456,-84.54285 126.9542,-126.83268 0.6174,-0.62036 1.3737,-1.11042 2.4443,-1.95741 10.5841,10.58308 21.0383,21.06418 31.512,31.50562 22.3495,22.28793 44.7131,44.56452 67.0769,66.83828 10.2161,10.16951 20.2763,20.49199 30.7359,30.3952 4.441,4.20378 1.0112,8.71066 -0.3314,11.14397 -5.4578,9.82673 -2.093,18.80933 1.0027,27.85141 1.0648,3.099 1.8522,4.9431 -0.9177,7.70786 -42.5322,42.37764 -84.9175,84.89409 -127.3563,127.36239 -0.4618,0.4504 -1.1726,0.64303 -2.6171,1.41354 z m 279.869,48.10826 c -44.2657,44.55032 -88.7156,88.91657 -133.0944,133.35077 -2.9683,2.9715 -4.8176,4.4276 -8.2392,-0.5722 -4.1635,-6.0875 -10.2756,-10.8409 -15.5549,-16.1636 -4.7582,-4.7873 -9.5222,-9.5718 -14.2974,-14.3449 -5.0896,-5.0904 -10.1991,-10.1525 -15.283,-15.2486 -4.9876,-4.9856 -9.8761,-10.0562 -14.9318,-14.97099 -8.7574,-8.5237 -17.679,-16.87168 -26.3769,-25.4492 -4.4666,-4.40778 -8.5564,-9.18089 -12.8926,-13.71891 -3.2344,-3.38798 -6.5341,-6.71361 -9.8989,-9.97407 -6.0497,-5.86943 -12.1619,-11.66237 -18.5882,-17.81506 7.2535,-12.72462 8.2873,-26.14327 -0.1388,-39.20499 44.4186,-44.2954 88.69,-88.43501 133.5278,-133.14683 5.1606,4.86946 10.8732,10.10152 16.3905,15.52904 9.4145,9.25736 18.7554,18.58553 28.0283,27.97887 7.6811,7.77867 15.1215,15.80098 22.8479,23.5315 8.7009,8.69364 17.6564,17.13801 26.4084,25.77784 7.4544,7.37078 14.7788,14.87184 22.1568,22.31342 5.7042,5.74761 10.9977,11.98528 17.1892,17.14935 11.0119,9.16389 12.8274,24.83172 2.7472,34.97856 z"
       id="path6883"
       style="opacity:0.1;stroke-width:2.83064;stroke-dasharray:none" />
  </g>
</svg>
