<svg width="79.375mm" height="23.184mm" version="1.1" viewBox="0 0 79.375 23.184" xmlns="http://www.w3.org/2000/svg" xmlns:xlink="http://www.w3.org/1999/xlink">
 <defs>
  <linearGradient id="linearGradient18324-4" x1="-66.416" x2="215.06" y1="675.74" y2="675.74" gradientTransform="matrix(.11452 .015847 -.013594 .11211 75.298 21.133)" gradientUnits="userSpaceOnUse">
   <stop offset=".093248"/>
   <stop stop-color="#dc0000" stop-opacity=".94969" offset=".92604"/>
  </linearGradient>
 </defs>
 <g transform="translate(-52.917 -92.604)">
  <path d="m91.281 95.807c9e-3 0.09426-0.0701 0.21345-0.0981 0.2897-0.0994 0.26989-0.18571 0.54733-0.27967 0.81799-0.0874 0.25166-0.19937 0.4834-0.31687 0.72768-0.0369 0.07673-0.077 0.23828-0.18237 0.28318-0.0936 0.03996-0.26666-0.028-0.35642-0.05391-0.30573-0.08863-0.59941-0.199-0.90136-0.28936-0.35266-0.10554-0.67789-0.26076-1.0394-0.35394-0.12776-0.03297-0.24418-0.07304-0.3663-0.1155-0.0452-0.01571-0.12439-0.03191-0.15191-0.06289-0.0371-0.04189 0.0189-0.13469 0.0332-0.17776 0.0515-0.15178 0.087-0.30553 0.15377-0.45442 0.0957-0.21357 0.12431-0.4448 0.1932-0.66621 0.0926-0.29763 0.21089-0.59306 0.29747-0.88862 0.23324 0.01179 0.5123 0.13036 0.72961 0.19265 0.53064 0.15214 1.073 0.28545 1.5841 0.45912 0.1588 0.05402 0.32015 0.10859 0.48296 0.15604 0.0674 0.01968 0.15958 0.02508 0.19619 0.07605 0.0131 0.01825 0.0198 0.03847 0.0219 0.06022zm-1.1028 2.5377c2e-3 0.02696-5e-4 0.0543 9e-4 0.07647 0.0112 0.14658-0.0165 0.28671-0.0764 0.4245-0.17667 0.40557-0.35262 0.77914-0.70666 1.1328-0.10214 0.10204-0.19349 0.20952-0.30959 0.30472-0.04 0.0329-0.0857 0.0905-0.15546 0.0957-0.10559 8e-3 -0.2579-0.0478-0.34876-0.0813-0.23289-0.0859-0.46619-0.17358-0.69089-0.26943-0.84653-0.36115-1.6899-0.73102-2.5414-1.0925l-4.11e-4 -0.01004c0.34337 7e-3 0.68699 0.05446 1.0314 0.0516 0.12593-0.0011 0.28791 0.0088 0.39934-0.03484 0.15928-0.06253 0.19251-0.2711 0.23556-0.38338 0.13701-0.35732 0.33041-0.73242 0.3941-1.1009l0.0422-0.03059c0.30292 0.07102 0.59399 0.19082 0.8855 0.28288 0.36287 0.11462 0.7432 0.21151 1.1119 0.32155 0.16842 0.05021 0.33692 0.10033 0.50327 0.15398 0.0632 0.02023 0.16143 0.04305 0.19973 0.08544 0.018 0.0199 0.0238 0.04641 0.0257 0.07337zm-1.5125 2.4631c4e-3 0.12593-0.11826 0.27922-0.1626 0.37647-0.16368 0.35874-0.48543 0.6892-0.85072 0.96666-0.13849 0.10519-0.30587 0.23067-0.49707 0.29309-0.19495 0.0636-0.28496 6e-3 -0.46577-0.048-0.25666-0.0767-0.49229-0.17502-0.73528-0.27189-0.92328-0.36806-1.7408-0.83173-2.6128-1.2458-0.25689-0.12198-0.51724-0.24325-0.73488-0.39902-0.06071-0.0435-0.1837-0.0924-0.21125-0.15018-0.0806-0.16899 0.0033-0.37596 0.02459-0.54299 0.04118-0.32653 0.08266-0.65163 0.14491-0.97794 0.02813-0.14742 0.09801-0.29478 0.10577-0.44394 0.16438 0.02211 0.27213 0.10118 0.41448 0.14907 0.33738 0.11361 0.6667 0.22943 0.99667 0.35463 1.0454 0.39659 2.0903 0.78996 3.1142 1.2129 0.34053 0.14063 0.67834 0.28352 1.0158 0.42777 0.11847 0.0506 0.34568 0.11851 0.41717 0.2016 0.0251 0.0292 0.036 0.0623 0.0369 0.0975zm-0.73614-6.2614c4e-3 0.09131-0.0328 0.1826-0.0605 0.26955-0.066 0.20607-0.13742 0.41089-0.2078 0.61599-0.23982 0.69923-0.49955 1.3974-0.71508 2.1005-0.0777 0.2535-0.16082 0.50674-0.25272 0.75733-0.0296 0.08039-0.0436 0.21834-0.1253 0.28081-0.0564 0.04311-0.15231 0.03373-0.23093 0.03434-0.19484 0.0017-0.38954-0.0038-0.58282-0.02712-0.20003-0.02431-0.40023-0.03406-0.60016-0.0591-0.07295-0.0093-0.17234-6e-3 -0.23798-0.03246-0.08447-0.03418-0.13948-0.16173-0.18732-0.21992-0.2318-0.28152-0.45701-0.60565-0.61133-0.90101-0.06902-0.18196-0.14104-0.36743-0.18511-0.55223-0.02286-0.09575-0.06687-0.19467-0.03839-0.29167 0.09228-0.31434 0.42188-0.58509 0.71675-0.82171 0.1087-0.08722 0.28371-0.16815 0.34867-0.27484-0.3196 0.06595-0.62056 0.19093-0.93178 0.27384-0.1187 0.03175-0.26227 0.09056-0.3953 0.08706-0.17721-0.0044-0.44393-0.12198-0.53293-0.22453-0.05268-0.06077-0.06232-0.14324-0.08749-0.21039-0.0708-0.1894-0.1151-0.39121-0.15814-0.58266l-0.01491-5e-6c-0.05268 0.1838-0.03107 0.37806-0.0475 0.56429-0.01054 0.11726-0.06429 0.22962-0.08652 0.34308-0.04625 0.23602-0.0817 0.48965-0.18422 0.71648-0.16071 0.3555-0.47538 0.69007-0.75901 1.0033-0.69183 0.7639-1.5571 1.4913-2.6915 1.9707-0.40705 0.172-0.88142 0.3571-1.368 0.41003l0.0028 0.03015c-0.16041 0.0017-0.45567 0.09056-0.605 0.03505-0.12094-0.04498-0.16878-0.26732-0.17881-0.35058-0.03599-0.29772-0.15155-0.60014-0.23297-0.89416l-0.27729 0.07252-0.90444 0.24213-2.7847 0.76571-0.96349 0.24894-0.33434 0.10511 0.79458-0.12256 1.3676-0.22217 2.6351-0.39092c0.0077 0.09853-0.02772 0.18573-0.03583 0.28225-0.01737 0.19302 0.01952 0.40847 0.11522 0.5931 0.03026 0.0585 0.06551 0.1715 0.13477 0.21439 0.07559 0.0467 0.34022 0.0132 0.43695 0.0123 0.46636-4e-3 0.92522-0.0776 1.3555-0.18588 1.2469-0.3138 2.1109-0.94555 2.9625-1.602 0.25853-0.19922 0.46896-0.42423 0.67273-0.65111 0.10057-0.11192 0.24076-0.23544 0.28678-0.36493l0.01488 2.92e-4c-0.05132 0.26104-0.03605 0.53216-0.05942 0.79596-0.02591 0.29245-0.08921 0.58481-0.12107 0.87705-0.01797 0.16083-0.04068 0.32247-0.05259 0.48374-0.0078 0.09875-5.17e-4 0.22171-0.05821 0.31264-0.25927 0.40935-0.6654 0.79035-1.006 1.1665l-0.26527 0.29426c-0.02938 0.0324-0.10149 0.0795-0.08738 0.12157 0.01527 0.0456 0.10101 0.0945 0.14497 0.12966 0.1162 0.093 0.23686 0.18413 0.34963 0.27896 0.43941 0.3696 0.91082 0.7212 1.3553 1.086 0.1276 0.10473 0.26543 0.20281 0.38867 0.30851 0.06054 0.052 0.1313 0.0839 0.15864 0.15-0.14979 0.01-0.29215 0.0449-0.44258 0.0532-0.3994 0.022-0.8413-4e-3 -1.2385-0.0514-0.46347-0.0551-0.94563-0.14687-1.4035-0.2243-0.1919-0.0325-0.37256-0.0964-0.57346-0.0987l-0.0028-0.0301c-0.1486-0.0137-0.2938-0.0638-0.43887-0.0913-0.19976-0.0378-0.43334-0.06-0.61707-0.13319-0.46166-0.18374-0.87951-0.4838-1.25-0.74264-0.21707-0.15162-0.4298-0.30618-0.64729-0.45766-0.06848-0.0478-0.1613-0.15349-0.25726-0.1737-0.10319-0.0219-0.25981 0.0153-0.36621 0.0179-0.38714 0.01-0.78855 0.0389-1.1702 0.0783-6.2151 0.60256-12.277 0.6479-14.814 0.6501-0.77853-1.0184-1.3787-2.2838-1.4717-3.4861-0.07728-0.99882 0.30854-2.747 0.73239-3.6336 4.3591 0.12158 7.3302 0.22616 12.925 0.58234 0.24648 0.01791 0.49828 0.01108 0.74517 0.02662 0.44502 0.02833 0.88835 0.07144 1.3327 0.09617 0.18244 0.01025 0.37114 0.0011 0.55245 0.01952 0.45112 0.0457 0.90643 0.06659 1.3609 0.07681 0.14707 0.0033 0.33373 0.06798 0.47879 0.02993 0.0753-0.01985 0.13019-0.07829 0.18459-0.11611 0.11191-0.07778 0.21238-0.1492 0.3123-0.23362 0.21888-0.18492 0.4823-0.34689 0.70832-0.52775 0.19884-0.15907 0.4365-0.29584 0.64325-0.44884 0.62869-0.46542 1.2485-0.937 1.8866-1.3981 0.25171-0.18188 0.50977-0.35868 0.76226-0.54016 0.10068-0.07235 0.23896-0.19989 0.38425-0.22983 0.15139-0.0312 0.34311 0.03776 0.48218 0.07362 0.19105 0.04945 0.40722 0.07794 0.60447 0.11473 0.96358 0.17937 1.9087 0.39359 2.8609 0.60367 0.55089 0.12146 1.0984 0.25375 1.6517 0.37138 0.21493 0.0458 0.57082 0.07805 0.74207 0.17932 0.2162 0.12784 0.30222 0.34845 0.35081 0.52847 5e-3 0.02095 9e-3 0.04212 0.01 0.06316zm-1.5024 8.2651c2e-3 0.0194-5.2e-4 0.0399-6e-3 0.062-0.0521 0.21909-0.29692 0.41208-0.49224 0.57812-0.2183 0.18559-0.46783 0.34415-0.74233 0.49123-0.162 0.0868-0.33091 0.1704-0.55313 0.16394-0.27719-8e-3 -0.53992-0.23736-0.72738-0.35597-0.55865-0.35352-1.0633-0.7235-1.579-1.1036-0.32904-0.2425-0.65184-0.48586-0.96395-0.73752-0.12133-0.098-0.30288-0.20424-0.26828-0.34006 0.06922-0.27214 0.37543-0.55133 0.61958-0.76078 0.07242-0.0622 0.20583-0.195 0.34125-0.19014 0.09184 3e-3 0.14263 0.0451 0.21482 0.0762 0.19424 0.0838 0.37079 0.18132 0.5579 0.27058 0.72099 0.34391 1.4544 0.67879 2.1774 1.0252 0.36326 0.17403 0.72339 0.34832 1.083 0.52663 0.17174 0.0852 0.32959 0.15856 0.33825 0.29416zm-2.1512-4.2897c-0.13465-0.0118-0.26911-0.09539-0.38339-0.14432-0.29414-0.12579-0.59099-0.25346-0.87646-0.38836-0.08876-0.04195-0.3397-0.10634-0.36758-0.18032-0.03714-0.09865 0.07125-0.21894 0.09785-0.3114 0.0832-0.28888 0.20888-0.59363 0.25005-0.8879 0.09993 0.0129 0.32692 0.05087 0.39611 0.10393 0.0442 0.03385 0.06116 0.10172 0.08232 0.14373 0.05696 0.1132 0.11401 0.22679 0.16596 0.34093 0.20221 0.44423 0.44417 0.88038 0.63518 1.3237z" fill="url(#linearGradient18324-4)"/>
  <g transform="matrix(.099175 0 0 .13561 41.659 59.458)" style="shape-inside:url(#rect5823);white-space:pre" aria-label="THE REBELLION">
   <path d="m890.25 347.01h23.616v5.376h-8.736v62.976h-6.24l-39.072-52.704-4.224-7.392h-0.384l0.96 7.488v46.08h8.736v5.376h-23.616v-5.376h8.736v-56.448h-8.736v-5.376h19.2l33.6 45.216 4.992 8.256h0.48l-0.576-8.256v-39.84h-8.736zm-126.24 33.6q0-7.488 2.304-13.824 2.304-6.432 6.624-11.04 4.416-4.704 10.752-7.296 6.432-2.592 14.592-2.592t14.592 2.592 10.848 7.296q4.416 4.608 6.72 11.04 2.304 6.336 2.304 13.824t-2.304 13.92q-2.304 6.336-6.72 11.04-4.416 4.608-10.848 7.2t-14.592 2.592-14.592-2.592q-6.336-2.592-10.752-7.2-4.32-4.704-6.624-11.04-2.304-6.432-2.304-13.92zm12 0q0 6.144 1.344 11.52 1.44 5.376 4.32 9.312t7.2 6.24q4.416 2.304 10.368 2.304 5.472 0 9.504-2.304t6.624-6.24q2.688-3.936 4.032-9.312t1.344-11.52-1.44-11.52q-1.344-5.376-4.224-9.312t-7.296-6.24q-4.32-2.304-10.368-2.304-5.76 0-9.888 2.304-4.032 2.304-6.624 6.24t-3.744 9.312-1.152 11.52zm-22.464 33.6h-28.224v-5.376h8.736v-56.448h-8.736v-5.376h28.224v5.376h-8.736v56.448h8.736zm-88.608-61.824v-5.376h29.856v5.376h-10.368v56.448h25.536l1.92-2.112v-13.248h6.912v20.736h-53.856v-5.376h8.736v-56.448zm-58.464 0v-5.376h29.856v5.376h-10.368v56.448h25.536l1.92-2.112v-13.248h6.912v20.736h-53.856v-5.376h8.736v-56.448zm-10.848-5.376v15.744h-6.144v-8.256l-1.92-2.112h-23.52v24.864h16.224l1.44-1.44v-4.032h6.144v16.416h-6.144v-4.032l-1.44-1.536h-16.224v26.208h25.152l1.92-1.92v-9.408h6.144v16.704h-52.704v-5.376h8.736v-56.448h-8.736v-5.376zm-117.31 67.2v-5.376h8.736v-56.448h-8.736v-5.376h12.576q2.016 0 3.84-0.096t3.84-0.192 4.32-0.192q2.4-0.096 5.28-0.096 4.224 0 8.64 0.672 4.416 0.576 7.968 2.304t5.76 4.896q2.304 3.072 2.304 8.064 0 2.592-0.96 5.088-0.864 2.496-2.688 4.608-1.728 2.112-4.416 3.744t-6.24 2.4v0.384q3.168 0.48 6.336 1.632t5.664 3.168q2.592 1.92 4.128 4.8t1.536 6.912q0 5.184-2.592 8.928-2.496 3.744-6.624 6.144t-9.408 3.552q-5.184 1.056-10.56 1.056-3.744 0-8.448-0.288-4.608-0.288-8.928-0.288zm29.472-4.8q3.744 0 6.912-0.96 3.264-1.056 5.568-2.88t3.552-4.32q1.344-2.592 1.344-5.664 0-3.84-1.632-6.336-1.536-2.592-4.224-4.032-2.592-1.536-6.144-2.112t-7.488-0.576h-7.872v26.016q1.44 0.384 3.456 0.672 2.112 0.192 6.528 0.192zm-4.8-31.872q1.92 0 4.224-0.096 2.4-0.192 4.032-0.384 4.896-1.536 7.872-4.896 2.976-3.456 2.976-8.064 0-6.336-4.032-9.312t-10.944-2.976q-3.264 0-5.568 0.192-2.208 0.096-3.744 0.288v25.248zm-35.52-30.528v15.744h-6.144v-8.256l-1.92-2.112h-23.52v24.864h16.224l1.44-1.44v-4.032h6.144v16.416h-6.144v-4.032l-1.44-1.536h-16.224v26.208h25.152l1.92-1.92v-9.408h6.144v16.704h-52.704v-5.376h8.736v-56.448h-8.736v-5.376zm-99.552 61.824h8.256v5.376h-27.744v-5.376h8.736v-56.448h-8.736v-5.376h9.696q4.32 0 9.408-0.384t9.984-0.384q5.28 0 9.888 1.152 4.704 1.056 8.064 3.36t5.28 5.952q2.016 3.552 2.016 8.544 0 6.912-4.32 11.808-4.224 4.8-11.136 6.816l19.104 24.96h5.952v5.376h-15.552l-19.104-28.992h-9.792zm7.584-28.608q7.392 0 11.52-4.032 4.224-4.032 4.224-10.944 0-7.104-4.416-10.368t-11.712-3.264q-2.496 0-4.224 0.192-1.632 0.192-2.976 0.384v28.032zm-64.224-33.216v15.744h-6.144v-8.256l-1.92-2.112h-23.52v24.864h16.224l1.44-1.44v-4.032h6.144v16.416h-6.144v-4.032l-1.44-1.536h-16.224v26.208h25.152l1.92-1.92v-9.408h6.144v16.704h-52.704v-5.376h8.736v-56.448h-8.736v-5.376zm-102.34 61.824v5.376h-27.456v-5.376h8.736v-56.448h-8.736v-5.376h27.456v5.376h-7.968v24.672h33.6v-24.672h-7.968v-5.376h27.456v5.376h-8.736v56.448h8.736v5.376h-27.456v-5.376h7.968v-26.4h-33.6v26.4zm-48.768 5.376h-30.528v-5.376h9.888v-56.448h-17.184l-1.92 2.112v12.384h-6.912v-19.872h62.784v19.872h-6.912v-12.384l-1.92-2.112h-17.184v56.448h9.888z"/>
  </g>
  <path d="m93.928 95.807c-9e-3 0.09424 0.0701 0.21345 0.0981 0.2897 0.0994 0.26989 0.18572 0.54732 0.27967 0.81796 0.0874 0.25166 0.19937 0.48339 0.31687 0.72766 0.0369 0.07672 0.0771 0.23827 0.18238 0.28318 0.0936 0.03997 0.26666-0.028 0.35641-0.05392 0.30573-0.08862 0.59943-0.19898 0.90136-0.28934 0.35267-0.10554 0.6779-0.26076 1.0394-0.35392 0.12774-0.03297 0.24417-0.07305 0.36628-0.1155 0.0452-0.01572 0.12439-0.03193 0.15191-0.0629 0.0371-0.04188-0.0189-0.13469-0.0332-0.17776-0.0515-0.15177-0.087-0.30552-0.15377-0.45441-0.0957-0.21356-0.1243-0.44479-0.1932-0.66618-0.0926-0.29761-0.21091-0.59304-0.29746-0.8886-0.23324 0.01181-0.5123 0.13036-0.72963 0.19265-0.53063 0.15213-1.073 0.28544-1.5841 0.4591-0.1588 0.05402-0.32015 0.1086-0.48296 0.15604-0.0674 0.01967-0.15959 0.02507-0.19619 0.07604-0.0132 0.01825-0.0198 0.03848-0.0219 0.06023zm1.1028 2.5376c-2e-3 0.02696 5.1e-4 0.0543-9e-4 0.07646-0.0112 0.14658 0.0165 0.28672 0.0764 0.4245 0.17667 0.40556 0.35262 0.77912 0.70667 1.1328 0.10212 0.10204 0.19349 0.20953 0.30959 0.30472 0.04 0.0329 0.0857 0.0905 0.15543 0.0957 0.10562 8e-3 0.25792-0.0479 0.34877-0.0813 0.23289-0.0859 0.4662-0.17357 0.6909-0.26942 0.84653-0.36115 1.6899-0.731 2.5414-1.0925l4.1e-4 -0.01006c-0.34338 7e-3 -0.68699 0.05446-1.0314 0.0516-0.12594-0.0014-0.28792 0.0089-0.39934-0.03484-0.15928-0.06253-0.19251-0.27108-0.23557-0.38337-0.13699-0.35731-0.3304-0.73241-0.3941-1.1009l-0.0422-0.03058c-0.30292 0.07101-0.59398 0.19081-0.88549 0.28287-0.36287 0.11461-0.74321 0.21151-1.1119 0.32153-0.16842 0.05021-0.33693 0.10033-0.50328 0.15398-0.0632 0.02023-0.16143 0.04304-0.19972 0.08542-0.018 0.01991-0.0238 0.04642-0.0257 0.07338zm1.5125 2.4631c-4e-3 0.12592 0.11825 0.2792 0.1626 0.37645 0.16368 0.35873 0.48543 0.68919 0.85073 0.96663 0.1385 0.10518 0.30587 0.23067 0.49707 0.29309 0.19495 0.0636 0.28496 6e-3 0.46576-0.048 0.25667-0.0767 0.4923-0.17503 0.73528-0.2719 0.92328-0.36804 1.7408-0.83169 2.6128-1.2458 0.25689-0.12197 0.51725-0.24324 0.73487-0.39901 0.0607-0.0435 0.1837-0.0924 0.21125-0.15017 0.0806-0.169-4e-3 -0.37597-0.0246-0.54299-0.0412-0.32652-0.0827-0.65161-0.14491-0.97791-0.0281-0.14741-0.098-0.29477-0.10576-0.44391-0.16438 0.02209-0.27213 0.10117-0.41448 0.14907-0.33738 0.1136-0.66671 0.22941-0.99668 0.35461-1.0454 0.39657-2.0902 0.78995-3.1142 1.2129-0.34051 0.14063-0.67832 0.28351-1.0158 0.42777-0.11848 0.0506-0.34569 0.1185-0.41717 0.20159-0.0252 0.0292-0.036 0.0623-0.0369 0.0975zm0.73615-6.2613c-4e-3 0.0913 0.0328 0.18259 0.0605 0.26954 0.066 0.20607 0.13743 0.41088 0.20781 0.61597 0.2398 0.69922 0.49954 1.3974 0.71507 2.1004 0.0777 0.2535 0.16083 0.50671 0.25271 0.75731 0.0296 0.0804 0.0436 0.21833 0.12532 0.2808 0.0564 0.04311 0.15229 0.03373 0.23092 0.03435 0.19483 0.0016 0.38954-0.0039 0.58281-0.02712 0.20004-0.02429 0.40023-0.03405 0.60016-0.0591 0.073-0.0092 0.17234-6e-3 0.23799-0.03246 0.0845-0.03417 0.13948-0.16171 0.18732-0.21991 0.23179-0.28151 0.45701-0.60564 0.61133-0.90098 0.069-0.18196 0.14104-0.36743 0.18511-0.55222 0.0229-0.09575 0.0669-0.19466 0.0384-0.29166-0.0923-0.31433-0.42188-0.58508-0.71674-0.8217-0.1087-0.08721-0.28372-0.16814-0.34867-0.27483 0.3196 0.06596 0.62056 0.19093 0.93178 0.27383 0.1187 0.03175 0.26226 0.09057 0.39529 0.08707 0.17722-0.0044 0.44394-0.12197 0.53294-0.22452 0.0527-0.06078 0.0623-0.14324 0.0875-0.2104 0.0708-0.18938 0.11511-0.39119 0.15814-0.58264h0.0149c0.0527 0.1838 0.0311 0.37805 0.0475 0.56426 0.0106 0.11726 0.0643 0.22962 0.0865 0.34308 0.0463 0.23601 0.0817 0.48963 0.18421 0.71646 0.16072 0.3555 0.47537 0.69006 0.75902 1.0033 0.69182 0.76389 1.5571 1.4913 2.6915 1.9706 0.40704 0.172 0.88141 0.35709 1.368 0.41002l-3e-3 0.03014c0.1604 0.0016 0.45567 0.09057 0.605 0.03505 0.12094-0.04498 0.16879-0.26731 0.1788-0.35057 0.036-0.29772 0.15156-0.60011 0.23298-0.89414l0.27729 0.07253 0.90444 0.24212 2.7848 0.76569 0.96349 0.24893 0.33434 0.10512-0.79459-0.12257-1.3676-0.22217-2.6351-0.39091c-8e-3 0.09853 0.0277 0.18574 0.0358 0.28224 0.0173 0.19301-0.0195 0.40847-0.11521 0.59308-0.0304 0.0585-0.0655 0.1715-0.13477 0.21438-0.0756 0.0467-0.34023 0.0131-0.43696 0.0122-0.46635-4e-3 -0.92522-0.0776-1.3555-0.18586-1.2469-0.31379-2.111-0.94552-2.9625-1.602-0.25852-0.19923-0.46895-0.42422-0.67272-0.6511-0.10057-0.11191-0.24076-0.23543-0.28678-0.36491h-0.0149c0.0513 0.26102 0.0361 0.53214 0.0594 0.79594 0.0259 0.29244 0.0892 0.58478 0.12108 0.87702 0.0179 0.16082 0.0407 0.32247 0.0526 0.48373 8e-3 0.09875 5.1e-4 0.2217 0.0582 0.31263 0.25927 0.40934 0.6654 0.79033 1.006 1.1665l0.26527 0.29426c0.0294 0.0324 0.10149 0.0795 0.0874 0.12156-0.0153 0.0456-0.10102 0.0945-0.14497 0.12966-0.1162 0.093-0.23687 0.18413-0.34963 0.27896-0.43941 0.36959-0.91082 0.72116-1.3552 1.0859-0.12759 0.10473-0.26543 0.20281-0.38867 0.30851-0.0605 0.052-0.1313 0.0839-0.15865 0.14999 0.14979 0.01 0.29216 0.0449 0.44259 0.0532 0.39939 0.022 0.8413-4e-3 1.2384-0.0514 0.46348-0.0551 0.94564-0.14687 1.4035-0.22429 0.19191-0.0325 0.37257-0.0964 0.57346-0.0987l3e-3 -0.0301c0.14861-0.0137 0.2938-0.0638 0.43886-0.0913 0.19976-0.0378 0.43334-0.06 0.61707-0.13318 0.46166-0.18374 0.87951-0.48379 1.25-0.74262 0.21707-0.15161 0.42981-0.30618 0.64729-0.45765 0.0685-0.0479 0.1613-0.15349 0.25727-0.17371 0.1032-0.0219 0.2598 0.0153 0.36621 0.0179 0.38714 0.01 0.78855 0.0389 1.1702 0.0783 6.2151 0.60255 12.277 0.64788 14.814 0.65009 0.77853-1.0183 1.3786-2.2837 1.4717-3.486 0.0772-0.99878-0.30855-2.747-0.73239-3.6335-4.3591 0.12158-7.3302 0.22615-12.925 0.58232-0.24648 0.01791-0.49828 0.01108-0.74517 0.02662-0.44502 0.02834-0.88836 0.07143-1.3326 0.09617-0.18245 0.0102-0.37114 0.0014-0.55245 0.01951-0.45112 0.04569-0.90644 0.06658-1.3609 0.0768-0.14707 0.0034-0.33373 0.06799-0.4788 0.02995-0.0753-0.01985-0.13018-0.07829-0.18458-0.11612-0.11192-0.07778-0.21238-0.14919-0.31229-0.23362-0.21889-0.1849-0.48231-0.34687-0.70833-0.52773-0.19883-0.15906-0.43649-0.29582-0.64325-0.44883-0.62868-0.4654-1.2485-0.93698-1.8866-1.398-0.25172-0.18187-0.50978-0.35866-0.76227-0.54014-0.10068-0.07235-0.23896-0.19988-0.38425-0.22982-0.15139-0.0312-0.34312 0.03776-0.48217 0.07363-0.19107 0.04944-0.40724 0.07794-0.60449 0.11474-0.96357 0.17936-1.9087 0.39357-2.8609 0.60364-0.55088 0.12146-1.0984 0.25374-1.6518 0.37137-0.21493 0.04581-0.57082 0.07805-0.74207 0.17932-0.21619 0.12785-0.3022 0.34844-0.3508 0.52846-5e-3 0.02094-9e-3 0.04212-0.01 0.06316zm1.5024 8.2649c-2e-3 0.0194 5.3e-4 0.0399 6e-3 0.062 0.052 0.21909 0.29692 0.41206 0.49224 0.57811 0.21829 0.18557 0.46783 0.34413 0.74233 0.49122 0.162 0.0868 0.33092 0.17039 0.55313 0.16393 0.27719-8e-3 0.53991-0.23735 0.72738-0.35597 0.55865-0.3535 1.0633-0.72348 1.579-1.1036 0.32904-0.24248 0.65184-0.48584 0.96394-0.7375 0.12133-0.0979 0.30289-0.20423 0.26829-0.34005-0.0692-0.27214-0.37543-0.55132-0.61959-0.76075-0.0724-0.0622-0.20582-0.195-0.34124-0.19014-0.0918 3e-3 -0.14263 0.0451-0.21482 0.0762-0.19425 0.0838-0.3708 0.18132-0.55791 0.27057-0.72099 0.34391-1.4544 0.67877-2.1774 1.0251-0.36326 0.17404-0.7234 0.34831-1.083 0.52662-0.17173 0.0852-0.32959 0.15856-0.33825 0.29416zm2.1512-4.2895c0.13464-0.01181 0.2691-0.0954 0.38339-0.14432 0.29414-0.12579 0.59099-0.25345 0.87646-0.38836 0.0887-0.04194 0.33969-0.10634 0.36758-0.18031 0.0371-0.09865-0.0713-0.21893-0.0978-0.3114-0.0832-0.28886-0.20889-0.59361-0.25005-0.88787-0.0999 0.01283-0.32694 0.05087-0.39611 0.10392-0.0442 0.03385-0.0612 0.10173-0.0823 0.14373-0.057 0.11319-0.11401 0.22679-0.16596 0.34093-0.20222 0.44422-0.44417 0.88036-0.63519 1.3237z" fill="#070000"/>
 </g>
</svg>
