<?xml version="1.0" encoding="UTF-8"?>
<svg version="1.1" xmlns="http://www.w3.org/2000/svg" viewBox="0 0 360 165">
<path d="M0 0 C128.7 0 257.4 0 390 0 C390 54.45 390 108.9 390 165 C261.3 165 132.6 165 0 165 C0 110.55 0 56.1 0 0 Z " fill="#43140A" transform="translate(0,0)"/>
<path d="M0 0 C128.7 0 257.4 0 390 0 C390 17.16 390 34.32 390 52 C385.00488281 52.06058594 380.00976562 52.12117188 374.86328125 52.18359375 C371.69595508 52.22409586 368.52863724 52.26487307 365.36132812 52.30664062 C360.3357225 52.37288749 355.31011816 52.43812389 350.28442383 52.49731445 C346.23193137 52.54510682 342.17952086 52.59745452 338.12712669 52.65294075 C336.58222689 52.67329706 335.03730468 52.69202099 333.49236488 52.70907402 C331.32596378 52.7332675 329.15971554 52.76330071 326.9934082 52.79467773 C325.76096878 52.81022202 324.52852936 52.8257663 323.25874329 52.84178162 C320.38704215 52.98120834 317.79187236 53.34068487 315 54 C315 53.34 315 52.68 315 52 C313.09192487 52.00138269 313.09192487 52.00138269 311.14530277 52.00279331 C280.98088464 52.02442945 250.81646859 52.04092962 220.65204457 52.05106533 C216.94307853 52.05231611 213.2341125 52.05361042 209.52514648 52.05493164 C208.41751718 52.05532511 208.41751718 52.05532511 207.28751152 52.05572652 C195.31541081 52.06008334 183.34331489 52.06797095 171.37121702 52.0771528 C159.09588779 52.08648901 146.82056106 52.09205554 134.54522842 52.09408849 C126.96459392 52.09546379 119.38397292 52.09981473 111.80334257 52.10791647 C106.00031515 52.11380422 100.19729473 52.11445905 94.39426422 52.11310768 C92.00648604 52.11338421 89.61870738 52.11539188 87.23093224 52.11920547 C83.98637875 52.12413597 80.74188439 52.12300068 77.49732971 52.12025452 C76.53917832 52.12316736 75.58102694 52.1260802 74.59384066 52.12908131 C68.11412121 52.11412121 68.11412121 52.11412121 67 51 C65.49740523 50.90089905 63.99023289 50.86920299 62.484375 50.8671875 C61.56269531 50.86589844 60.64101563 50.86460938 59.69140625 50.86328125 C58.72074219 50.86714844 57.75007813 50.87101562 56.75 50.875 C55.31720703 50.86919922 55.31720703 50.86919922 53.85546875 50.86328125 C52.46521484 50.86521484 52.46521484 50.86521484 51.046875 50.8671875 C50.19963867 50.86831543 49.35240234 50.86944336 48.47949219 50.87060547 C46.0241092 50.92867397 46.0241092 50.92867397 43.77563477 51.50219727 C39.69864071 52.23339534 35.6763484 52.12225394 31.54296875 52.09765625 C30.74201782 52.09664917 29.94106689 52.09564209 29.11584473 52.09460449 C26.13971514 52.08939433 23.16360605 52.07543312 20.1875 52.0625 C13.525625 52.041875 6.86375 52.02125 0 52 C0 34.84 0 17.68 0 0 Z " fill="#63240B" transform="translate(0,0)"/>
<path d="M0 0 C1.39025391 -0.00193359 1.39025391 -0.00193359 2.80859375 -0.00390625 C4.24138672 0.00189453 4.24138672 0.00189453 5.703125 0.0078125 C6.67378906 0.00394531 7.64445312 0.00007813 8.64453125 -0.00390625 C9.56621094 -0.00261719 10.48789062 -0.00132813 11.4375 0 C12.70158691 0.00169189 12.70158691 0.00169189 13.99121094 0.00341797 C15.953125 0.1328125 15.953125 0.1328125 16.953125 1.1328125 C20.12353523 1.24110743 23.27256331 1.28332144 26.44372559 1.28430176 C27.95690502 1.29065037 27.95690502 1.29065037 29.50065374 1.29712725 C32.90864035 1.31022858 36.31660351 1.3161952 39.72460938 1.32226562 C42.15660243 1.33020201 44.58859405 1.33858948 47.02058411 1.34739685 C52.27094511 1.36549641 57.52130595 1.3806077 62.77168274 1.39317322 C70.36402204 1.41143553 77.95633024 1.43610059 85.54864496 1.46254712 C97.8668926 1.50537331 110.18514881 1.54448095 122.50341797 1.58056641 C123.61019902 1.58381061 123.61019902 1.58381061 124.73933929 1.58712035 C129.97726758 1.60244957 135.21519624 1.61764641 140.453125 1.6328125 C146.43636095 1.65013657 152.41959671 1.66752049 158.40283203 1.68505859 C159.5082717 1.6882969 159.5082717 1.6882969 160.63604349 1.69160062 C172.906897 1.72766793 185.17773489 1.76761804 197.44856691 1.81036139 C205.02541696 1.83656392 212.60226218 1.85921154 220.17913592 1.87734497 C225.9784908 1.89147055 231.77782049 1.91059465 237.57715416 1.93159676 C239.96331469 1.93938358 242.34948156 1.94543956 244.73565102 1.94968987 C247.97797637 1.95569337 251.22022341 1.96772001 254.46252441 1.98132324 C255.41999368 1.98161923 256.37746295 1.98191522 257.36394644 1.98222017 C263.83903221 2.01871971 263.83903221 2.01871971 264.953125 3.1328125 C266.49323242 2.91927124 266.49323242 2.91927124 268.06445312 2.70141602 C274.73041883 1.78119884 281.45764395 2.00994232 288.171875 2.03515625 C289.64017692 2.03702433 291.10847946 2.03844639 292.57678223 2.03944397 C296.41705078 2.04323841 300.25728074 2.05304201 304.09753418 2.06414795 C308.71822309 2.07624023 313.338925 2.08077896 317.95962524 2.08660126 C324.95748524 2.09625577 331.95526075 2.1154337 338.953125 2.1328125 C338.953125 11.7028125 338.953125 21.2728125 338.953125 31.1328125 C314.02135319 31.15603738 289.08958402 31.17384582 264.15780354 31.18462467 C252.57956383 31.1897642 241.001331 31.19676187 229.4230957 31.20825195 C219.32252265 31.21827078 209.22195458 31.22468294 199.12137669 31.22690099 C193.78139992 31.22819596 188.4414374 31.2312039 183.10146523 31.23854256 C178.05772705 31.24541682 173.01400876 31.2474067 167.97026634 31.24592018 C166.13593309 31.24619146 164.30159905 31.24812803 162.4672699 31.25201797 C152.05673676 31.27297987 141.69419794 31.06743272 131.29812938 30.48825747 C122.84827106 30.02486274 114.41277644 30.0398493 105.953125 30.1328125 C105.953125 30.4628125 105.953125 30.7928125 105.953125 31.1328125 C54.143125 31.4628125 2.333125 31.7928125 -51.046875 32.1328125 C-51.046875 22.2328125 -51.046875 12.3328125 -51.046875 2.1328125 C-46.69435547 2.04193359 -46.69435547 2.04193359 -42.25390625 1.94921875 C-39.43739355 1.88737497 -36.62091889 1.82400982 -33.80444336 1.76049805 C-31.85005085 1.71723992 -29.89562278 1.67555852 -27.94116211 1.63549805 C-25.12863455 1.57757414 -22.31628452 1.51394377 -19.50390625 1.44921875 C-18.63288773 1.43250626 -17.7618692 1.41579376 -16.86445618 1.39857483 C-11.15913221 1.25988175 -5.68151183 0.00756382 0 0 Z " fill="#561C08" transform="translate(51.046875,49.8671875)"/>
<path d="M0 0 C9.80482266 0.00804531 19.60964435 0.0134283 29.4144696 0.01709688 C30.11463127 0.0173596 30.81479294 0.01762232 31.53617164 0.01789301 C35.05203522 0.01919895 38.56789881 0.02046244 42.08376241 0.02170491 C70.80948159 0.03191024 99.53519291 0.04966788 128.26090515 0.07202852 C128.26090515 8.65202852 128.26090515 17.23202852 128.26090515 26.07202852 C104.17757437 26.10266769 80.09425253 26.1234382 56.01090515 26.13452852 C55.09567376 26.13496282 54.18044238 26.13539712 53.23747671 26.13584459 C-10.90201095 26.16543218 -75.0382771 25.95424259 -139.17659485 25.57202852 C-140.18101687 25.5660548 -141.18543889 25.56008109 -142.22029793 25.55392635 C-167.72662052 25.40205784 -193.23288597 25.24192211 -218.73909485 25.07202852 C-218.73909485 24.74202852 -218.73909485 24.41202852 -218.73909485 24.07202852 C-217.47464539 23.99686006 -217.47464539 23.99686006 -216.18465149 23.92017305 C-213.06627532 23.73024088 -209.94859705 23.53176102 -206.83113587 23.32739961 C-205.48011619 23.24061451 -204.128871 23.15727038 -202.77742493 23.07739961 C-200.83831192 22.96220478 -198.90000223 22.83372728 -196.9617511 22.70484102 C-195.79394104 22.63152559 -194.62613099 22.55821016 -193.42293274 22.48267305 C-192.09443299 22.27940401 -192.09443299 22.27940401 -190.73909485 22.07202852 C-190.40909485 21.41202852 -190.07909485 20.75202852 -189.73909485 20.07202852 C-189.07909485 20.07202852 -188.41909485 20.07202852 -187.73909485 20.07202852 C-187.92471985 19.28827852 -188.11034485 18.50452852 -188.30159485 17.69702852 C-188.73909485 15.07202852 -188.73909485 15.07202852 -187.73909485 13.07202852 C-192.68909485 12.74202852 -197.63909485 12.41202852 -202.73909485 12.07202852 C-202.07909485 11.74202852 -201.41909485 11.41202852 -200.73909485 11.07202852 C-200.73909485 10.08202852 -200.73909485 9.09202852 -200.73909485 8.07202852 C-201.39909485 7.74202852 -202.05909485 7.41202852 -202.73909485 7.07202852 C-194.35456608 0.622391 -185.11167446 0.75755735 -174.85506165 0.66016328 C-173.54723284 0.64091987 -172.23940403 0.62167646 -170.89194405 0.60184991 C-167.21527261 0.54930828 -163.53856675 0.51038111 -159.86169755 0.47466671 C-157.46861237 0.45061108 -155.07558853 0.42311885 -152.6825515 0.39469278 C-101.79171835 -0.20272402 -50.89347801 -0.04222112 0 0 Z " fill="#521908" transform="translate(261.7390948534012,82.92797148227692)"/>
<path d="M0 0 C52.8 0 105.6 0 160 0 C160 7.92 160 15.84 160 24 C144.05522992 24.1316014 128.11045273 24.26222408 112.16566086 24.39115143 C104.7588729 24.45107155 97.35208872 24.5113986 89.9453125 24.57275391 C83.47442525 24.62635551 77.00353177 24.67912212 70.53263021 24.73096704 C67.12012435 24.7583351 63.70762249 24.78606589 60.29512787 24.81480408 C35.88831476 25.01899899 11.48388028 25.14409277 -12.921875 24.78125 C-14.54095223 24.75866007 -16.1600319 24.7362443 -17.77911377 24.71398926 C-21.92816688 24.65651389 -26.07718378 24.59676403 -30.22619629 24.53643799 C-34.50494382 24.4746626 -38.78372325 24.41517947 -43.0625 24.35546875 C-51.37503172 24.23914611 -59.68752643 24.12040611 -68 24 C-64.94190251 21.96126834 -64.04580584 21.75634333 -60.5625 21.5625 C-56.87571633 21.23825518 -54.70440332 20.70440332 -52 18 C-52.495 17.01 -52.495 17.01 -53 16 C-51.60335892 16.11562606 -50.20768801 16.242992 -48.8125 16.375 C-48.03519531 16.44460937 -47.25789063 16.51421875 -46.45703125 16.5859375 C-44 17 -44 17 -41.58203125 17.9921875 C-38.62648805 19.14578833 -36.03188042 19.48099265 -32.875 19.75 C-31.84117187 19.84796875 -30.80734375 19.9459375 -29.7421875 20.046875 C-26.77949111 20.24328164 -26.77949111 20.24328164 -24 18 C-24 17.34 -24 16.68 -24 16 C-26.31 16 -28.62 16 -31 16 C-31 15.67 -31 15.34 -31 15 C-26.09548323 13.04130233 -21.65198416 12.69119394 -16.4375 12.75 C-15.56706055 12.75459229 -14.69662109 12.75918457 -13.79980469 12.76391602 C-4.1069725 12.88657925 5.57198902 13.41702506 15.25 13.9375 C16.05986359 13.98088501 16.86972717 14.02427002 17.70413208 14.06896973 C25.82701025 14.51101714 33.92625409 14.96752788 42 16 C42 16.66 42 17.32 42 18 C49.26 17.34 56.52 16.68 64 16 C58.51503528 14.4195512 58.51503528 14.4195512 53 13 C53 13.33 53 13.66 53 14 C51.88625 13.855625 50.7725 13.71125 49.625 13.5625 C48.08361593 13.37269085 46.54193135 13.18531076 45 13 C44.2994751 12.91548584 43.5989502 12.83097168 42.87719727 12.74389648 C34.08553674 11.77489492 25.27109569 11.63489379 16.43554688 11.39453125 C14.57446289 11.33845703 14.57446289 11.33845703 12.67578125 11.28125 C11.56114502 11.25095703 10.44650879 11.22066406 9.2980957 11.18945312 C5.82184937 10.98976646 2.4443222 10.50007943 -1 10 C-2.42203523 9.93931355 -3.84642573 9.91224711 -5.26953125 9.9375 C-6.37868896 9.95006836 -6.37868896 9.95006836 -7.51025391 9.96289062 C-8.26999512 9.97513672 -9.02973633 9.98738281 -9.8125 10 C-16.28966937 10.05826936 -22.56453949 9.830382 -29 9 C-28.34 8.34 -27.68 7.68 -27 7 C-30.64581598 6.9706092 -34.29160087 6.95307126 -37.9375 6.9375 C-38.95908203 6.92912109 -39.98066406 6.92074219 -41.03320312 6.91210938 C-47.1121997 6.89268766 -52.9726232 7.20179682 -59 8 C-59 8.33 -59 8.66 -59 9 C-62.3 8.67 -65.6 8.34 -69 8 C-69 7.67 -69 7.34 -69 7 C-67.35 6.67 -65.7 6.34 -64 6 C-74.89 5.01 -74.89 5.01 -86 4 C-86 4.66 -86 5.32 -86 6 C-88.33294775 6.04241723 -90.66702567 6.04092937 -93 6 C-93.33 5.67 -93.66 5.34 -94 5 C-95.6396875 5.2475 -95.6396875 5.2475 -97.3125 5.5 C-100.46940337 5.92805469 -102.09071117 6.04734398 -105 5 C-105 4.34 -105 3.68 -105 3 C-98.565 2.505 -98.565 2.505 -92 2 C-92 1.67 -92 1.34 -92 1 C-90.33388095 0.957279 -88.66617115 0.95936168 -87 1 C-86.67 1.33 -86.34 1.66 -86 2 C-84.13320242 2.13385368 -82.26173146 2.20354255 -80.390625 2.24609375 C-78.66972656 2.29540039 -78.66972656 2.29540039 -76.9140625 2.34570312 C-74.48706463 2.40650744 -72.05997722 2.463845 -69.6328125 2.51757812 C-67.90417969 2.56881836 -67.90417969 2.56881836 -66.140625 2.62109375 C-65.08391602 2.6461499 -64.02720703 2.67120605 -62.93847656 2.69702148 C-59.95058614 3.00509493 -57.71514266 3.74736323 -55 5 C-55.495 3.515 -55.495 3.515 -56 2 C-51.36518649 0.79537726 -46.98592341 0.96255709 -42.24609375 1.12109375 C-40.9627993 1.15651024 -40.9627993 1.15651024 -39.65357971 1.19264221 C-36.91470239 1.26892017 -34.17612503 1.35268068 -31.4375 1.4375 C-27.87379656 1.54405807 -24.31000971 1.64689806 -20.74609375 1.74609375 C-19.86770844 1.77069672 -18.98932312 1.79529968 -18.08432007 1.82064819 C-8.72278045 2.06422045 0.63607408 2.0511345 10 2 C5.05 1.505 5.05 1.505 0 1 C0 0.67 0 0.34 0 0 Z " fill="#65250D" transform="translate(230,0)"/>
<path d="M0 0 C3.7953637 0.01039234 7.59073445 0.01483104 11.3861084 0.01983643 C18.77870526 0.03043033 26.17126805 0.04740393 33.56384277 0.06866455 C33.56384277 1.38866455 33.56384277 2.70866455 33.56384277 4.06866455 C22.81669553 5.55145225 12.41766621 6.20183913 1.57556152 5.6350708 C-13.84060393 4.95289889 -29.23779018 4.91512334 -44.6661377 4.93829346 C-48.5730411 4.94406041 -52.47987679 4.94064662 -56.38677788 4.93472099 C-59.45830788 4.93108187 -62.52982218 4.93226806 -65.60135269 4.93484879 C-67.0419732 4.93550516 -68.48259524 4.93473608 -69.92321396 4.93236923 C-77.90586531 4.92209574 -85.78865479 5.13967615 -93.74031067 5.8664093 C-97.16430252 6.12329348 -100.33363942 5.96891356 -103.74865723 5.63116455 C-104.83791504 5.52932861 -105.92717285 5.42749268 -107.04943848 5.3225708 C-107.83705566 5.23878174 -108.62467285 5.15499268 -109.43615723 5.06866455 C-107.45615723 6.05866455 -107.45615723 6.05866455 -105.43615723 7.06866455 C-106.43615723 8.06866455 -106.43615723 8.06866455 -109.18615723 8.25616455 C-112.40359646 8.07054306 -114.54372405 7.42980957 -117.43615723 6.06866455 C-117.43615723 7.05866455 -117.43615723 8.04866455 -117.43615723 9.06866455 C-122.54560855 10.34035021 -127.13810376 11.20111589 -132.43615723 11.06866455 C-132.76615723 11.39866455 -133.09615723 11.72866455 -133.43615723 12.06866455 C-131.45615723 12.39866455 -129.47615723 12.72866455 -127.43615723 13.06866455 C-127.43615723 13.72866455 -127.43615723 14.38866455 -127.43615723 15.06866455 C-130.57114014 16.92643221 -132.81087155 17.27006931 -136.43615723 17.06866455 C-134.59731842 19.35595189 -134.59731842 19.35595189 -131.81115723 19.19366455 C-131.02740723 19.15241455 -130.24365723 19.11116455 -129.43615723 19.06866455 C-129.10615723 20.71866455 -128.77615723 22.36866455 -128.43615723 24.06866455 C-137.12174359 24.20064532 -145.80735088 24.3311298 -154.49298668 24.45981598 C-158.52809099 24.51964462 -162.56318695 24.57994747 -166.5982666 24.64141846 C-170.49808507 24.7007808 -174.39791746 24.75910331 -178.29776764 24.81634521 C-179.82006362 24.83869166 -181.34235674 24.8612334 -182.86464691 24.88397217 C-192.16413331 25.02156454 -201.46226121 25.14016392 -210.76266479 25.00628662 C-212.3205661 24.99170259 -213.87883235 25.02384945 -215.43615723 25.06866455 C-215.76615723 25.39866455 -216.09615723 25.72866455 -216.43615723 26.06866455 C-218.24576594 26.16507952 -220.05917851 26.19053853 -221.87135315 26.18891907 C-223.05070938 26.19029373 -224.23006561 26.1916684 -225.44515991 26.19308472 C-226.75066803 26.18948944 -228.05617615 26.18589417 -229.40124512 26.18218994 C-230.7806854 26.18190807 -232.16012584 26.1820658 -233.53956604 26.18263245 C-237.29559841 26.18292043 -241.05159912 26.1770236 -244.8076241 26.17005849 C-248.72875767 26.16382506 -252.6498919 26.16322116 -256.57102966 26.16203308 C-264.00127333 26.15891973 -271.43150236 26.1507063 -278.86173958 26.14068359 C-287.31867361 26.12952256 -295.77560832 26.12401203 -304.23254788 26.11898816 C-321.63375948 26.10852369 -339.03495681 26.09092418 -356.43615723 26.06866455 C-356.43615723 24.74866455 -356.43615723 23.42866455 -356.43615723 22.06866455 C-355.23806931 22.02299347 -354.03998138 21.97732239 -352.80558777 21.93026733 C-341.43566254 21.49601318 -330.06601511 21.05502535 -318.6965971 20.60768318 C-312.85347656 20.37798949 -307.0102875 20.15055218 -301.16687012 19.92852783 C-295.51263533 19.71360417 -289.85867513 19.49241888 -284.20484352 19.26714706 C-282.06312278 19.18286487 -279.92131653 19.10072349 -277.77942467 19.02090836 C-265.31425382 18.55480054 -252.95734519 17.81582675 -240.57048988 16.31484604 C-239.04864375 16.13931092 -237.52437234 15.98429464 -235.99895287 15.84314346 C-234.79710067 15.72868189 -234.79710067 15.72868189 -233.57096863 15.61190796 C-232.84509898 15.54765688 -232.11922934 15.4834058 -231.37136364 15.41720772 C-229.1862527 15.14475153 -229.1862527 15.14475153 -226.68615723 13.38116455 C-225.57240723 12.73147705 -225.57240723 12.73147705 -224.43615723 12.06866455 C-222.76741342 12.73011473 -221.10103993 13.39755518 -219.43615723 14.06866455 C-216.81133674 14.29454631 -216.81133674 14.29454631 -214.05090332 14.14385986 C-212.47434464 14.09325409 -212.47434464 14.09325409 -210.86593628 14.04162598 C-209.17979721 13.96993195 -209.17979721 13.96993195 -207.45959473 13.89678955 C-206.2973941 13.85431091 -205.13519348 13.81183228 -203.93777466 13.76806641 C-201.48488084 13.6756707 -199.0321871 13.5778246 -196.57971191 13.47491455 C-192.81873633 13.31897879 -189.05742402 13.18479426 -185.29553223 13.05303955 C-182.91266894 12.96058941 -180.52985402 12.86688235 -178.14709473 12.77178955 C-176.45488297 12.71224091 -176.45488297 12.71224091 -174.72848511 12.65148926 C-173.1613829 12.58197052 -173.1613829 12.58197052 -171.56262207 12.51104736 C-170.64282562 12.47392639 -169.72302917 12.43680542 -168.77536011 12.39855957 C-166.16871936 12.20314659 -166.16871936 12.20314659 -163.43615723 10.06866455 C-163.10615723 9.40866455 -162.77615723 8.74866455 -162.43615723 8.06866455 C-163.48416504 8.29876221 -163.48416504 8.29876221 -164.55334473 8.5335083 C-174.24086637 10.33186936 -184.22169491 10.17789566 -194.03820801 10.03179932 C-194.81148437 10.02333984 -195.58476074 10.01488037 -196.38146973 10.00616455 C-197.06741211 9.99456299 -197.75335449 9.98296143 -198.46008301 9.9710083 C-200.42796585 9.99567904 -200.42796585 9.99567904 -202.22766113 10.56646729 C-205.4408667 11.29712878 -208.53509254 11.17938306 -211.82678223 11.1663208 C-212.53139587 11.16490585 -213.23600952 11.16349091 -213.9619751 11.16203308 C-216.20341307 11.15645389 -218.44474965 11.14390528 -220.68615723 11.13116455 C-222.20959328 11.12614686 -223.73303091 11.12158442 -225.25646973 11.11749268 C-228.98306494 11.10649129 -232.70960118 11.08924102 -236.43615723 11.06866455 C-236.43615723 10.40866455 -236.43615723 9.74866455 -236.43615723 9.06866455 C-234.78615723 8.40866455 -233.13615723 7.74866455 -231.43615723 7.06866455 C-232.42615723 6.07866455 -232.42615723 6.07866455 -233.43615723 5.06866455 C-233.10615723 4.40866455 -232.77615723 3.74866455 -232.43615723 3.06866455 C-229.97356412 2.55070216 -227.61484734 2.17680717 -225.12365723 1.88116455 C-224.46559082 1.78641846 -223.80752441 1.69167236 -223.1295166 1.59405518 C-219.12779749 1.09621548 -215.44342025 1.11437586 -211.43640137 1.55938721 C-202.23239407 2.37083987 -193.02376515 2.0787709 -183.79553223 1.9475708 C-181.76655247 1.9231451 -179.73756554 1.89930891 -177.70857239 1.87602234 C-173.41843486 1.82593698 -169.12835343 1.77272766 -164.83828735 1.71685791 C-153.7187205 1.57237935 -142.59893351 1.4469077 -131.47912598 1.3225708 C-129.83772298 1.3039694 -129.83772298 1.3039694 -128.16316032 1.28499222 C-107.78963406 1.0561193 -87.42115787 0.98509152 -67.04650879 1.10601807 C-58.54078494 1.14720677 -50.09023799 1.11684342 -41.60021973 0.5725708 C-27.75711946 -0.30046247 -13.86444421 -0.042087 0 0 Z " fill="#4A170A" transform="translate(356.4361572265625,110.93133544921875)"/>
<path d="M0 0 C0 0.66 0 1.32 0 2 C-43.82956777 2.81572187 -87.65542041 3.25249251 -131.4914391 3.51740873 C-139.86986759 3.56816893 -148.24827174 3.6225396 -156.62667632 3.67708123 C-173.75109483 3.78848339 -190.87553635 3.89577112 -208 4 C-208 4.33 -208 4.66 -208 5 C-205.03 5.33 -202.06 5.66 -199 6 C-199 6.33 -199 6.66 -199 7 C-213.92534682 8.14336678 -228.83254132 9.1985483 -243.796875 9.65795898 C-244.73402344 9.68962158 -245.67117187 9.72128418 -246.63671875 9.75390625 C-247.45873779 9.77783447 -248.28075684 9.8017627 -249.12768555 9.82641602 C-251.01309513 9.80015822 -251.01309513 9.80015822 -252 11 C-254.96049548 11.16148157 -257.91232217 11.27920452 -260.875 11.375 C-267.47266996 11.63907836 -273.24974855 12.37701018 -279.5703125 14.375 C-282.98092228 15.25232728 -286.13206247 15.08459871 -289.6328125 14.98046875 C-294.03971614 15.00603084 -298.3676177 15.4345111 -302.75 15.875 C-303.66201172 15.96458984 -304.57402344 16.05417969 -305.51367188 16.14648438 C-309.20206065 16.51149448 -312.8897193 16.88147743 -316.57519531 17.27490234 C-331.72791158 18.88271858 -346.8447563 19.37230968 -362.06982422 19.65844727 C-371.41881086 19.83967309 -380.67566583 20.24228043 -390 21 C-390 14.07 -390 7.14 -390 0 C-349.84777633 -0.15161607 -309.69553415 -0.29673163 -269.54325617 -0.4332476 C-264.76142192 -0.44951114 -259.97958786 -0.46582793 -255.19775391 -0.48217773 C-254.24610721 -0.48543066 -253.29446051 -0.48868358 -252.31397603 -0.49203508 C-237.07168127 -0.54426226 -221.82940538 -0.60076543 -206.58713235 -0.6589582 C-190.85027555 -0.7189399 -175.11340667 -0.77407362 -159.37651813 -0.82505554 C-150.57821781 -0.85368875 -141.77993537 -0.88430922 -132.98166275 -0.92053413 C-88.6413362 -1.10180012 -44.33299445 -0.86594573 0 0 Z " fill="#581B05" transform="translate(390,26)"/>
<path d="M0 0 C29.02828504 -0.0453002 58.05656352 -0.08106632 87.08487689 -0.10213066 C90.51914976 -0.10463179 93.95342255 -0.10722047 97.38769531 -0.10986328 C98.07133974 -0.1103879 98.75498417 -0.11091252 99.4593451 -0.11145304 C110.49984092 -0.12013369 121.54031572 -0.13589064 132.5807991 -0.15430559 C143.92620053 -0.17307 155.27158646 -0.18398099 166.61700439 -0.18817699 C172.98244282 -0.19077632 179.3478337 -0.19685339 185.71325684 -0.21146011 C191.71483715 -0.22511926 197.71635071 -0.22920591 203.7179451 -0.22621536 C205.91075631 -0.22676182 208.10356996 -0.23068927 210.29636765 -0.23841095 C222.37348061 -0.27882305 234.05613664 0.09564467 246 2 C246 2.33 246 2.66 246 3 C233.5837761 3.1156073 221.18202516 3.05491875 208.76953125 2.7421875 C207.8010173 2.71791183 206.83250336 2.69363617 205.8346405 2.66862488 C200.93985333 2.54376135 196.0454328 2.41013377 191.15112305 2.26782227 C189.32991763 2.21882855 187.50871004 2.16991541 185.6875 2.12109375 C184.83964432 2.09405365 183.99178864 2.06701355 183.11824036 2.03915405 C178.9282678 1.80307412 178.9282678 1.80307412 175 3 C175 3.66 175 4.32 175 5 C175.99 5.33 176.98 5.66 178 6 C175.125 6.125 175.125 6.125 172 6 C171.01 5.01 171.01 5.01 170 4 C167.31680306 3.6279126 167.31680306 3.6279126 164.1875 3.5859375 C163.02992188 3.54726563 161.87234375 3.50859375 160.6796875 3.46875 C159.46539062 3.4378125 158.25109375 3.406875 157 3.375 C155.17855469 3.31699219 155.17855469 3.31699219 153.3203125 3.2578125 C147.66121594 3.07008812 147.66121594 3.07008812 142 3 C136.33333333 3 130.66666667 3 125 3 C125 3.66 125 4.32 125 5 C129.29 4.67 133.58 4.34 138 4 C138 4.33 138 4.66 138 5 C139.98 5.33 141.96 5.66 144 6 C144 5.34 144 4.68 144 4 C151.72772107 3.86309156 159.30881404 4.24833087 167 5 C166.34 5.99 165.68 6.98 165 8 C165.5571167 7.846521 166.1142334 7.69304199 166.68823242 7.53491211 C174.98501477 5.6151476 183.72377595 5.86692373 192.1875 5.9375 C193.75854492 5.94426758 193.75854492 5.94426758 195.36132812 5.95117188 C197.90761536 5.96279876 200.4537746 5.97913719 203 6 C203 6.33 203 6.66 203 7 C200.69 7 198.38 7 196 7 C196 7.66 196 8.32 196 9 C194.68 9 193.36 9 192 9 C191.525625 9.495 191.05125 9.99 190.5625 10.5 C189 12 189 12 186.3125 12.1875 C185.549375 12.125625 184.78625 12.06375 184 12 C184.66 11.67 185.32 11.34 186 11 C186 10.34 186 9.68 186 9 C182.37 9.33 178.74 9.66 175 10 C175 10.66 175 11.32 175 12 C172.29105233 12.08144943 169.58458737 12.14070614 166.875 12.1875 C165.73417969 12.22520508 165.73417969 12.22520508 164.5703125 12.26367188 C159.5975739 12.32797453 156.36383518 11.65594442 152 9 C152 9.66 152 10.32 152 11 C151.34 11.33 150.68 11.66 150 12 C149.67 12.99 149.34 13.98 149 15 C143.10417772 15.02965476 137.20838168 15.04929884 131.3125 15.0625 C130.00871399 15.065914 130.00871399 15.065914 128.67858887 15.06939697 C117.90608063 15.0911248 107.16333322 15.07912205 96.41918945 14.17993164 C90.24278894 13.73752772 83.61931582 14.19034209 78 17 C76.12116137 16.88437916 74.24582179 16.70839534 72.375 16.5 C66.5597761 15.95678148 61.49349342 16.04210664 55.8203125 17.59765625 C51.87255687 18.16084023 48.24581376 17.58732273 44.3125 17.0625 C37.81994324 16.26060952 31.55317435 15.78860728 25 16 C24.67 16.66 24.34 17.32 24 18 C18.39 18 12.78 18 7 18 C7 17.34 7 16.68 7 16 C6.01 16.66 5.02 17.32 4 18 C3.01 18 2.02 18 1 18 C0.67 18.66 0.34 19.32 0 20 C0 13.4 0 6.8 0 0 Z " fill="#561C0B" transform="translate(0,0)"/>
<path d="M0 0 C49.5 0 99 0 150 0 C150 8.25 150 16.5 150 25 C95.85333215 25.17727174 95.85333215 25.17727174 69.5 24.5625 C68.60493744 24.54285187 67.70987488 24.52320374 66.78768921 24.50296021 C64.26454373 24.44607266 61.74166272 24.38275352 59.21875 24.31640625 C58.49718216 24.29968872 57.77561432 24.28297119 57.03218079 24.26574707 C52.29225456 24.12707594 47.69114387 23.64618207 43 23 C43.99 22.34 44.98 21.68 46 21 C45.505 20.01 45.505 20.01 45 19 C46.89492746 18.80355616 48.79100903 18.61822712 50.6875 18.4375 C51.74324219 18.33308594 52.79898438 18.22867188 53.88671875 18.12109375 C56.87790231 18.00474909 59.09342034 18.37224759 62 19 C72.19478595 20.13863156 81.95259197 20.38379681 92 18 C92 17.34 92 16.68 92 16 C100.415 15.505 100.415 15.505 109 15 C108.505 12.525 108.505 12.525 108 10 C106.68 9.67 105.36 9.34 104 9 C104 9.99 104 10.98 104 12 C100.58444097 12.36544156 97.1674656 12.71537866 93.75 13.0625 C92.78191406 13.16626953 91.81382812 13.27003906 90.81640625 13.37695312 C89.88183594 13.47041016 88.94726562 13.56386719 87.984375 13.66015625 C87.12553711 13.74918213 86.26669922 13.83820801 85.38183594 13.92993164 C83.00632378 13.99981397 81.27589799 13.61967805 79 13 C76.15916755 12.9538076 73.33935436 12.95650817 70.5 13 C63.36099735 13.05497965 56.2556773 12.91613092 49.125 12.5625 C48.28775391 12.52318359 47.45050781 12.48386719 46.58789062 12.44335938 C43.35003854 12.27155498 40.29737311 12.06165052 37.1171875 11.40234375 C34.82296819 10.78802015 34.82296819 10.78802015 32 12 C31.67 11.34 31.34 10.68 31 10 C28.97666066 9.53157288 28.97666066 9.53157288 26.625 9.375 C25.83351563 9.30023438 25.04203125 9.22546875 24.2265625 9.1484375 C20.03929194 8.86928613 16.18867651 9.36620544 12.05859375 9.9765625 C11.03958984 9.98816406 11.03958984 9.98816406 10 10 C9.34 9.34 8.68 8.68 8 8 C9.32 8 10.64 8 12 8 C12.33 7.01 12.66 6.02 13 5 C12.01 4.67 11.02 4.34 10 4 C10 3.01 10 2.02 10 1 C6.7 1.33 3.4 1.66 0 2 C0 1.34 0 0.68 0 0 Z " fill="#5E2006" transform="translate(240,56)"/>
<path d="M0 0 C1.31613281 -0.00765381 2.63226563 -0.01530762 3.98828125 -0.02319336 C7.6875 0.08984375 7.6875 0.08984375 14.6875 1.08984375 C14.6875 7.02984375 14.6875 12.96984375 14.6875 19.08984375 C-37.4525 19.08984375 -89.5925 19.08984375 -143.3125 19.08984375 C-143.3125 18.42984375 -143.3125 17.76984375 -143.3125 17.08984375 C-141.3325 17.08984375 -139.3525 17.08984375 -137.3125 17.08984375 C-136.9825 16.42984375 -136.6525 15.76984375 -136.3125 15.08984375 C-136.3125 15.74984375 -136.3125 16.40984375 -136.3125 17.08984375 C-133.99965544 16.94958092 -131.68722409 16.80248817 -129.375 16.65234375 C-128.08722656 16.57113281 -126.79945313 16.48992187 -125.47265625 16.40625 C-122.45226043 16.44065187 -122.45226043 16.44065187 -121.3125 15.08984375 C-119.63066052 14.85697367 -117.9412584 14.67720209 -116.25 14.52734375 C-115.33089844 14.44355469 -114.41179687 14.35976562 -113.46484375 14.2734375 C-112.75457031 14.21285156 -112.04429687 14.15226563 -111.3125 14.08984375 C-111.3125 13.42984375 -111.3125 12.76984375 -111.3125 12.08984375 C-107.63053434 11.25881375 -104.12534545 10.90876641 -100.35546875 10.7734375 C-99.24365234 10.73154297 -98.13183594 10.68964844 -96.98632812 10.64648438 C-95.83583984 10.60716797 -94.68535156 10.56785156 -93.5 10.52734375 C-91.74526367 10.46256836 -91.74526367 10.46256836 -89.95507812 10.39648438 C-87.07432969 10.29066096 -84.19349877 10.1885755 -81.3125 10.08984375 C-81.3125 10.41984375 -81.3125 10.74984375 -81.3125 11.08984375 C-78.89553128 11.14395499 -76.47978213 11.18356653 -74.0625 11.21484375 C-73.03962891 11.23998047 -73.03962891 11.23998047 -71.99609375 11.265625 C-68.26252213 11.30187327 -65.44357551 11.23094686 -62.3125 9.08984375 C-61.9 8.57421875 -61.4875 8.05859375 -61.0625 7.52734375 C-58.17997041 5.15955159 -54.97094994 5.3897167 -51.3125 5.08984375 C-58.2425 4.59484375 -58.2425 4.59484375 -65.3125 4.08984375 C-63.3125 2.08984375 -63.3125 2.08984375 -59.87109375 1.9296875 C-58.49719623 1.95229762 -57.12343898 1.98526066 -55.75 2.02734375 C-53.26595638 2.08927282 -50.79841351 2.11038849 -48.3125 2.08984375 C-47.9825 1.75984375 -47.6525 1.42984375 -47.3125 1.08984375 C-44.7013649 0.92894365 -42.11405746 0.82997525 -39.5 0.7734375 C-38.69828369 0.7526564 -37.89656738 0.73187531 -37.07055664 0.71046448 C-35.35894325 0.66707184 -33.64726853 0.62604642 -31.93554688 0.5871582 C-29.37874524 0.52885437 -26.82221449 0.46338346 -24.265625 0.39648438 C-16.17812363 0.19242838 -8.09006307 0.04211244 0 0 Z " fill="#4C1708" transform="translate(375.3125,117.91015625)"/>
<path d="M0 0 C31.35 0 62.7 0 95 0 C95 7.26 95 14.52 95 22 C73.08082925 22.16263193 51.20000123 21.7789002 29.33203125 20.18359375 C25.54365083 19.97485532 21.79365567 19.9709775 18 20 C17.67 19.01 17.34 18.02 17 17 C17.99 16.67 18.98 16.34 20 16 C19.67 15.01 19.34 14.02 19 13 C16.36 12.67 13.72 12.34 11 12 C11 11.34 11 10.68 11 10 C10.505 9.505 10.01 9.01 9.5 8.5 C9.005 8.005 8.51 7.51 8 7 C8 6.34 8 5.68 8 5 C5.36 5 2.72 5 0 5 C0.66 4.01 1.32 3.02 2 2 C1.34 1.34 0.68 0.68 0 0 Z " fill="#63250A" transform="translate(295,0)"/>
<path d="M0 0 C1.39025391 -0.00193359 1.39025391 -0.00193359 2.80859375 -0.00390625 C4.24138672 0.00189453 4.24138672 0.00189453 5.703125 0.0078125 C6.67378906 0.00394531 7.64445312 0.00007813 8.64453125 -0.00390625 C9.56621094 -0.00261719 10.48789062 -0.00132813 11.4375 0 C12.70158691 0.00169189 12.70158691 0.00169189 13.99121094 0.00341797 C15.953125 0.1328125 15.953125 0.1328125 16.953125 1.1328125 C20.12353523 1.24110743 23.27256331 1.28332144 26.44372559 1.28430176 C27.95690502 1.29065037 27.95690502 1.29065037 29.50065374 1.29712725 C32.90864035 1.31022858 36.31660351 1.3161952 39.72460938 1.32226562 C42.15660243 1.33020201 44.58859405 1.33858948 47.02058411 1.34739685 C52.27094511 1.36549641 57.52130595 1.3806077 62.77168274 1.39317322 C70.36402204 1.41143553 77.95633024 1.43610059 85.54864496 1.46254712 C97.8668926 1.50537331 110.18514881 1.54448095 122.50341797 1.58056641 C123.61019902 1.58381061 123.61019902 1.58381061 124.73933929 1.58712035 C129.97726758 1.60244957 135.21519624 1.61764641 140.453125 1.6328125 C146.43636095 1.65013657 152.41959671 1.66752049 158.40283203 1.68505859 C159.5082717 1.6882969 159.5082717 1.6882969 160.63604349 1.69160062 C172.906897 1.72766793 185.17773489 1.76761804 197.44856691 1.81036139 C205.02541696 1.83656392 212.60226218 1.85921154 220.17913592 1.87734497 C225.9784908 1.89147055 231.77782049 1.91059465 237.57715416 1.93159676 C239.96331469 1.93938358 242.34948156 1.94543956 244.73565102 1.94968987 C247.97797637 1.95569337 251.22022341 1.96772001 254.46252441 1.98132324 C255.41999368 1.98161923 256.37746295 1.98191522 257.36394644 1.98222017 C263.83903221 2.01871971 263.83903221 2.01871971 264.953125 3.1328125 C266.49323242 2.91927124 266.49323242 2.91927124 268.06445312 2.70141602 C274.73041883 1.78119884 281.45764395 2.00994232 288.171875 2.03515625 C289.64017692 2.03702433 291.10847946 2.03844639 292.57678223 2.03944397 C296.41705078 2.04323841 300.25728074 2.05304201 304.09753418 2.06414795 C308.02595498 2.07442858 311.95438209 2.07895576 315.8828125 2.08398438 C323.57293415 2.09466742 331.26302414 2.11170636 338.953125 2.1328125 C338.953125 3.4528125 338.953125 4.7728125 338.953125 6.1328125 C297.06790939 6.28420777 255.18267583 6.42923447 213.29740997 6.5660601 C208.3198552 6.58232546 203.3423006 6.598642 198.36474609 6.61499023 C196.87872339 6.61986962 196.87872339 6.61986962 195.36268003 6.62484758 C179.45269391 6.67720958 163.54272506 6.73368971 147.6327589 6.7917707 C131.2315116 6.85155052 114.83025316 6.90672208 98.42897666 6.95786804 C89.24876328 6.98662126 80.06856614 7.01732881 70.88837814 7.05334663 C30.22686632 7.21180019 -10.39464497 7.16057179 -51.046875 6.1328125 C-51.046875 4.8128125 -51.046875 3.4928125 -51.046875 2.1328125 C-49.83104736 2.10775635 -48.61521973 2.0827002 -47.36254883 2.05688477 C-42.84307683 1.96257061 -38.32374992 1.86240881 -33.80444336 1.76049805 C-31.85005085 1.71723992 -29.89562278 1.67555852 -27.94116211 1.63549805 C-25.12863455 1.57757414 -22.31628452 1.51394377 -19.50390625 1.44921875 C-18.63288773 1.43250626 -17.7618692 1.41579376 -16.86445618 1.39857483 C-11.15913221 1.25988175 -5.68151183 0.00756382 0 0 Z " fill="#3C160C" transform="translate(51.046875,49.8671875)"/>
<path d="M0 0 C0.87043945 0.00459229 1.74087891 0.00918457 2.63769531 0.01391602 C12.3305275 0.13657925 22.00948902 0.66702506 31.6875 1.1875 C32.49736359 1.23088501 33.30722717 1.27427002 34.14163208 1.31896973 C42.26451025 1.76101714 50.36375409 2.21752788 58.4375 3.25 C58.4375 3.91 58.4375 4.57 58.4375 5.25 C59.62666016 5.10691406 59.62666016 5.10691406 60.83984375 4.9609375 C70.47238325 4.04558016 79.71271026 4.57066231 89.33959961 5.48779297 C95.27233385 6.04511755 101.09285806 6.32299278 107.05175781 6.26049805 C109.86797423 6.24810577 112.63328266 6.43434149 115.4375 6.6875 C131.87829018 7.95078794 148.41613239 8.44778975 164.90258789 8.21313477 C168.89760017 8.17050073 172.5363498 8.23917566 176.4375 9.25 C176.4375 9.91 176.4375 10.57 176.4375 11.25 C160.49273153 11.38178372 144.54795265 11.51222408 128.60316086 11.64115143 C121.1963729 11.70107155 113.78958872 11.7613986 106.3828125 11.82275391 C99.91192525 11.87635551 93.44103177 11.92912212 86.97013021 11.98096704 C83.55762435 12.0083351 80.14512249 12.03606589 76.73262787 12.06480408 C52.32581476 12.26899899 27.92138028 12.39409277 3.515625 12.03125 C1.89654777 12.00866007 0.2774681 11.9862443 -1.34161377 11.96398926 C-5.49066688 11.90651389 -9.63968378 11.84676403 -13.78869629 11.78643799 C-18.06744382 11.7246626 -22.34622325 11.66517947 -26.625 11.60546875 C-34.93753172 11.48914611 -43.25002643 11.37040611 -51.5625 11.25 C-48.50440251 9.21126834 -47.60830584 9.00634333 -44.125 8.8125 C-40.43821633 8.48825518 -38.26690332 7.95440332 -35.5625 5.25 C-35.8925 4.59 -36.2225 3.93 -36.5625 3.25 C-35.16585892 3.36562606 -33.77018801 3.492992 -32.375 3.625 C-31.59769531 3.69460937 -30.82039063 3.76421875 -30.01953125 3.8359375 C-27.5625 4.25 -27.5625 4.25 -25.14453125 5.2421875 C-22.18898805 6.39578833 -19.59438042 6.73099265 -16.4375 7 C-15.40367187 7.09796875 -14.36984375 7.1959375 -13.3046875 7.296875 C-10.34199111 7.49328164 -10.34199111 7.49328164 -7.5625 5.25 C-7.5625 4.59 -7.5625 3.93 -7.5625 3.25 C-9.8725 3.25 -12.1825 3.25 -14.5625 3.25 C-14.5625 2.92 -14.5625 2.59 -14.5625 2.25 C-9.65798323 0.29130233 -5.21448416 -0.05880606 0 0 Z " fill="#743416" transform="translate(213.5625,12.75)"/>
<path d="M0 0 C4.06248324 -0.03005137 8.12493679 -0.04713644 12.1875 -0.0625 C13.29931641 -0.07087891 14.41113281 -0.07925781 15.55664062 -0.08789062 C22.63880902 -0.10772863 29.66521339 0.1137342 36.73527527 0.49327087 C47.22472115 1.02094034 57.69163834 1.17105169 68.19262695 1.20532227 C70.1070322 1.21493786 72.02143549 1.22494985 73.93583679 1.23532104 C79.05838404 1.26197841 84.18094012 1.28319584 89.30351663 1.30332303 C94.68463449 1.32542901 100.06572636 1.35269542 105.44682312 1.37937927 C115.60340884 1.42897778 125.76000925 1.47403619 135.91662329 1.51740164 C147.49369081 1.56705765 159.0707322 1.6218691 170.64777434 1.67708123 C194.43182511 1.79039603 218.21590101 1.89734185 242 2 C242 2.66 242 3.32 242 4 C240.82708499 4.00423194 239.65416998 4.00846388 238.44571209 4.01282406 C210.20511653 4.11488222 181.96453708 4.22081031 153.72397257 4.33111694 C150.2005033 4.3448763 146.67703392 4.35860492 143.15356445 4.37231445 C142.10196714 4.37640691 142.10196714 4.37640691 141.02912543 4.38058204 C131.24620687 4.41859044 121.46328344 4.45495388 111.68035368 4.48995758 C94.80120826 4.55035279 77.92207982 4.61421807 61.04296875 4.68359375 C60.05207062 4.68765453 60.05207062 4.68765453 59.04115435 4.69179735 C22.46340339 4.84209334 -14.10817596 5.11235482 -50.68203735 5.66622925 C-53.47462826 5.7084916 -56.26722051 5.75066295 -59.05981445 5.79272461 C-61.01859779 5.82223457 -61.01859779 5.82223457 -63.01695251 5.8523407 C-79.82896072 6.09674692 -96.64004755 6.12093413 -113.45343018 6.06866455 C-117.42142045 6.05771553 -121.38942034 6.05372763 -125.35742188 6.04882812 C-132.90496894 6.03864343 -140.45247712 6.02203737 -148 6 C-147.67 4.68 -147.34 3.36 -147 2 C-98.49 1.67 -49.98 1.34 0 1 C0 0.67 0 0.34 0 0 Z " fill="#200D0D" transform="translate(148,79)"/>
<path d="M0 0 C0.73605469 0.11794922 1.47210938 0.23589844 2.23046875 0.35742188 C4.03301322 0.65004273 5.8297991 0.97776539 7.625 1.3125 C7.625 1.9725 7.625 2.6325 7.625 3.3125 C8.5015625 3.30089844 9.378125 3.28929687 10.28125 3.27734375 C18.86615699 3.21627226 27.42170983 3.40009606 36 3.75 C37.49563477 3.80885376 37.49563477 3.80885376 39.02148438 3.86889648 C39.99150391 3.91087158 40.96152344 3.95284668 41.9609375 3.99609375 C42.81220215 4.03275146 43.6634668 4.06940918 44.54052734 4.10717773 C47.15973613 4.28152906 49.74821774 4.53265493 52.35742188 4.8125 C57.43121646 5.33163684 62.47307563 5.52811789 67.5703125 5.62890625 C68.46620087 5.64968735 69.36208923 5.67046844 70.28512573 5.69187927 C73.10668342 5.75651357 75.92832251 5.81585293 78.75 5.875 C80.67969543 5.91826744 82.60938307 5.96188413 84.5390625 6.00585938 C89.23429467 6.11210464 93.92960748 6.21360612 98.625 6.3125 C98.625 8.9525 98.625 11.5925 98.625 14.3125 C93.08766917 14.4123717 87.6226305 14.35786176 82.10546875 13.84765625 C73.26451355 13.13949857 64.4121578 12.95530165 55.54736328 12.75488281 C52.60298659 12.68699242 49.65896515 12.60935635 46.71484375 12.53125 C44.83074307 12.48639141 42.94662878 12.4420999 41.0625 12.3984375 C40.18851562 12.37453949 39.31453125 12.35064148 38.4140625 12.32601929 C34.2972389 12.24118071 30.6584687 12.38759641 26.625 13.3125 C24.51269531 13.33422852 24.51269531 13.33422852 22.453125 13.19140625 C21.33357422 13.11889648 21.33357422 13.11889648 20.19140625 13.04492188 C19.04478516 12.96081055 19.04478516 12.96081055 17.875 12.875 C17.09511719 12.82279297 16.31523437 12.77058594 15.51171875 12.71679688 C13.54925092 12.58539685 11.58709591 12.44934145 9.625 12.3125 C8.13667261 12.3125 6.64840703 12.33255562 5.16015625 12.34765625 C-2.76329987 12.40491053 -10.49905554 12.31261993 -18.375 11.3125 C-17.375 9.3125 -17.375 9.3125 -14.375 8.3125 C-15.53128906 8.14814453 -15.53128906 8.14814453 -16.7109375 7.98046875 C-17.71382813 7.82191406 -18.71671875 7.66335937 -19.75 7.5 C-20.74773437 7.34917969 -21.74546875 7.19835937 -22.7734375 7.04296875 C-25.375 6.3125 -25.375 6.3125 -27.375 3.3125 C-29.43425139 2.58867533 -29.43425139 2.58867533 -31.375 2.3125 C-31.375 1.6525 -31.375 0.9925 -31.375 0.3125 C-25.58908489 0.20772488 -20.08190634 0.31999455 -14.375 1.3125 C-14.375 2.3025 -14.375 3.2925 -14.375 4.3125 C-13.14910156 3.05373047 -13.14910156 3.05373047 -11.8984375 1.76953125 C-7.94272311 -1.52689741 -4.82705391 -0.9296225 0 0 Z M-36.375 3.3125 C-33.735 3.3125 -31.095 3.3125 -28.375 3.3125 C-28.375 3.6425 -28.375 3.9725 -28.375 4.3125 C-31.015 4.3125 -33.655 4.3125 -36.375 4.3125 C-36.375 3.9825 -36.375 3.6525 -36.375 3.3125 Z " fill="#521A07" transform="translate(291.375,149.6875)"/>
<path d="M0 0 C9.81622218 0.0080375 19.63244337 0.01342488 29.44866812 0.01709497 C30.4996988 0.01748905 30.4996988 0.01748905 31.57196242 0.0178911 C35.09036727 0.01919702 38.60877213 0.02046052 42.127177 0.021703 C70.8864451 0.031913 99.64570592 0.0494602 128.40496695 0.07202661 C128.40496695 0.40202661 128.40496695 0.73202661 128.40496695 1.07202661 C122.83861597 1.84786843 117.39978533 2.25067159 111.7838732 2.35327661 C110.17384668 2.39101653 108.56382065 2.42877753 106.95379508 2.46655786 C104.44316034 2.52047554 101.93249752 2.57274431 99.42181265 2.6242727 C96.97989152 2.67579102 94.53815412 2.73304763 92.0963732 2.79077661 C90.9605757 2.81113977 90.9605757 2.81113977 89.8018328 2.83191431 C86.30964055 2.60482884 86.30964055 2.60482884 83.40496695 4.07202661 C81.94034244 4.26292653 80.46799012 4.39536505 78.9948107 4.50171411 C77.6325939 4.61192895 77.6325939 4.61192895 76.24285758 4.72437036 C74.33703515 4.87067592 72.4307801 5.01147017 70.52410758 5.14624536 C66.09019743 5.51392027 62.18763076 5.98466896 58.04559195 7.66187036 C54.49644045 9.03659535 52.88113244 9.33616076 49.21746695 8.75952661 C38.28176665 7.28645736 27.24267607 8.14253427 16.27996695 8.94702661 C15.09531851 9.02565942 13.91067008 9.10429224 12.6901232 9.18530786 C6.31059995 9.6424953 0.14062774 10.39956191 -6.13409555 11.63062036 C-9.61079691 12.25421918 -13.00411809 12.46051244 -16.53253305 12.63452661 C-22.13756986 12.89388971 -22.13756986 12.89388971 -27.59503305 14.07202661 C-27.59503305 13.41202661 -27.59503305 12.75202661 -27.59503305 12.07202661 C-28.25503305 12.07202661 -28.91503305 12.07202661 -29.59503305 12.07202661 C-29.92503305 12.73202661 -30.25503305 13.39202661 -30.59503305 14.07202661 C-33.13735647 14.15355005 -35.67702507 14.21276377 -38.22003305 14.25952661 C-39.28931039 14.29723169 -39.28931039 14.29723169 -40.3801893 14.33569849 C-45.21779721 14.40227107 -48.34241643 13.62762114 -52.59503305 11.07202661 C-52.26503305 10.41202661 -51.93503305 9.75202661 -51.59503305 9.07202661 C-46.25982618 7.8051117 -41.06004782 8.07362874 -35.61847055 8.23218286 C-32.69255125 8.28618853 -32.69255125 8.28618853 -30.72784555 7.10156763 C-28.21837569 5.89020838 -26.21965503 5.66626865 -23.44659555 5.43921411 C-22.44700815 5.35518335 -21.44742074 5.27115259 -20.41754282 5.18457544 C-19.36236459 5.10618433 -18.30718637 5.02779321 -17.22003305 4.94702661 C-16.14616342 4.86283472 -15.07229379 4.77864282 -13.96588266 4.69189966 C1.7964901 3.52031581 1.7964901 3.52031581 9.40496695 4.07202661 C9.73496695 4.40202661 10.06496695 4.73202661 10.40496695 5.07202661 C17.70160623 5.62088886 25.16576761 4.95538513 32.46746695 4.63452661 C33.40816031 4.59537134 34.34885367 4.55621606 35.31805289 4.51587427 C36.20396109 4.4738186 37.08986929 4.43176294 38.0026232 4.38843286 C39.20157218 4.33344629 39.20157218 4.33344629 40.42474234 4.27734888 C42.47888064 4.18197955 42.47888064 4.18197955 44.40496695 3.07202661 C47.28867028 3.00007792 50.14736359 2.97910953 53.02996695 3.00952661 C53.83176383 3.01403833 54.6335607 3.01855005 55.45965445 3.02319849 C57.44145701 3.03499493 59.42322128 3.05293056 61.40496695 3.07202661 C56.49513633 1.7914463 51.65107798 1.9359529 46.61643851 1.95177209 C45.62394671 1.95091767 44.63145492 1.95006324 43.60888761 1.94918293 C40.28007218 1.94753456 36.95130704 1.95303902 33.62249625 1.95850122 C31.23755262 1.95878326 28.8526089 1.95862504 26.46766531 1.95805871 C20.66169541 1.95780122 14.855742 1.96213934 9.04977586 1.96849637 C2.29334556 1.97564668 -4.46308239 1.9771417 -11.21951594 1.97828455 C-23.26827578 1.98047255 -35.31702884 1.98712582 -47.365785 1.99658716 C-59.06923518 2.00576777 -70.77268351 2.01284543 -82.47613657 2.01709497 C-83.19767588 2.01735769 -83.91921519 2.01762042 -84.66261933 2.0178911 C-88.28241139 2.01919615 -91.90220346 2.02045986 -95.52199554 2.021703 C-125.54634613 2.03206778 -155.5706888 2.04975367 -185.59503305 2.07202661 C-185.59503305 1.74202661 -185.59503305 1.41202661 -185.59503305 1.07202661 C-123.73353264 -0.13145742 -61.87040645 -0.05123536 0 0 Z " fill="#46150A" transform="translate(261.59503304958344,82.92797338962555)"/>
<path d="M0 0 C5.6228446 0.0023207 11.24568617 0.0025537 16.86853112 0.00148369 C18.09041826 0.00125384 18.09041826 0.00125384 19.33698998 0.00101934 C20.99403242 0.00069948 22.65107486 0.00037526 24.30811729 0.00004675 C39.6616404 -0.00277062 55.01515743 0.00042045 70.36867955 0.00584712 C83.43775412 0.0103237 96.50681982 0.00952485 109.57589424 0.00492836 C124.91379242 -0.0004639 140.25168536 -0.0025086 155.58958436 0.00054062 C157.23467029 0.00085904 158.87975622 0.00117341 160.52484215 0.00148369 C161.33338881 0.00163796 162.14193547 0.00179224 162.97498354 0.00195119 C168.57427399 0.00280161 174.17356096 0.0013682 179.77285088 -0.00099587 C244.46368461 -0.02603789 244.46368461 -0.02603789 275.75997628 1.13529945 C275.75997628 1.79529945 275.75997628 2.45529945 275.75997628 3.13529945 C218.33997628 3.46529945 160.91997628 3.79529945 101.75997628 4.13529945 C101.75997628 4.46529945 101.75997628 4.79529945 101.75997628 5.13529945 C100.94021309 5.13006264 100.12044991 5.12482582 99.27584542 5.11943031 C76.99982569 4.97728344 76.99982569 4.97728344 54.75997628 6.13529945 C54.75997628 6.46529945 54.75997628 6.79529945 54.75997628 7.13529945 C52.77997628 7.13529945 50.79997628 7.13529945 48.75997628 7.13529945 C48.75997628 6.47529945 48.75997628 5.81529945 48.75997628 5.13529945 C47.86794503 5.14690101 46.97591378 5.15850258 46.05685128 5.1704557 C44.30114815 5.18399086 44.30114815 5.18399086 42.50997628 5.19779945 C40.7697419 5.2152018 40.7697419 5.2152018 38.99435128 5.2329557 C35.75997628 5.13529945 35.75997628 5.13529945 33.93431176 4.63908459 C31.16195569 3.99674039 28.58285306 3.99419991 25.7362336 3.97708107 C23.88528588 3.96239784 23.88528588 3.96239784 21.99694527 3.94741798 C20.63247422 3.94151422 19.26800277 3.93570375 17.90353096 3.92997719 C16.46453276 3.92039542 15.02553735 3.91038517 13.58654488 3.89997841 C9.6819655 3.87295557 5.77737407 3.85193182 1.87275303 3.83197642 C-2.20854236 3.8101007 -6.28980071 3.78271977 -10.37106621 3.75592018 C-18.09867678 3.70601475 -25.82630795 3.66106794 -33.55395877 3.61789782 C-42.35197386 3.56850707 -51.14995179 3.51359575 -59.94793092 3.45821822 C-78.04526067 3.34443118 -96.1426255 3.23758499 -114.24002372 3.13529945 C-114.24002372 2.47529945 -114.24002372 1.81529945 -114.24002372 1.13529945 C-76.15634655 0.20526091 -38.09231845 -0.01617855 0 0 Z " fill="#220F0E" transform="translate(114.24002372473478,135.8647005483508)"/>
<path d="M0 0 C0.83293579 -0.00249756 1.66587158 -0.00499512 2.52404785 -0.00756836 C4.91320962 -0.0134649 7.30224301 -0.01196682 9.69140625 -0.0078125 C10.77443779 -0.01078842 10.77443779 -0.01078842 11.87934875 -0.01382446 C15.31320528 0.00204224 18.07330979 0.28395245 21.4375 1.125 C21.4375 4.095 21.4375 7.065 21.4375 10.125 C-14.06680395 10.27940785 -49.56054453 10.01962418 -85.0625 9.625 C-86.67664669 9.60706327 -86.67664669 9.60706327 -88.3234024 9.58876419 C-101.7364947 9.43924653 -115.14952328 9.28453783 -128.5625 9.125 C-128.5625 8.795 -128.5625 8.465 -128.5625 8.125 C-127.7468457 8.09994385 -126.93119141 8.0748877 -126.09082031 8.04907227 C-123.00431001 7.95275532 -119.91790568 7.85361328 -116.83154297 7.75268555 C-114.86302279 7.68913115 -112.89440243 7.62870404 -110.92578125 7.56835938 C-104.87735746 7.36879209 -98.83479783 7.12883635 -92.796875 6.71484375 C-91.85553711 6.65031006 -90.91419922 6.58577637 -89.94433594 6.51928711 C-87.30443927 6.25005647 -87.30443927 6.25005647 -84.5625 4.125 C-82.58544922 3.73022461 -82.58544922 3.73022461 -80.3671875 3.52734375 C-79.56925781 3.44806641 -78.77132812 3.36878906 -77.94921875 3.28710938 C-76.70591797 3.17592773 -76.70591797 3.17592773 -75.4375 3.0625 C-70.0713798 3.03482371 -70.0713798 3.03482371 -65.5625 1.125 C-63.95476936 1.04934209 -62.34375361 1.04194745 -60.734375 1.0625 C-59.21118652 1.07506836 -59.21118652 1.07506836 -57.65722656 1.08789062 C-56.5534668 1.10013672 -55.44970703 1.11238281 -54.3125 1.125 C-46.4560918 1.17375627 -38.65435248 1.10400331 -30.8125 0.625 C-20.54496458 0.02818326 -10.2813553 0.01084063 0 0 Z " fill="#632104" transform="translate(368.5625,98.875)"/>
<path d="M0 0 C7.03091054 -0.00126967 14.06181666 -0.00500982 21.09272563 -0.00973773 C64.86680605 -0.03714296 108.61727019 0.07636416 152.38111675 1.12283063 C152.38111675 1.78283063 152.38111675 2.44283063 152.38111675 3.12283063 C23.68111675 3.12283063 -105.01888325 3.12283063 -237.61888325 3.12283063 C-237.61888325 2.46283063 -237.61888325 1.80283063 -237.61888325 1.12283063 C-158.41298095 0.43247584 -79.20908654 0.01332955 0 0 Z " fill="#220F0D" transform="translate(237.61888325214386,107.87716937065125)"/>
<path d="M0 0 C3.7953637 0.01039234 7.59073445 0.01483104 11.3861084 0.01983643 C18.77870526 0.03043033 26.17126805 0.04740393 33.56384277 0.06866455 C33.56384277 1.38866455 33.56384277 2.70866455 33.56384277 4.06866455 C22.81669553 5.55145225 12.41766621 6.20183913 1.57556152 5.6350708 C-13.84060393 4.95289889 -29.23779018 4.91512334 -44.6661377 4.93829346 C-48.5730411 4.94406041 -52.47987679 4.94064662 -56.38677788 4.93472099 C-59.45830788 4.93108187 -62.52982218 4.93226806 -65.60135269 4.93484879 C-67.0419732 4.93550516 -68.48259524 4.93473608 -69.92321396 4.93236923 C-77.9183144 4.92207972 -85.81377425 5.14171495 -93.77807617 5.8664093 C-96.92700055 6.10601316 -99.92385577 5.97364625 -103.06115723 5.63116455 C-112.86464838 4.72495949 -122.66040394 4.74452406 -132.43615723 6.06866455 C-132.76615723 6.39866455 -133.09615723 6.72866455 -133.43615723 7.06866455 C-135.36922221 7.16262512 -137.30574561 7.18609973 -139.24108887 7.18218994 C-141.1029055 7.18207664 -141.1029055 7.18207664 -143.00233459 7.18196106 C-144.36699462 7.17685366 -145.73165425 7.17163765 -147.09631348 7.1663208 C-148.48493906 7.16445655 -149.8735653 7.16303268 -151.26219177 7.16203308 C-154.92336837 7.15820842 -158.58450553 7.14837858 -162.2456665 7.1373291 C-165.97907986 7.12711387 -169.71249956 7.12253522 -173.44592285 7.11749268 C-180.77601899 7.10675626 -188.10608259 7.08968047 -195.43615723 7.06866455 C-195.10615723 6.40866455 -194.77615723 5.74866455 -194.43615723 5.06866455 C-195.09615723 4.40866455 -195.75615723 3.74866455 -196.43615723 3.06866455 C-187.90781789 1.88522586 -179.39941702 1.84418827 -170.80725098 1.7522583 C-169.15589521 1.73157112 -167.50454332 1.71057281 -165.85319519 1.68928528 C-161.43946054 1.63377166 -157.02567734 1.58436441 -152.61185455 1.53643799 C-149.86941086 1.5061176 -147.12699656 1.47386577 -144.38458252 1.440979 C-118.89228588 1.1362307 -93.4047612 0.95873908 -67.91052246 1.10552979 C-59.09614011 1.1471147 -50.33202951 1.13933512 -41.53381348 0.5725708 C-27.71335503 -0.30400164 -13.84204708 -0.04201901 0 0 Z " fill="#571903" transform="translate(356.4361572265625,110.93133544921875)"/>
<path d="M0 0 C1.64062363 0.00502563 3.28124876 0.00958665 4.921875 0.01367188 C8.90628742 0.02459195 12.8906269 0.04179782 16.875 0.0625 C16.875 0.7225 16.875 1.3825 16.875 2.0625 C21.825 2.0625 26.775 2.0625 31.875 2.0625 C31.545 2.7225 31.215 3.3825 30.875 4.0625 C29.225 4.0625 27.575 4.0625 25.875 4.0625 C25.545 5.7125 25.215 7.3625 24.875 9.0625 C27.54755151 9.9533505 29.27814483 10.21768308 32.03515625 10.30859375 C33.2252832 10.35790039 33.2252832 10.35790039 34.43945312 10.40820312 C36.10858024 10.46953931 37.77786145 10.52681309 39.44726562 10.58007812 C40.23939453 10.61423828 41.03152344 10.64839844 41.84765625 10.68359375 C42.93445679 10.72117798 42.93445679 10.72117798 44.04321289 10.75952148 C45.875 11.0625 45.875 11.0625 47.875 13.0625 C45.875 15.0625 45.875 15.0625 43.75024414 15.27319336 C42.87489014 15.25393799 41.99953613 15.23468262 41.09765625 15.21484375 C40.10781738 15.19663574 39.11797852 15.17842773 38.09814453 15.15966797 C37.03450684 15.12760254 35.97086914 15.09553711 34.875 15.0625 C33.80749512 15.03430176 32.73999023 15.00610352 31.64013672 14.97705078 C28.1968558 14.87561454 24.75487419 14.75348381 21.3125 14.625 C20.06799072 14.57988281 18.82348145 14.53476563 17.54125977 14.48828125 C10.47101391 14.22385286 3.41493276 13.88175978 -3.64624023 13.43994141 C-17.7852987 12.62033279 -31.96838021 12.42969839 -46.125 12.0625 C-46.455 11.4025 -46.785 10.7425 -47.125 10.0625 C-49.23827425 9.15524566 -49.23827425 9.15524566 -51.6875 8.4375 C-52.51378906 8.17710938 -53.34007813 7.91671875 -54.19140625 7.6484375 C-54.82949219 7.45507812 -55.46757813 7.26171875 -56.125 7.0625 C-52.94586058 6.12395019 -50.08245608 5.93370121 -46.7734375 5.9296875 C-45.75765625 5.92839844 -44.741875 5.92710938 -43.6953125 5.92578125 C-42.64085938 5.92964844 -41.58640625 5.93351562 -40.5 5.9375 C-39.4378125 5.93363281 -38.375625 5.92976563 -37.28125 5.92578125 C-35.76144531 5.92771484 -35.76144531 5.92771484 -34.2109375 5.9296875 C-33.2832959 5.93081543 -32.3556543 5.93194336 -31.39990234 5.93310547 C-29.125 6.0625 -29.125 6.0625 -27.125 7.0625 C-22.38555347 7.37908385 -17.74052596 7.25360347 -13.125 6.0625 C-15.89542109 3.29207891 -17.89033805 3.66453894 -21.75 3.4375 C-22.93851563 3.36273438 -24.12703125 3.28796875 -25.3515625 3.2109375 C-26.26679687 3.16195312 -27.18203125 3.11296875 -28.125 3.0625 C-28.125 2.4025 -28.125 1.7425 -28.125 1.0625 C-18.74254464 -0.14110791 -9.43967481 -0.05053563 0 0 Z " fill="#40140E" transform="translate(147.125,57.9375)"/>
<path d="M0 0 C0 0.66 0 1.32 0 2 C-128.7 2 -257.4 2 -390 2 C-390 1.34 -390 0.68 -390 0 C-349.84777673 -0.15171171 -309.6955341 -0.29673164 -269.54325617 -0.4332476 C-264.76142192 -0.44951114 -259.97958786 -0.46582793 -255.19775391 -0.48217773 C-254.24610721 -0.48543066 -253.29446051 -0.48868358 -252.31397603 -0.49203508 C-237.07168127 -0.54426226 -221.82940538 -0.60076543 -206.58713235 -0.6589582 C-190.85027555 -0.7189399 -175.11340667 -0.77407362 -159.37651813 -0.82505554 C-150.57821781 -0.85368875 -141.77993537 -0.88430922 -132.98166275 -0.92053413 C-88.6413362 -1.10180012 -44.33299445 -0.86594573 0 0 Z " fill="#2D140F" transform="translate(390,26)"/>
<path d="M0 0 C57.75 0 115.5 0 175 0 C175 0.33 175 0.66 175 1 C126.82 1.33 78.64 1.66 29 2 C29 2.33 29 2.66 29 3 C31.97 3.33 34.94 3.66 38 4 C38 4.33 38 4.66 38 5 C23.07465318 6.14336678 8.16745868 7.1985483 -6.796875 7.65795898 C-8.20259766 7.70545288 -8.20259766 7.70545288 -9.63671875 7.75390625 C-10.45873779 7.77783447 -11.28075684 7.8017627 -12.12768555 7.82641602 C-14.01309513 7.80015822 -14.01309513 7.80015822 -15 9 C-17.96051145 9.16148244 -20.91229331 9.27957283 -23.875 9.375 C-29.28903919 9.58541854 -34.22883006 9.78708216 -39.375 11.625 C-47.75504466 14.39161762 -57.34449937 12.68824549 -66 12 C-66 11.67 -66 11.34 -66 11 C-63.69 11 -61.38 11 -59 11 C-59 10.34 -59 9.68 -59 9 C-60.98 9 -62.96 9 -65 9 C-65.33 8.34 -65.66 7.68 -66 7 C-62.7 6.67 -59.4 6.34 -56 6 C-57.32 5.34 -58.64 4.68 -60 4 C-52.44368763 3.13663331 -44.911536 2.70541649 -37.3125 2.4375 C-35.56682739 2.37381226 -35.56682739 2.37381226 -33.78588867 2.30883789 C-22.52285894 1.92904782 -11.26792321 1.8937451 0 2 C0 1.34 0 0.68 0 0 Z " fill="#4A170B" transform="translate(153,28)"/>
<path d="M0 0 C0 2.64 0 5.28 0 8 C-8.72938261 9.22921999 -17.3984111 9.06940288 -26.19360352 8.97949219 C-41.79170162 8.37065484 -41.79170162 8.37065484 -57 11 C-59.20871844 10.9940785 -61.4173741 10.9447145 -63.625 10.875 C-72.31138219 10.71807938 -80.79400956 11.79350239 -89.39306641 12.93310547 C-99.04579999 14.20571073 -99.04579999 14.20571073 -104 14 C-104 13.67 -104 13.34 -104 13 C-106.475 12.505 -106.475 12.505 -109 12 C-109 11.67 -109 11.34 -109 11 C-110.65 11 -112.3 11 -114 11 C-114 11.66 -114 12.32 -114 13 C-117.67387495 13.85298376 -121.0447393 14.10789471 -124.8125 14.0625 C-126.27623047 14.04896484 -126.27623047 14.04896484 -127.76953125 14.03515625 C-128.87361328 14.01775391 -128.87361328 14.01775391 -130 14 C-129 12 -129 12 -126 10 C-125.67 9.67 -125.34 9.34 -125 9 C-109.70830474 6.42143849 -91.87267638 3.64638574 -76.453125 6.703125 C-72.82696197 7.01487657 -71.19496679 6.34661518 -67.99511719 4.77441406 C-63.91186575 3.18948093 -59.45829413 3.17856868 -55.125 2.875 C-53.23147991 2.73032085 -51.33822716 2.58208317 -49.4453125 2.4296875 C-48.20031982 2.34050049 -48.20031982 2.34050049 -46.93017578 2.24951172 C-44.99560886 2.19914857 -44.99560886 2.19914857 -44 1 C-41.42918958 0.83962232 -38.88232138 0.74039975 -36.30859375 0.68359375 C-35.52992447 0.66281265 -34.75125519 0.64203156 -33.94898987 0.62062073 C-31.44525277 0.55505347 -28.94140343 0.49633345 -26.4375 0.4375 C-24.77537964 0.39430073 -23.11327003 0.35068598 -21.45117188 0.30664062 C-14.29845315 0.12280584 -7.15548577 -0.02372207 0 0 Z " fill="#5D1E05" transform="translate(390,84)"/>
<path d="M0 0 C1.39025391 -0.00193359 1.39025391 -0.00193359 2.80859375 -0.00390625 C4.24138672 0.00189453 4.24138672 0.00189453 5.703125 0.0078125 C6.67378906 0.00394531 7.64445312 0.00007813 8.64453125 -0.00390625 C9.56621094 -0.00261719 10.48789062 -0.00132813 11.4375 0 C12.70158691 0.00169189 12.70158691 0.00169189 13.99121094 0.00341797 C15.953125 0.1328125 15.953125 0.1328125 16.953125 1.1328125 C20.12572736 1.24333261 23.27702479 1.28779136 26.45045471 1.29103088 C27.9646925 1.29843785 27.9646925 1.29843785 29.50952095 1.30599445 C32.91983838 1.32145253 36.33013687 1.32975244 39.74047852 1.33813477 C42.17409433 1.34770677 44.60770846 1.35771644 47.0413208 1.36813354 C52.29495757 1.38963072 57.54859161 1.40806068 62.802248 1.42373848 C70.39823451 1.44641143 77.99419289 1.47455777 85.59015559 1.50405776 C97.91287454 1.55176532 110.23560495 1.5950209 122.55834961 1.63549805 C134.53166599 1.6748369 146.50497216 1.71625923 158.47827148 1.76049805 C159.58455926 1.76458446 159.58455926 1.76458446 160.71319629 1.76875342 C164.41299138 1.78243263 168.11278632 1.79615296 171.81258118 1.80989373 C202.52607474 1.9239082 233.23958968 2.0306327 263.953125 2.1328125 C263.953125 2.7928125 263.953125 3.4528125 263.953125 4.1328125 C160.003125 4.1328125 56.053125 4.1328125 -51.046875 4.1328125 C-51.046875 3.4728125 -51.046875 2.8128125 -51.046875 2.1328125 C-49.83104736 2.10775635 -48.61521973 2.0827002 -47.36254883 2.05688477 C-42.84307683 1.96257061 -38.32374992 1.86240881 -33.80444336 1.76049805 C-31.85005085 1.71723992 -29.89562278 1.67555852 -27.94116211 1.63549805 C-25.12863455 1.57757414 -22.31628452 1.51394377 -19.50390625 1.44921875 C-18.63288773 1.43250626 -17.7618692 1.41579376 -16.86445618 1.39857483 C-11.15913221 1.25988175 -5.68151183 0.00756382 0 0 Z " fill="#521906" transform="translate(51.046875,49.8671875)"/>
<path d="M0 0 C0 1.32 0 2.64 0 4 C-1.29164063 3.98839844 -2.58328125 3.97679688 -3.9140625 3.96484375 C-16.5606113 3.89032415 -29.19363893 4.06048575 -41.83587646 4.37332153 C-43.57383335 4.41619453 -45.31183146 4.45742735 -47.04986572 4.49703979 C-49.51127297 4.5540236 -51.97241024 4.61772138 -54.43359375 4.68359375 C-55.5585601 4.70867004 -55.5585601 4.70867004 -56.70625305 4.73425293 C-60.14473545 4.53587159 -60.14473545 4.53587159 -63 6 C-65.53049402 6.07313567 -68.03304837 6.09247527 -70.5625 6.0625 C-71.62887695 6.05573242 -71.62887695 6.05573242 -72.71679688 6.04882812 C-74.47790013 6.03700864 -76.23896036 6.01907263 -78 6 C-71.07 6.495 -71.07 6.495 -64 7 C-67.54882233 10.54882233 -73.28326602 10.03831148 -78.12109375 10.11352539 C-79.55990555 10.11337017 -80.99872472 10.10790892 -82.4375 10.09765625 C-83.20304199 10.0962413 -83.96858398 10.09482635 -84.75732422 10.09336853 C-87.17159142 10.08782853 -89.58576144 10.07528779 -92 10.0625 C-93.64973823 10.05747723 -95.29947794 10.05291569 -96.94921875 10.04882812 C-100.96618255 10.03787886 -104.98307487 10.02065666 -109 10 C-108.67 9.01 -108.34 8.02 -108 7 C-107.34 7 -106.68 7 -106 7 C-106 6.34 -106 5.68 -106 5 C-106.99 5 -107.98 5 -109 5 C-108.67 4.34 -108.34 3.68 -108 3 C-106.56260487 2.97287934 -105.12506137 2.95354933 -103.6875 2.9375 C-102.48673828 2.92009766 -102.48673828 2.92009766 -101.26171875 2.90234375 C-99 3 -99 3 -96 4 C-95.67 3.34 -95.34 2.68 -95 2 C-90.71512845 0.99433272 -86.57787041 0.88276351 -82.19116211 0.90234375 C-81.53817139 0.90380402 -80.88518066 0.90526428 -80.21240234 0.9067688 C-78.80307691 0.91055483 -77.39375614 0.91665006 -75.98444939 0.92483521 C-73.74145939 0.93770591 -71.49852929 0.94414281 -69.25550842 0.94897461 C-63.67986976 0.9622839 -58.10428758 0.98635905 -52.52868652 1.01037598 C-47.81923792 1.03027742 -43.10981166 1.0458525 -38.4003315 1.05593872 C-36.21321179 1.06232234 -34.02618604 1.07483339 -31.83909607 1.08764648 C-24.42018943 1.11445414 -17.08865497 0.89194687 -9.69703674 0.22265625 C-6.44506995 -0.04581274 -3.26009461 -0.07581615 0 0 Z " fill="#37100C" transform="translate(390,115)"/>
<path d="M0 0 C4.06248324 -0.03005137 8.12493679 -0.04713644 12.1875 -0.0625 C13.29931641 -0.07087891 14.41113281 -0.07925781 15.55664062 -0.08789062 C22.63880902 -0.10772863 29.66521339 0.1137342 36.73527527 0.49327087 C47.22472115 1.02094034 57.69163834 1.17105169 68.19262695 1.20532227 C70.1070322 1.21493786 72.02143549 1.22494985 73.93583679 1.23532104 C79.05838404 1.26197841 84.18094012 1.28319584 89.30351663 1.30332303 C94.68463449 1.32542901 100.06572636 1.35269542 105.44682312 1.37937927 C115.60340884 1.42897778 125.76000925 1.47403619 135.91662329 1.51740164 C147.49369081 1.56705765 159.0707322 1.6218691 170.64777434 1.67708123 C194.43182511 1.79039603 218.21590101 1.89734185 242 2 C242 2.33 242 2.66 242 3 C113.63 3 -14.74 3 -147 3 C-147 2.67 -147 2.34 -147 2 C-98.49 1.67 -49.98 1.34 0 1 C0 0.67 0 0.34 0 0 Z " fill="#34120D" transform="translate(148,79)"/>
<path d="M0 0 C91.74 0 183.48 0 278 0 C278 0.33 278 0.66 278 1 C249.72673414 1.2874079 221.45339118 1.56580603 193.17993736 1.83411503 C180.04553266 1.95895711 166.91116572 2.08650617 153.77685547 2.22094727 C142.29934206 2.33842216 130.82178845 2.45029 119.34416068 2.55602258 C113.29383015 2.61193863 107.2435492 2.6702532 101.19330978 2.73533821 C67.44308605 3.09603862 33.74275996 2.80611425 0 2 C0 1.34 0 0.68 0 0 Z " fill="#210F0E" transform="translate(0,54)"/>
<path d="M0 0 C66.48654274 -0.39184211 66.48654274 -0.39184211 86.375 0.875 C87.65753662 0.95347168 88.94007324 1.03194336 90.26147461 1.11279297 C99.11665157 1.76585365 99.11665157 1.76585365 103 4 C93.87995448 5.53140195 85.25599658 6.27675737 76 6 C76 5.34 76 4.68 76 4 C75.36876221 4.32524658 74.73752441 4.65049316 74.0871582 4.9855957 C69.87676693 6.36908133 66.0084987 6.26692668 61.60546875 6.23046875 C60.24619011 6.22978142 60.24619011 6.22978142 58.85945129 6.2290802 C56.94559416 6.22606518 55.03173932 6.21820137 53.11791992 6.20581055 C50.20808072 6.1876286 47.29856181 6.18530059 44.38867188 6.18554688 C42.52343478 6.180628 40.65819983 6.17479807 38.79296875 6.16796875 C37.93124557 6.16685593 37.0695224 6.1657431 36.1816864 6.16459656 C31.03111272 6.12472428 26.10235948 5.69779859 21 5 C19.20991722 4.87039776 17.41805307 4.76203982 15.625 4.68359375 C14.24248047 4.62075195 14.24248047 4.62075195 12.83203125 4.55664062 C11.89746094 4.51732422 10.96289062 4.47800781 10 4.4375 C9.03449219 4.39431641 8.06898437 4.35113281 7.07421875 4.30664062 C4.71625575 4.20158287 2.35820584 4.09943086 0 4 C0 2.68 0 1.36 0 0 Z " fill="#5D1D04" transform="translate(0,0)"/>
<path d="M0 0 C45.60255972 -0.20638953 45.60255972 -0.20638953 64 1 C63.34 1.33 62.68 1.66 62 2 C62 3.32 62 4.64 62 6 C54.25 6.125 54.25 6.125 52 5 C50.42688915 5.2430185 48.85409631 5.48822686 47.28271484 5.7421875 C42.32184934 6.30247349 37.29732166 6.0575947 32.3125 6 C30.0794759 5.97446513 27.84639445 5.95344132 25.61328125 5.9375 C24.14048706 5.92009766 24.14048706 5.92009766 22.63793945 5.90234375 C20.25329765 5.99062295 18.27579734 6.31540782 16 7 C16.33 7.66 16.66 8.32 17 9 C11.555 9.495 11.555 9.495 6 10 C6 10.66 6 11.32 6 12 C4.02 12 2.04 12 0 12 C0 8.04 0 4.08 0 0 Z " fill="#471508" transform="translate(0,60)"/>
<path d="M0 0 C0.71075684 0.00789551 1.42151367 0.01579102 2.15380859 0.02392578 C4.79055582 0.06256542 7.42622876 0.1241596 10.0625 0.1875 C11.80539307 0.22447998 11.80539307 0.22447998 13.58349609 0.26220703 C17.45195835 0.34912203 21.31961348 0.45303835 25.1875 0.5625 C27.07263306 0.6085437 27.07263306 0.6085437 28.99584961 0.65551758 C35.00654432 0.85040014 40.39145023 1.11765097 46.0625 3.1875 C46.0625 3.5175 46.0625 3.8475 46.0625 4.1875 C43.7525 4.5175 41.4425 4.8475 39.0625 5.1875 C39.0625 4.5275 39.0625 3.8675 39.0625 3.1875 C37.70125 3.744375 37.70125 3.744375 36.3125 4.3125 C33.0625 5.1875 33.0625 5.1875 30.6875 4.3125 C30.15125 3.94125 29.615 3.57 29.0625 3.1875 C28.7325 3.5175 28.4025 3.8475 28.0625 4.1875 C27.4025 4.8475 26.7425 5.5075 26.0625 6.1875 C25.7325 7.1775 25.4025 8.1675 25.0625 9.1875 C19.42086923 9.2863093 13.77974101 9.35893996 8.13745117 9.40722656 C6.21776559 9.42735348 4.29814138 9.4546579 2.37866211 9.48925781 C-0.37922296 9.5377293 -3.13629827 9.56045742 -5.89453125 9.578125 C-6.75399857 9.59877014 -7.61346588 9.61941528 -8.49897766 9.64068604 C-10.71652764 9.64152287 -12.760195 9.60839495 -14.9375 9.1875 C-16.81518555 7.28808594 -16.81518555 7.28808594 -17.9375 5.1875 C-18.9275 4.5275 -19.9175 3.8675 -20.9375 3.1875 C-20.26203125 3.13851563 -19.5865625 3.08953125 -18.890625 3.0390625 C-17.99859375 2.96429687 -17.1065625 2.88953125 -16.1875 2.8125 C-15.30578125 2.74289063 -14.4240625 2.67328125 -13.515625 2.6015625 C-10.96541884 2.3379949 -10.96541884 2.3379949 -9.04296875 1.16015625 C-5.97862707 -0.25546727 -3.3691805 -0.03762537 0 0 Z " fill="#723113" transform="translate(126.9375,14.8125)"/>
<path d="M0 0 C19.14 0.33 38.28 0.66 58 1 C58 3.64 58 6.28 58 9 C50.79165437 9.07730636 43.65892257 8.88198967 36.46875 8.37890625 C35.51158081 8.31468979 34.55441162 8.25047333 33.5682373 8.18431091 C31.56148793 8.04899422 29.55485523 7.9119366 27.54833984 7.77319336 C24.50773614 7.5630347 21.46681067 7.35819355 18.42578125 7.15429688 C16.46091645 7.02114358 14.49607197 6.88769003 12.53125 6.75390625 C11.1916925 6.66321617 11.1916925 6.66321617 9.82507324 6.57069397 C8.09994012 6.45100246 6.37510685 6.32689424 4.65063477 6.19802856 C2.74558681 6.05570269 0.83968719 5.92461107 -1.06665039 5.80075073 C-2.56603149 5.69043015 -2.56603149 5.69043015 -4.09570312 5.57788086 C-5.01001099 5.51507431 -5.92431885 5.45226776 -6.86633301 5.38755798 C-7.57044312 5.25966385 -8.27455322 5.13176971 -9 5 C-9.33 4.34 -9.66 3.68 -10 3 C-9.36191406 2.95101562 -8.72382813 2.90203125 -8.06640625 2.8515625 C-7.24011719 2.77679688 -6.41382813 2.70203125 -5.5625 2.625 C-4.73878906 2.55539063 -3.91507812 2.48578125 -3.06640625 2.4140625 C-2.38449219 2.27742187 -1.70257813 2.14078125 -1 2 C-0.67 1.34 -0.34 0.68 0 0 Z " fill="#5D1E02" transform="translate(332,155)"/>
<path d="M0 0 C3.95831733 -0.02940464 7.91660597 -0.04693328 11.875 -0.0625 C12.98359375 -0.07087891 14.0921875 -0.07925781 15.234375 -0.08789062 C20.08653489 -0.10216168 24.85505358 -0.0851545 29.67578125 0.49609375 C36.71205392 1.29728877 43.78860084 1.14885254 50.8605957 1.13037109 C53.324443 1.12497384 55.78811109 1.13036297 58.25195312 1.13671875 C59.83072957 1.13605854 61.4095059 1.13477856 62.98828125 1.1328125 C64.08369987 1.13584885 64.08369987 1.13584885 65.20124817 1.13894653 C68.926077 1.12188304 72.37812719 0.89076222 76 0 C76 0.66 76 1.32 76 2 C76.84304687 1.97679687 77.68609375 1.95359375 78.5546875 1.9296875 C80.19824219 1.90261719 80.19824219 1.90261719 81.875 1.875 C83.51082031 1.84019531 83.51082031 1.84019531 85.1796875 1.8046875 C88 2 88 2 90 4 C88.97519531 4.06058594 87.95039062 4.12117187 86.89453125 4.18359375 C85.53384305 4.26805026 84.17316657 4.35269567 82.8125 4.4375 C82.13896484 4.47681641 81.46542969 4.51613281 80.77148438 4.55664062 C77.05701727 4.7921922 73.67104506 5.26579099 70 6 C76.27 6.66 82.54 7.32 89 8 C89 8.33 89 8.66 89 9 C88.36723145 8.99476318 87.73446289 8.98952637 87.08251953 8.98413086 C73.67958271 8.88837828 60.37176954 9.05452135 47 10 C46.505 9.01 46.505 9.01 46 8 C47.65 8 49.3 8 51 8 C51.33 7.01 51.66 6.02 52 5 C26.26 4.01 26.26 4.01 0 3 C0 2.01 0 1.02 0 0 Z " fill="#49160A" transform="translate(0,4)"/>
<path d="M0 0 C4.50235595 -0.02472359 9.00467236 -0.04287119 13.50708008 -0.05493164 C15.0386626 -0.0599596 16.57024033 -0.06678284 18.10180664 -0.07543945 C20.30356022 -0.08757229 22.50525033 -0.09324367 24.70703125 -0.09765625 C25.39150833 -0.10281754 26.07598541 -0.10797882 26.78120422 -0.11329651 C29.80906242 -0.1136536 32.10150142 0.03383381 35 1 C37.01063986 1.12770814 39.02485532 1.20191863 41.0390625 1.24609375 C42.85917847 1.29358765 42.85917847 1.29358765 44.71606445 1.34204102 C46.00601318 1.37354248 47.29596191 1.40504395 48.625 1.4375 C59.5211449 1.74901066 70.21882266 2.39296488 81 4 C81 3.67 81 3.34 81 3 C87.42616563 2.75750318 90.00421382 4.21009324 95 8 C86.97497656 8.79681084 79.06350113 9.12867289 71 9 C71 8.34 71 7.68 71 7 C70.41774658 6.98018066 69.83549316 6.96036133 69.2355957 6.93994141 C45.81633636 6.13137947 22.40893018 5.0604639 -1 4 C-0.67 2.68 -0.34 1.36 0 0 Z " fill="#562013" transform="translate(201,9)"/>
<path d="M0 0 C1.64062363 0.00502563 3.28124876 0.00958665 4.921875 0.01367188 C8.90628742 0.02459195 12.8906269 0.04179782 16.875 0.0625 C16.875 0.7225 16.875 1.3825 16.875 2.0625 C21.825 2.0625 26.775 2.0625 31.875 2.0625 C31.545 2.7225 31.215 3.3825 30.875 4.0625 C29.225 4.0625 27.575 4.0625 25.875 4.0625 C25.730625 4.866875 25.58625 5.67125 25.4375 6.5 C24.875 9.0625 24.875 9.0625 23.875 10.0625 C13.92796574 10.69464797 3.80793029 9.680549 -6.125 9.0625 C-6.125 8.4025 -6.125 7.7425 -6.125 7.0625 C-7.115 7.3925 -8.105 7.7225 -9.125 8.0625 C-10.68618428 8.12990865 -12.2500252 8.14764456 -13.8125 8.125 C-15.02486328 8.11146484 -15.02486328 8.11146484 -16.26171875 8.09765625 C-17.18404297 8.08025391 -17.18404297 8.08025391 -18.125 8.0625 C-18.125 7.7325 -18.125 7.4025 -18.125 7.0625 C-16.475 6.7325 -14.825 6.4025 -13.125 6.0625 C-15.89542109 3.29207891 -17.89033805 3.66453894 -21.75 3.4375 C-22.93851562 3.36273438 -24.12703125 3.28796875 -25.3515625 3.2109375 C-26.26679687 3.16195312 -27.18203125 3.11296875 -28.125 3.0625 C-28.125 2.4025 -28.125 1.7425 -28.125 1.0625 C-18.74254464 -0.14110791 -9.43967481 -0.05053563 0 0 Z " fill="#4E1809" transform="translate(147.125,57.9375)"/>
<path d="M0 0 C0 1.32 0 2.64 0 4 C-3.11862382 4.89637944 -6.01718308 5.18519428 -9.25585938 5.31298828 C-10.30374634 5.35618195 -11.3516333 5.39937561 -12.43127441 5.44387817 C-13.55739136 5.4856015 -14.6835083 5.52732483 -15.84375 5.5703125 C-17.0049939 5.61566132 -18.16623779 5.66101013 -19.3626709 5.70773315 C-21.81705713 5.80225156 -24.27152881 5.89457303 -26.72607422 5.98486328 C-30.48567514 6.12446808 -34.24475086 6.27470641 -38.00390625 6.42578125 C-40.3879964 6.51627095 -42.77211038 6.60613574 -45.15625 6.6953125 C-46.28236694 6.74108429 -47.40848389 6.78685608 -48.56872559 6.83401489 C-49.61661255 6.87090424 -50.66449951 6.90779358 -51.74414062 6.94580078 C-52.66473267 6.98053497 -53.58532471 7.01526917 -54.53381348 7.05105591 C-56.86527278 7.00278917 -58.77543756 6.66994372 -61 6 C-61 6.33 -61 6.66 -61 7 C-74.63379461 9.40117577 -87.20633307 10.30842783 -101 9 C-97.52333612 6.68222408 -94.66114367 6.4135707 -90.625 6 C-85.65521073 5.45106864 -80.75237884 4.79753016 -75.8203125 3.97265625 C-68.96027694 2.89943915 -62.18379394 2.5984771 -55.25 2.4375 C-48.43945051 2.25867552 -41.71704488 2.04748684 -34.95361328 1.20727539 C-32.0661028 0.90091493 -29.2130615 0.94401811 -26.3125 1 C-20.18742955 1.05314595 -14.16101684 0.72669736 -8.05859375 0.21875 C-5.35744265 0.02556423 -2.70638547 -0.04031859 0 0 Z " fill="#34110E" transform="translate(194,119)"/>
<path d="M0 0 C0 0.66 0 1.32 0 2 C-76.89 2 -153.78 2 -233 2 C-233 1.67 -233 1.34 -233 1 C-219.42890012 0.86837016 -205.85778961 0.73790048 -192.28666496 0.60884857 C-185.98277116 0.54886785 -179.67888146 0.48851081 -173.375 0.42724609 C-167.27359997 0.36796385 -161.17219068 0.30973232 -155.07077408 0.25218201 C-152.76118752 0.23022176 -150.45160432 0.20790423 -148.14202499 0.18519592 C-137.02251636 0.07608925 -125.90452732 -0.01401329 -114.78442383 0.00219727 C-104.7837532 0.01619041 -94.78662405 -0.08243057 -84.78693581 -0.21576118 C-81.79553412 -0.25521183 -78.80411037 -0.29213734 -75.81266785 -0.32835388 C-67.32680152 -0.43110882 -58.84095837 -0.53495186 -50.35522461 -0.64819336 C-45.11684482 -0.71791741 -39.87842174 -0.78209271 -34.63992882 -0.84269524 C-32.66453172 -0.86657558 -30.68915787 -0.89247637 -28.71381569 -0.92053413 C-9.03182314 -1.19857347 -9.03182314 -1.19857347 0 0 Z " fill="#5D2007" transform="translate(390,24)"/>
<path d="M0 0 C14.19 0 28.38 0 43 0 C43 0.66 43 1.32 43 2 C42.01 2.33 41.02 2.66 40 3 C40.495 3.99 40.495 3.99 41 5 C34.21296171 8.05825581 28.26645656 8.49634154 20.875 8.625 C18.65490136 8.68716081 16.43484778 8.75095359 14.21484375 8.81640625 C13.14991699 8.84492676 12.08499023 8.87344727 10.98779297 8.90283203 C5.31219408 9.08741189 -0.34187825 9.52427241 -6 10 C-6 7.36 -6 4.72 -6 2 C-4.02 2 -2.04 2 0 2 C0 1.34 0 0.68 0 0 Z " fill="#4E1707" transform="translate(6,37)"/>
<path d="M0 0 C0.721875 0.00257813 1.44375 0.00515625 2.1875 0.0078125 C2.909375 0.00523437 3.63125 0.00265625 4.375 0 C6.1875 0.1328125 6.1875 0.1328125 7.1875 1.1328125 C24.54706581 3.98214711 42.59509382 3.54434501 60.125 3.7578125 C62.76628713 3.7961179 65.40756345 3.8351762 68.04882812 3.875 C74.42828739 3.9695847 80.80781521 4.05500024 87.1875 4.1328125 C87.1875 4.4628125 87.1875 4.7928125 87.1875 5.1328125 C38.0175 5.1328125 -11.1525 5.1328125 -61.8125 5.1328125 C-61.8125 4.1428125 -61.8125 3.1528125 -61.8125 2.1328125 C-60.94711861 2.13614342 -60.94711861 2.13614342 -60.06425476 2.13954163 C-54.01248804 2.16181442 -47.96073314 2.17681006 -41.90893555 2.18774414 C-39.65600104 2.192746 -37.40306974 2.1995496 -35.15014648 2.20825195 C-31.89566249 2.2205004 -28.64122174 2.22608244 -25.38671875 2.23046875 C-24.39355148 2.23563004 -23.40038422 2.24079132 -22.37712097 2.24610901 C-15.83975964 2.24662327 -9.28906947 2.09942738 -2.8125 1.1328125 C-1.8125 0.1328125 -1.8125 0.1328125 0 0 Z " fill="#310F0C" transform="translate(61.8125,159.8671875)"/>
<path d="M0 0 C4.77000476 0.14759278 9.54064995 0.26943952 14.31140137 0.3901062 C15.74393753 0.42670097 15.74393753 0.42670097 17.20541382 0.46403503 C26.61991096 0.69241785 36.03124511 0.73513894 45.44812012 0.7104187 C46.18507111 0.7085556 46.92202209 0.7066925 47.68130493 0.70477295 C51.68696207 0.69306662 55.69253295 0.67415441 59.69812012 0.6479187 C59.36812012 1.3079187 59.03812012 1.9679187 58.69812012 2.6479187 C57.39874512 2.6272937 56.09937012 2.6066687 54.76062012 2.5854187 C53.40646378 2.56392416 52.05055929 2.57643672 50.69812012 2.6479187 C50.36812012 2.9779187 50.03812012 3.3079187 49.69812012 3.6479187 C47.19102489 3.89162166 44.71012868 4.07178477 42.19641113 4.20431519 C41.05031168 4.26758704 41.05031168 4.26758704 39.88105869 4.33213711 C31.82763047 4.74373471 23.78726172 4.77500678 15.72546387 4.74557495 C14.1803441 4.74370234 12.63522373 4.74228244 11.09010315 4.74128723 C7.08721176 4.73752829 3.08435857 4.72775744 -0.91851807 4.71658325 C-5.02872196 4.70622389 -9.13893223 4.70175899 -13.24914551 4.69674683 C-21.26674086 4.68612687 -29.28430558 4.66913367 -37.30187988 4.6479187 C-37.30187988 3.3279187 -37.30187988 2.0079187 -37.30187988 0.6479187 C-24.82309587 -0.20742787 -12.49993617 -0.38905537 0 0 Z " fill="#4B1706" transform="translate(37.3018798828125,112.35208129882813)"/>
<path d="M0 0 C1.65 0 3.3 0 5 0 C5 0.33 5 0.66 5 1 C7.77050026 1.1946838 10.54113002 1.38102792 13.3125 1.5625 C14.09818359 1.61857422 14.88386719 1.67464844 15.69335938 1.73242188 C16.45068359 1.78076172 17.20800781 1.82910156 17.98828125 1.87890625 C18.68477783 1.9260376 19.38127441 1.97316895 20.09887695 2.02172852 C22.22639828 2.09418115 22.22639828 2.09418115 25 1 C27.96235803 0.95946033 30.89553232 0.97866817 33.85546875 1.05078125 C34.7419812 1.06896912 35.62849365 1.08715698 36.54187012 1.105896 C39.42394393 1.16805788 42.30568107 1.2395218 45.1875 1.3125 C46.15942291 1.33545135 47.13134583 1.35840271 48.13272095 1.38204956 C62.81628127 1.73501464 77.38963634 2.42751572 92 4 C92 4.33 92 4.66 92 5 C56.03 5 20.06 5 -17 5 C-17 4.67 -17 4.34 -17 4 C-11.43930418 1.74566386 -5.9214349 1.40038172 0 1 C0 0.67 0 0.34 0 0 Z " fill="#38110C" transform="translate(298,160)"/>
<path d="M0 0 C23.76 0 47.52 0 72 0 C71.34 1.32 70.68 2.64 70 4 C65.75005737 4.05805933 61.50021676 4.09361654 57.25 4.125 C56.0434375 4.14175781 54.836875 4.15851562 53.59375 4.17578125 C52.43359375 4.18222656 51.2734375 4.18867187 50.078125 4.1953125 C49.00981445 4.20578613 47.94150391 4.21625977 46.84082031 4.22705078 C43.98320572 3.99865773 42.47128089 3.35350569 40 2 C37.32959031 2.11520054 37.32959031 2.11520054 34.5625 2.75 C33.63566406 2.93046875 32.70882812 3.1109375 31.75390625 3.296875 C28.96687982 3.94024594 28.96687982 3.94024594 26.30078125 5.109375 C24 6 24 6 21.625 5.5 C18.04701387 4.81847883 15.45981166 5.99350933 12 7 C10.66148156 6.688139 9.3284118 6.35243578 8 6 C5.40691089 5.97172644 2.83337798 6.06404384 0.2421875 6.16015625 C-2 6 -2 6 -4 4 C-2.68 3.67 -1.36 3.34 0 3 C0 2.01 0 1.02 0 0 Z " fill="#4E180A" transform="translate(268,31)"/>
<path d="M0 0 C3.03784812 0.28141334 6.07907665 0.45605809 9.125 0.625 C10.32189453 0.70234375 10.32189453 0.70234375 11.54296875 0.78125 C12.31511719 0.82507813 13.08726562 0.86890625 13.8828125 0.9140625 C14.92526123 0.9752124 14.92526123 0.9752124 15.98876953 1.03759766 C18.13697962 0.99743932 19.93338163 0.56330542 22 0 C23.41534778 -0.06456879 24.83337689 -0.08611039 26.25 -0.0625 C28.10625 -0.0315625 28.10625 -0.0315625 30 0 C30 0.33 30 0.66 30 1 C46.335 1.495 46.335 1.495 63 2 C63 2.33 63 2.66 63 3 C59.37 3.33 55.74 3.66 52 4 C52 4.33 52 4.66 52 5 C43.9239895 5.0232451 35.84799316 5.04097683 27.7719574 5.05181217 C24.02129936 5.05701449 20.27066433 5.06406361 16.52001953 5.07543945 C12.89550553 5.08636302 9.27101357 5.09229678 5.64648438 5.09487724 C4.26871392 5.09671451 2.89094458 5.10030201 1.51318359 5.10573006 C-5.41251377 5.13191236 -12.15265399 5.09451493 -19 4 C-18.01 3.34 -17.02 2.68 -16 2 C-16.33 1.34 -16.66 0.68 -17 0 C-15.29278846 -0.19745329 -13.58413679 -0.38247093 -11.875 -0.5625 C-10.92367188 -0.66691406 -9.97234375 -0.77132812 -8.9921875 -0.87890625 C-5.81337828 -1.00755258 -3.13017425 -0.55350642 0 0 Z " fill="#6C2809" transform="translate(302,75)"/>
<path d="M0 0 C1.39025391 -0.00193359 1.39025391 -0.00193359 2.80859375 -0.00390625 C4.24138672 0.00189453 4.24138672 0.00189453 5.703125 0.0078125 C6.67378906 0.00394531 7.64445312 0.00007813 8.64453125 -0.00390625 C9.56621094 -0.00261719 10.48789062 -0.00132813 11.4375 0 C12.70158691 0.00169189 12.70158691 0.00169189 13.99121094 0.00341797 C15.953125 0.1328125 15.953125 0.1328125 16.953125 1.1328125 C19.61739185 1.29284738 22.25872928 1.39224139 24.92578125 1.44921875 C26.12224525 1.4803904 26.12224525 1.4803904 27.34288025 1.51219177 C29.90037111 1.57777408 32.4579678 1.63661217 35.015625 1.6953125 C36.74545382 1.73848949 38.47527179 1.78210351 40.20507812 1.82617188 C44.4543176 1.93346422 48.7036639 2.03470676 52.953125 2.1328125 C52.953125 2.7928125 52.953125 3.4528125 52.953125 4.1328125 C18.633125 4.1328125 -15.686875 4.1328125 -51.046875 4.1328125 C-51.046875 3.4728125 -51.046875 2.8128125 -51.046875 2.1328125 C-49.83104736 2.10775635 -48.61521973 2.0827002 -47.36254883 2.05688477 C-42.84307683 1.96257061 -38.32374992 1.86240881 -33.80444336 1.76049805 C-31.85005085 1.71723992 -29.89562278 1.67555852 -27.94116211 1.63549805 C-25.12863455 1.57757414 -22.31628452 1.51394377 -19.50390625 1.44921875 C-18.63288773 1.43250626 -17.7618692 1.41579376 -16.86445618 1.39857483 C-11.15913221 1.25988175 -5.68151183 0.00756382 0 0 Z " fill="#401309" transform="translate(51.046875,49.8671875)"/>
<path d="M0 0 C0.89750977 0.03029297 1.79501953 0.06058594 2.71972656 0.09179688 C24.9635341 0.81201978 47.18209051 1.0595861 69.4375 1 C95.97118833 0.92904076 122.47574056 1.31333506 149 2 C149 2.33 149 2.66 149 3 C99.83 3 50.66 3 0 3 C0 2.01 0 1.02 0 0 Z " fill="#4D1708" transform="translate(0,23)"/>
<path d="M0 0 C-1.55564051 1.82800487 -2.55091524 2.87986876 -4.90011597 3.50828552 C-13.10011209 4.13759942 -21.2896774 4.12648471 -29.5078125 4.09765625 C-31.08535721 4.09578744 -32.6629025 4.09436573 -34.240448 4.09336853 C-38.36016487 4.08957978 -42.47984559 4.07978129 -46.59954834 4.06866455 C-50.81636059 4.05837144 -55.03317877 4.0538541 -59.25 4.04882812 C-67.50001646 4.03815517 -75.75000371 4.02112338 -84 4 C-84 3.34 -84 2.68 -84 2 C-55.9930753 0.75940306 -28.03846885 -0.40085791 0 0 Z " fill="#5A1E03" transform="translate(84,131)"/>
<path d="M0 0 C2.69082872 0.17635452 5.32851446 0.61835921 8 1 C8 1.66 8 2.32 8 3 C8.91265625 2.89171875 8.91265625 2.89171875 9.84375 2.78125 C18.24449341 1.89175952 26.565624 1.90475611 35 2 C35.495 2.99 35.495 2.99 36 4 C36.99 4 37.98 4 39 4 C39 4.66 39 5.32 39 6 C36.75040906 6.17209985 34.50029236 6.33732826 32.25 6.5 C30.99703125 6.5928125 29.7440625 6.685625 28.453125 6.78125 C16.85677644 7.44116153 5.32381871 6.70430835 -6.25 6 C-7.88149137 5.90332384 -9.51300172 5.80696747 -11.14453125 5.7109375 C-15.09658229 5.47763785 -19.04835259 5.24003545 -23 5 C-22.67 4.01 -22.34 3.02 -22 2 C-21.36908447 1.97494385 -20.73816895 1.9498877 -20.08813477 1.92407227 C-17.24603175 1.80845863 -14.40428917 1.68557684 -11.5625 1.5625 C-10.56927734 1.52318359 -9.57605469 1.48386719 -8.55273438 1.44335938 C-7.60849609 1.40146484 -6.66425781 1.35957031 -5.69140625 1.31640625 C-4.81685791 1.27974854 -3.94230957 1.24309082 -3.04125977 1.20532227 C-1.0072598 1.21818934 -1.0072598 1.21818934 0 0 Z " fill="#652309" transform="translate(186,73)"/>
<path d="M0 0 C33.33 0 66.66 0 101 0 C101 0.33 101 0.66 101 1 C92.96691138 1.88206463 85.03965413 2.08737847 76.96923828 1.96289062 C72.85416473 1.79950835 72.85416473 1.79950835 69 3 C66.6892735 3.16720056 64.37405785 3.27385162 62.05859375 3.3515625 C61.37571793 3.37471527 60.6928421 3.39786804 59.98927307 3.42172241 C58.54606459 3.46933822 57.10277596 3.5145752 55.65942383 3.55761719 C53.44256563 3.62484638 51.22624306 3.70255558 49.00976562 3.78125 C47.60939513 3.82615298 46.20900487 3.87044475 44.80859375 3.9140625 C42.88744751 3.9752124 42.88744751 3.9752124 40.92749023 4.03759766 C38 4 38 4 37 3 C34.19023482 2.83982834 31.40226404 2.74049466 28.58984375 2.68359375 C27.74780899 2.66281265 26.90577423 2.64203156 26.03822327 2.62062073 C23.33806821 2.55503188 20.63781283 2.49619724 17.9375 2.4375 C16.11131759 2.39432363 14.28514546 2.35070964 12.45898438 2.30664062 C7.97276008 2.19934106 3.4864345 2.09810034 -1 2 C-0.67 1.34 -0.34 0.68 0 0 Z " fill="#5D1E03" transform="translate(234,85)"/>
<path d="M0 0 C36.3 0 72.6 0 110 0 C110 0.33 110 0.66 110 1 C109.40627594 1.01030746 108.81255188 1.02061493 108.20083618 1.03123474 C73.92226323 1.52918076 73.92226323 1.52918076 39.66259766 2.69506836 C23.14124534 3.45690841 23.14124534 3.45690841 16.5625 2.5 C11.05661574 1.72724431 5.55077091 1.92487678 0 2 C0 1.34 0 0.68 0 0 Z " fill="#37100B" transform="translate(127,111)"/>
<path d="M0 0 C18.81 0 37.62 0 57 0 C57 0.66 57 1.32 57 2 C56.2575 2.12375 55.515 2.2475 54.75 2.375 C52.06403286 2.83990411 52.06403286 2.83990411 50.1875 4.0625 C46.75870157 5.53198504 43.71044655 5.18248098 40 5 C39.505 4.505 39.505 4.505 39 4 C37.61903897 3.92549441 36.23437565 3.91671016 34.8515625 3.9375 C33.59085937 3.94910156 33.59085937 3.94910156 32.3046875 3.9609375 C30.52604 3.98686531 28.74739415 4.01290597 26.96875 4.0390625 C26.12570312 4.04679688 25.28265625 4.05453125 24.4140625 4.0625 C23.25318115 4.07990234 23.25318115 4.07990234 22.06884766 4.09765625 C20 4 20 4 17 3 C13.78660981 2.77431039 10.57983729 2.60656005 7.36132812 2.48242188 C2.21473861 2.21473861 2.21473861 2.21473861 0 0 Z " fill="#591F09" transform="translate(295,0)"/>
<path d="M0 0 C1.03253906 0.00676758 1.03253906 0.00676758 2.0859375 0.01367188 C3.76566335 0.02533664 5.44534375 0.04326729 7.125 0.0625 C7.455 1.0525 7.785 2.0425 8.125 3.0625 C10.6 3.5575 10.6 3.5575 13.125 4.0625 C12.795 4.7225 12.465 5.3825 12.125 6.0625 C7.19824223 7.28267833 2.28843228 7.18050815 -2.75 7.125 C-3.53375 7.12048828 -4.3175 7.11597656 -5.125 7.11132812 C-7.04170014 7.09964093 -8.95836048 7.08170908 -10.875 7.0625 C-10.545 6.0725 -10.215 5.0825 -9.875 4.0625 C-11.195 3.4025 -12.515 2.7425 -13.875 2.0625 C-13.875 1.7325 -13.875 1.4025 -13.875 1.0625 C-9.21962644 0.14157719 -4.72814567 -0.05955997 0 0 Z " fill="#421209" transform="translate(22.875,36.9375)"/>
<path d="M0 0 C0 0.66 0 1.32 0 2 C-7.27334836 2.02560936 -14.54668486 2.04297435 -21.82006836 2.05493164 C-24.28817174 2.05992291 -26.75627222 2.06671828 -29.22436523 2.07543945 C-55.52660199 2.16597155 -55.52660199 2.16597155 -68 1 C-68 0.67 -68 0.34 -68 0 C-60.75823769 -0.15486527 -53.51636956 -0.30302623 -46.27430248 -0.4429636 C-42.91041312 -0.5081671 -39.54659903 -0.57555621 -36.18286133 -0.64819336 C-32.30298813 -0.73083559 -28.42302813 -0.80559374 -24.54296875 -0.87890625 C-23.35293747 -0.90594131 -22.16290619 -0.93297638 -20.93681335 -0.96083069 C-13.8844138 -1.08511426 -7.00820629 -0.80972809 0 0 Z " fill="#68280B" transform="translate(390,24)"/>
<path d="M0 0 C0 1.32 0 2.64 0 4 C-1.23105469 3.9278125 -2.46210938 3.855625 -3.73046875 3.78125 C-22.484197 2.78259394 -41.22639742 2.90172472 -60 3 C-60.33 2.34 -60.66 1.68 -61 1 C-53.1163036 0.8569559 -45.23259479 0.71461161 -37.34887695 0.57275391 C-34.66690693 0.52446303 -31.98494108 0.47594952 -29.30297852 0.42724609 C-25.4480869 0.35732579 -21.59318529 0.28798162 -17.73828125 0.21875 C-16.53915604 0.19687622 -15.34003082 0.17500244 -14.10456848 0.15246582 C-12.98378403 0.13244507 -11.86299957 0.11242432 -10.70825195 0.09179688 C-9.23265556 0.06514954 -9.23265556 0.06514954 -7.72724915 0.03796387 C-5.1510558 0.00210273 -2.57639976 -0.00689686 0 0 Z " fill="#581A02" transform="translate(390,140)"/>
<path d="M0 0 C21.45 0 42.9 0 65 0 C65 0.33 65 0.66 65 1 C58.32897044 1.28751499 51.65781724 1.57201994 44.98657227 1.85449219 C42.71994155 1.95081389 40.45333936 2.04780934 38.18676758 2.14550781 C34.91755431 2.28630452 31.64824409 2.42462967 28.37890625 2.5625 C26.87367149 2.62812134 26.87367149 2.62812134 25.33802795 2.69506836 C16.45454021 3.0654757 7.83340554 3.12170229 -1 2 C-0.67 1.34 -0.34 0.68 0 0 Z " fill="#6A2603" transform="translate(86,29)"/>
<path d="M0 0 C0 0.33 0 0.66 0 1 C2.31 1 4.62 1 7 1 C7.33 2.65 7.66 4.3 8 6 C-0.25 6 -8.5 6 -17 6 C-17 5.01 -17 4.02 -17 3 C-11.10261508 0.70657253 -6.33393082 -0.34548714 0 0 Z " fill="#591B02" transform="translate(382,129)"/>
<path d="M0 0 C-0.33 0.66 -0.66 1.32 -1 2 C-1.66 2 -2.32 2 -3 2 C-2.67 2.66 -2.34 3.32 -2 4 C-1.67 4.66 -1.34 5.32 -1 6 C-4.84772574 7.17018463 -8.75990495 7.37838484 -12.75 7.625 C-13.46285156 7.67003662 -14.17570312 7.71507324 -14.91015625 7.76147461 C-19.77628323 8.02891143 -24.22073736 7.89611174 -29 7 C-29 6.67 -29 6.34 -29 6 C-25.7 6 -22.4 6 -19 6 C-19.33 4.35 -19.66 2.7 -20 1 C-13.30386804 0.202163 -6.74233419 -0.12910853 0 0 Z " fill="#4E1809" transform="translate(81,36)"/>
<path d="M0 0 C13.86 0 27.72 0 42 0 C42 0.66 42 1.32 42 2 C40.94039063 2.13277344 39.88078125 2.26554687 38.7890625 2.40234375 C37.40101721 2.58053875 36.01299769 2.7589346 34.625 2.9375 C33.92632812 3.02451172 33.22765625 3.11152344 32.5078125 3.20117188 C28.63216425 3.66318128 28.63216425 3.66318128 25 5 C25 4.34 25 3.68 25 3 C24.20078125 3.01160156 23.4015625 3.02320313 22.578125 3.03515625 C14.99189461 3.09748443 7.54742488 2.76154197 0 2 C0 1.34 0 0.68 0 0 Z " fill="#521906" transform="translate(348,31)"/>
<path d="M0 0 C1.21816406 0.03480469 1.21816406 0.03480469 2.4609375 0.0703125 C3.68683594 0.09738281 3.68683594 0.09738281 4.9375 0.125 C5.87722656 0.15980469 5.87722656 0.15980469 6.8359375 0.1953125 C6.8359375 1.8453125 6.8359375 3.4953125 6.8359375 5.1953125 C2.44681838 6.27319048 -1.85690668 6.38678699 -6.3515625 6.3828125 C-7.47679321 6.3837793 -7.47679321 6.3837793 -8.62475586 6.38476562 C-14.31201784 6.3308405 -19.66357359 5.70896055 -25.1640625 4.1953125 C-25.1640625 3.8653125 -25.1640625 3.5353125 -25.1640625 3.1953125 C-24.53838379 3.17549316 -23.91270508 3.15567383 -23.26806641 3.13525391 C-20.44129731 3.04017024 -17.61528435 2.93042504 -14.7890625 2.8203125 C-13.80421875 2.789375 -12.819375 2.7584375 -11.8046875 2.7265625 C-10.86367188 2.68789062 -9.92265625 2.64921875 -8.953125 2.609375 C-7.64915771 2.56224365 -7.64915771 2.56224365 -6.31884766 2.51416016 C-3.42798773 2.08639412 -2.92265628 0.26377764 0 0 Z " fill="#511806" transform="translate(383.1640625,65.8046875)"/>
<path d="M0 0 C1.98 0 3.96 0 6 0 C6 0.33 6 0.66 6 1 C6.77085937 1.04898438 7.54171875 1.09796875 8.3359375 1.1484375 C9.84027344 1.26058594 9.84027344 1.26058594 11.375 1.375 C12.87160156 1.47941406 12.87160156 1.47941406 14.3984375 1.5859375 C17 2 17 2 19 4 C2.17 4 -14.66 4 -32 4 C-32 3.67 -32 3.34 -32 3 C-31.03578125 2.93941406 -30.0715625 2.87882813 -29.078125 2.81640625 C-27.81484375 2.73261719 -26.5515625 2.64882812 -25.25 2.5625 C-23.99703125 2.48128906 -22.7440625 2.40007812 -21.453125 2.31640625 C-18.2151089 2.11689786 -18.2151089 2.11689786 -16 1.46875 C-12.91990407 0.74685252 -9.90452784 0.90829141 -6.75 0.9375 C-4.85507813 0.95103516 -4.85507813 0.95103516 -2.921875 0.96484375 C-1.95765625 0.97644531 -0.9934375 0.98804688 0 1 C0 0.67 0 0.34 0 0 Z " fill="#622408" transform="translate(209,131)"/>
<path d="M0 0 C0 0.66 0 1.32 0 2 C0.99 2.33 1.98 2.66 3 3 C-1.32561706 3.78647583 -5.34987917 4.02343986 -9.75 3.9375 C-14.94700461 3.87212887 -19.65992501 4.52271443 -24.72265625 5.66015625 C-27 6 -27 6 -30 5 C-30 4.34 -30 3.68 -30 3 C-19.87923416 0.82371841 -10.35869475 -0.17425842 0 0 Z " fill="#45150C" transform="translate(313,96)"/>
<path d="M0 0 C1.45019531 -0.00193359 1.45019531 -0.00193359 2.9296875 -0.00390625 C4.45722656 0.00189453 4.45722656 0.00189453 6.015625 0.0078125 C7.51996094 0.00201172 7.51996094 0.00201172 9.0546875 -0.00390625 C10.02664063 -0.00261719 10.99859375 -0.00132813 12 0 C12.88913086 0.00112793 13.77826172 0.00225586 14.69433594 0.00341797 C17.31036795 0.13506409 19.70335285 0.60874059 22.265625 1.1328125 C23.66635498 1.2075331 25.06997561 1.24117624 26.47265625 1.23046875 C27.22353516 1.22724609 27.97441406 1.22402344 28.74804688 1.22070312 C29.51697266 1.21232422 30.28589844 1.20394531 31.078125 1.1953125 C31.86638672 1.19080078 32.65464844 1.18628906 33.46679688 1.18164062 C35.39977261 1.16992562 37.33270893 1.15199248 39.265625 1.1328125 C37.265625 3.1328125 37.265625 3.1328125 33.34375 3.36328125 C31.73431623 3.35928431 30.12488194 3.34450228 28.515625 3.3203125 C27.71640625 3.31966797 26.9171875 3.31902344 26.09375 3.31835938 C22.69286226 3.29318833 19.52040055 3.17773514 16.1640625 2.5859375 C11.32488513 1.82940842 6.57666432 2.60469792 1.7265625 3.07421875 C-1.57910285 3.13018374 -3.03735491 2.93310764 -5.734375 1.1328125 C-4.1006941 -0.5008684 -2.24983857 0.00286865 0 0 Z " fill="#551D07" transform="translate(350.734375,73.8671875)"/>
<path d="M0 0 C1.485 0.495 1.485 0.495 3 1 C3 1.99 3 2.98 3 4 C-6.24 4.33 -15.48 4.66 -25 5 C-25 5.99 -25 6.98 -25 8 C-27.86724686 7.42655063 -28.8614515 7.1385485 -31 5 C-23.13639113 2.19030604 -15.55754023 1.55893048 -7.2878418 1.29125977 C-3.32338183 1.55832072 -3.32338183 1.55832072 0 0 Z " fill="#581D0C" transform="translate(139,35)"/>
<path d="M0 0 C8.91 0 17.82 0 27 0 C23.68629 2.20914 22.6553979 2.22481553 18.8125 2.125 C17.91144531 2.10695313 17.01039062 2.08890625 16.08203125 2.0703125 C15.39496094 2.04710938 14.70789063 2.02390625 14 2 C15.18180682 3.38645369 15.18180682 3.38645369 18.5 3.4375 C19.655 3.623125 20.81 3.80875 22 4 C22.33 4.66 22.66 5.32 23 6 C18.71 6 14.42 6 10 6 C9.67 5.34 9.34 4.68 9 4 C6.88672575 3.09274566 6.88672575 3.09274566 4.4375 2.375 C3.61121094 2.11460938 2.78492187 1.85421875 1.93359375 1.5859375 C1.29550781 1.39257812 0.65742187 1.19921875 0 1 C0 0.67 0 0.34 0 0 Z " fill="#45140B" transform="translate(91,64)"/>
<path d="M0 0 C6.6 0 13.2 0 20 0 C19.67 0.66 19.34 1.32 19 2 C17.35 2 15.7 2 14 2 C14 2.66 14 3.32 14 4 C7.73 4 1.46 4 -5 4 C-5 3.34 -5 2.68 -5 2 C-3.35 2 -1.7 2 0 2 C0 1.34 0 0.68 0 0 Z " fill="#46150B" transform="translate(159,60)"/>
<path d="M0 0 C19.14 0 38.28 0 58 0 C58 0.33 58 0.66 58 1 C28.86097406 2.40027356 28.86097406 2.40027356 16 1 C15.67 1.66 15.34 2.32 15 3 C12.87436897 2.88623383 10.7494739 2.75864369 8.625 2.625 C7.44164063 2.55539063 6.25828125 2.48578125 5.0390625 2.4140625 C2 2 2 2 0 0 Z " fill="#4A1506" transform="translate(66,56)"/>
<path d="M0 0 C0 0.66 0 1.32 0 2 C-7.26 2.33 -14.52 2.66 -22 3 C-22 3.33 -22 3.66 -22 4 C-23.98 4 -25.96 4 -28 4 C-28 3.34 -28 2.68 -28 2 C-32.29 2 -36.58 2 -41 2 C-41 1.67 -41 1.34 -41 1 C-27.32060126 0.26908428 -13.69890638 -0.14236739 0 0 Z " fill="#320F0C" transform="translate(191,139)"/>
<path d="M0 0 C2.05078125 0.03255208 4.1015625 0.06510417 6.15234375 0.09765625 C6.15234375 0.75765625 6.15234375 1.41765625 6.15234375 2.09765625 C9.45234375 2.09765625 12.75234375 2.09765625 16.15234375 2.09765625 C16.15234375 2.42765625 16.15234375 2.75765625 16.15234375 3.09765625 C3.94234375 3.42765625 -8.26765625 3.75765625 -20.84765625 4.09765625 C-20.84765625 3.43765625 -20.84765625 2.77765625 -20.84765625 2.09765625 C-21.50765625 1.76765625 -22.16765625 1.43765625 -22.84765625 1.09765625 C-21.94672241 1.10551147 -21.94672241 1.10551147 -21.02758789 1.11352539 C-18.32178787 1.13423639 -15.61600448 1.1472975 -12.91015625 1.16015625 C-11.96462891 1.16853516 -11.01910156 1.17691406 -10.04492188 1.18554688 C-9.14580078 1.18876953 -8.24667969 1.19199219 -7.3203125 1.1953125 C-6.48765869 1.20054932 -5.65500488 1.20578613 -4.79711914 1.21118164 C-2.46933081 1.07562477 -2.29589198 0.12134736 0 0 Z " fill="#6F3013" transform="translate(303.84765625,20.90234375)"/>
<path d="M0 0 C2.85423192 -0.02718316 5.70820015 -0.04692705 8.5625 -0.0625 C9.36236328 -0.07087891 10.16222656 -0.07925781 10.98632812 -0.08789062 C15.77163104 -0.10742247 20.28145051 0.19562982 25 1 C21.35581659 3.42945561 20.07076636 3.0828781 15.8125 2.625 C14.72582031 2.51414063 13.63914062 2.40328125 12.51953125 2.2890625 C11.68808594 2.19367187 10.85664063 2.09828125 10 2 C10 2.66 10 3.32 10 4 C6.7 4 3.4 4 0 4 C0 2.68 0 1.36 0 0 Z " fill="#401209" transform="translate(0,60)"/>
<path d="M0 0 C0 0.99 0 1.98 0 3 C-10.23 3 -20.46 3 -31 3 C-31 2.67 -31 2.34 -31 2 C-26.20301448 1.09961944 -21.48735883 0.70138246 -16.625 0.4375 C-15.90828125 0.39431641 -15.1915625 0.35113281 -14.453125 0.30664062 C-9.6280543 0.03229094 -4.83268805 -0.03818151 0 0 Z " fill="#6C2802" transform="translate(390,84)"/>
<path d="M0 0 C0 1.98 0 3.96 0 6 C-1.1446875 5.7834375 -1.1446875 5.7834375 -2.3125 5.5625 C-6.43940824 4.93297162 -10.54258514 4.64304791 -14.70703125 4.37890625 C-15.46371094 4.25386719 -16.22039062 4.12882812 -17 4 C-17.33 3.34 -17.66 2.68 -18 2 C-11.93184478 0.77100654 -6.20104812 -0.27560214 0 0 Z " fill="#521A06" transform="translate(390,94)"/>
<path d="M0 0 C6.1105424 -0.11269443 11.95170514 0.10395632 18 1 C17.34 1.66 16.68 2.32 16 3 C16.99 3.66 17.98 4.32 19 5 C4.15 4.505 4.15 4.505 -11 4 C-11 3.67 -11 3.34 -11 3 C-3.08 2.505 -3.08 2.505 5 2 C3.35 1.67 1.7 1.34 0 1 C0 0.67 0 0.34 0 0 Z " fill="#6D2E0E" transform="translate(354,17)"/>
<path d="M0 0 C-3.40689682 2.27126455 -5.10263559 2.33472756 -9.125 2.5625 C-12.87914167 2.46334775 -12.87914167 2.46334775 -16 4 C-18.67058851 4.14115161 -21.32432238 4.04247107 -24 4 C-24 3.34 -24 2.68 -24 2 C-24.99 1.67 -25.98 1.34 -27 1 C-17.96278689 0.05757182 -9.07448253 -0.11157151 0 0 Z " fill="#35100E" transform="translate(239,119)"/>
<path d="M0 0 C8.25 0 16.5 0 25 0 C24.67 0.99 24.34 1.98 24 3 C18.39 3 12.78 3 7 3 C7 2.34 7 1.68 7 1 C6.01 1.66 5.02 2.32 4 3 C3.01 3 2.02 3 1 3 C0.67 3.66 0.34 4.32 0 5 C0 3.35 0 1.7 0 0 Z " fill="#5C1E03" transform="translate(0,15)"/>
<path d="M0 0 C8.25 0 16.5 0 25 0 C24.01 1.485 24.01 1.485 23 3 C20.75341797 3.2487793 20.75341797 3.2487793 17.9921875 3.07421875 C17.00605469 3.01943359 16.01992188 2.96464844 15.00390625 2.90820312 C13.97136719 2.83537109 12.93882812 2.76253906 11.875 2.6875 C10.83472656 2.62626953 9.79445312 2.56503906 8.72265625 2.50195312 C6.14727 2.34837505 3.57361768 2.18048829 1 2 C0.67 1.34 0.34 0.68 0 0 Z " fill="#6C2A12" transform="translate(245,9)"/>
<path d="M0 0 C-0.99 1.485 -0.99 1.485 -2 3 C-5.2578125 3.29296875 -5.2578125 3.29296875 -9.125 3.1875 C-11.04699219 3.14689453 -11.04699219 3.14689453 -13.0078125 3.10546875 C-13.99523437 3.07066406 -14.98265625 3.03585938 -16 3 C-16.33 2.01 -16.66 1.02 -17 0 C-14.72979256 -0.19493195 -12.45879711 -0.38070418 -10.1875 -0.5625 C-8.92292969 -0.66691406 -7.65835937 -0.77132812 -6.35546875 -0.87890625 C-3 -1 -3 -1 0 0 Z " fill="#38110D" transform="translate(270,123)"/>
<path d="M0 0 C7.26 0 14.52 0 22 0 C21.67 0.66 21.34 1.32 21 2 C10.11 2.495 10.11 2.495 -1 3 C-0.67 2.01 -0.34 1.02 0 0 Z " fill="#622209" transform="translate(230,100)"/>
<path d="M0 0 C6.27 0 12.54 0 19 0 C19 0.33 19 0.66 19 1 C16.14694871 1.50720912 13.29283186 2.00593634 10.4375 2.5 C9.63763672 2.64308594 8.83777344 2.78617188 8.01367188 2.93359375 C3.26475402 3.74769395 -1.18246077 4.15519589 -6 4 C-6 3.67 -6 3.34 -6 3 C-5.195625 2.87625 -4.39125 2.7525 -3.5625 2.625 C-2.716875 2.41875 -1.87125 2.2125 -1 2 C-0.67 1.34 -0.34 0.68 0 0 Z " fill="#551C08" transform="translate(130,30)"/>
<path d="M0 0 C-0.66 0 -1.32 0 -2 0 C-2 0.66 -2 1.32 -2 2 C-6.625 4.125 -6.625 4.125 -10 3 C-10.99 2.34 -11.98 1.68 -13 1 C-12.67 0.34 -12.34 -0.32 -12 -1 C-3.71320755 -2.63018868 -3.71320755 -2.63018868 0 0 Z " fill="#521A05" transform="translate(113,114)"/>
<path d="M0 0 C14.78132118 -0.3690205 14.78132118 -0.3690205 21 2 C21 2.66 21 3.32 21 4 C17.7 3.67 14.4 3.34 11 3 C11 2.34 11 1.68 11 1 C9.39125 1.309375 9.39125 1.309375 7.75 1.625 C3.95169461 2.00483054 3.1157335 1.80602252 0 0 Z " fill="#4D1A10" transform="translate(261,12)"/>
<path d="M0 0 C0.99 0.33 1.98 0.66 3 1 C2.67 1.66 2.34 2.32 2 3 C-0.94140625 3.6328125 -0.94140625 3.6328125 -4.5625 4.125 C-5.76003906 4.29257812 -6.95757812 4.46015625 -8.19140625 4.6328125 C-9.11824219 4.75398438 -10.04507812 4.87515625 -11 5 C-11 4.34 -11 3.68 -11 3 C-11.99 2.67 -12.98 2.34 -14 2 C-11.3618463 0.68092315 -9.37722213 0.93867594 -6.4375 1 C-4.62539219 1.03770315 -2.81190256 1.04653361 -1 1 C-0.67 0.67 -0.34 0.34 0 0 Z " fill="#591F0A" transform="translate(326,49)"/>
<path d="M0 0 C8.25 0 16.5 0 25 0 C24.01 1.485 24.01 1.485 23 3 C22.19304687 2.84660156 21.38609375 2.69320312 20.5546875 2.53515625 C16.40952821 1.9111048 12.3077704 1.65372796 8.125 1.4375 C7.34125 1.39431641 6.5575 1.35113281 5.75 1.30664062 C3.83349351 1.20146649 1.91676667 1.10032075 0 1 C0 0.67 0 0.34 0 0 Z " fill="#561D0A" transform="translate(315,41)"/>
<path d="M0 0 C0.9075 0.226875 1.815 0.45375 2.75 0.6875 C2.42 1.6775 2.09 2.6675 1.75 3.6875 C-1.22 3.3575 -4.19 3.0275 -7.25 2.6875 C-4.61280971 0.1517401 -3.74095095 -0.35970682 0 0 Z " fill="#511705" transform="translate(379.25,145.3125)"/>
<path d="M0 0 C2.97 0 5.94 0 9 0 C8.67 0.99 8.34 1.98 8 3 C5.03 2.67 2.06 2.34 -1 2 C-0.67 1.34 -0.34 0.68 0 0 Z " fill="#45150D" transform="translate(171,94)"/>
<path d="M0 0 C7.75 -0.125 7.75 -0.125 10 1 C10 1.66 10 2.32 10 3 C8.35 3 6.7 3 5 3 C5 2.34 5 1.68 5 1 C3.35 1 1.7 1 0 1 C0 0.67 0 0.34 0 0 Z " fill="#5E2109" transform="translate(236,130)"/>
<path d="M0 0 C1.32 1.32 2.64 2.64 4 4 C2.35 4.33 0.7 4.66 -1 5 C-1.33 3.68 -1.66 2.36 -2 1 C-1.34 0.67 -0.68 0.34 0 0 Z " fill="#712F12" transform="translate(195,47)"/>
</svg>
